<mxfile host="Electron" agent="Mozilla/5.0 (Windows NT 10.0; Win64; x64) AppleWebKit/537.36 (KHTML, like Gecko) draw.io/25.0.2 Chrome/128.0.6613.186 Electron/32.2.5 Safari/537.36" version="25.0.2">
  <diagram name="Page-1" id="ccenQqHX9cEkOghs99rF">
    <mxGraphModel dx="1629" dy="993" grid="0" gridSize="10" guides="1" tooltips="1" connect="1" arrows="1" fold="1" page="0" pageScale="1" pageWidth="827" pageHeight="1169" math="0" shadow="0">
      <root>
        <mxCell id="0" />
        <mxCell id="1" parent="0" />
        <mxCell id="38yjaDSSOYZPgfIshnpb-632" value="" style="shape=waypoint;sketch=0;size=6;pointerEvents=1;points=[];fillColor=#d5e8d4;resizable=0;rotatable=0;perimeter=centerPerimeter;snapToPoint=1;strokeColor=#82b366;" vertex="1" parent="1">
          <mxGeometry x="1661" y="1712" width="20" height="20" as="geometry" />
        </mxCell>
        <mxCell id="38yjaDSSOYZPgfIshnpb-537" value="" style="shape=image;verticalLabelPosition=bottom;labelBackgroundColor=default;verticalAlign=top;aspect=fixed;imageAspect=0;image=data:image/png,iVBORw0KGgoAAAANSUhEUgAAAM4AAAF4CAIAAACTmVFPAAAgAElEQVR4Aeydd0ATyfvwIYUQuhQBKYIFsYDYgBNRQEUFBAXsDQunoiAI9o693Z2KBXs5C3j2Uw9BBQVRFBCkSe+9hjSSncnLuffy44uQAkkIJPvXZjP7zDPPfHb6PCPFklwSCwjFAlJCiUUSicQCLAlqEgiEZIEejBoAgMlkMhgM+o+LRqNRqVQymZyenh4WFnbt2rVdu3Zt3Lhx0aJFdnZ21tbWo0ePtrCwMDExMTAwMDQ0NDU11dTU1NfXHzJkyOjRoydMmGBnZ7do0SJfX98LFy48f/48OTm5sbGRRqPR6XQmkwkAEFKe9NJoegBqsNXV1NRUW1tbVFT07du3jx8/Pnr06MSJE8uWLZsyZYqpqengwYMVFRVxPy4MBoPFYvF4PJFIVFFRUVdX19LS0tbW7tu3r66uro6OjpaWlr6+vp6enqamZt++fTU0NPr06aOkpCQjI4O+i8ViZWVlhwwZMnXq1ICAgEePHn358iU3N7euro7BYKBK9VIqBJKsHoBaY2Pj9+/f3759e+bMmY0bN86fP3/SpEn9+/dXVlbGYrFSUlLS0tKqqqoDBw40MjIyNze3t7f39PTcsGHDzp07Dx8+HBQU9Oeff4aEhDx58uTFixePHz9+8+ZNeHj4s2fP3v64nj59+uDBg0ePHv35559Xr149evTorl27li9fPmvWrLFjx/bv319RUVFKSgqPx6urq48dO3bhwoUHDx58+fJlbm4ugiAQQoHkTK8TKnKoQQgBAAiCkMnk2NjY3377bcqUKUOHDtXT01NQUMBisRgMRk5ObsiQIba2tqtXrz5z5syzZ8+io6NTU1PT09Pz8/PLysrQig/loFWZ+O8ti8Vq8+TnnwAAEolUVVWVl5eXkpISFxd3+/ZtPz8/KysrVAcikailpTVixIglS5a8fv26sbER/Lh6HR78TJDIoUan0z9//rxu3To1NTU8Ho/D4aR/XJqamsuWLQsKCvr48SOJRGpqamL8uJD/f/HTKj/JQhAEbRcyGIyUlJTVq1drampKS0ujdXT//v337dtXXV3903uSB/9nAZFAjU6nFxYWxsbGbtiwwdjYGIfDycjI9O3bd+jQoa6urpcvX05MTGQwGP+ntQjckcnk+Ph4Pz+/ESNG9O3bF4fDaWho+Pv7x8XF1dXViYCCIqdCt6GG1jipqakvX77cv3//xIkT5eTkcDhc//79p06dun379ocPH+bn5yMIgoYUtSYRAABCiCBIWVnZ48ePly9fbmBgICMjo6+vv3r16o8fP1KpVFHTuXvp6x7UIIQlJSXXrl0bOXKktrY2gUDAYDBWVlZ//PFHXFxcUVERjUbrXrvwGntdXd3nz59Pnjw5bNgwPB5vZGS0ffv2wsJCCW0tluwG1BAEyc3NtbCwkJWVxeFwysrKPj4+6enpVCoVQZAWzXriDYIgVVVVR48eRb+fsWPHRkdH9/RE8SsjugE1JpO5YcMGFRWVyZMnh4SE1NbWorUkv5LUvXLQDkRVVdXevXsHDhwoJye3devW8vJytMLtXt26N/ZuQK2qqsrAwGDTpk0NDQ3dm3iBxs5kMpOTk728vPT19SdOnBgZGdnjWgX8tY9QUQMAUKnUVatWjRkzJjs7u9dP9UAIyWRyVFTU3LlzR44cGRER0ZvKb15BFCpqEMJLly4pKCi8ePGCyWSKSZMZQlhbW/v7778PGjTon3/+KSkp4TWTekd44aGGIEhqauqwYcMWLFgghi1lAEBsbOy4ceMePXrUO9DhNRXCQ622ttbLy0tXVzcnJ0c8UWMymUuXLt2+fTuvmdQ7wgsPtTdv3ujo6OzYsaPXN9HaJQMA0FyNKisr+/v7txug1z8UBmoAADqdbmVlNXDgwISEhF5v03YTCCGMioqSlpbesmVLuwF6/UNhoIYgyL179/B4vLe3d2NjY6+3absJhBAGBgY2L0s5duxYuwF6/UNhoFZXV2dgYKCvr//u3bteb9COEtjU1GRvb4/H4588edJRmN79XOCoAQCCg4OxWKyjoyOZTO7d1mSTupKSkuHDh+Px+KysLDbBevFfgkUNnVYfM2YMDod79uyZeHYIUHpiYmL0f1xNTU29mCc2SRMsagCAS5cuqaiomJiYsFFCHP66evWqsrKyn5+fmAxc/5ynAkQNQlhdXe3m5obH42/evPlz3OLzhMlkbt26VUZG5vr162JbtAsQNQRBPnz4YGBgYGRk1Ltn1jl+MxUVFa6urgQCISMjQ4IaR3PxHIBKpXp7e8vIyBw4cEAMpwda2yszM3PcuHFGRkZMJrP1c7G6F2CpVldXp6Wlpaurm5KSIrafMgpTdHS0urr6jBkzxIqtNokVIGpXrlzB4XBLly6tr69vE6tY/QQAXL9+HY/HHzx4UKwS3iaxAkENQlhfXz9s2DBVVdU7d+6IeZHGYDD8/PxkZWUjIyPbWF+sfgoENQBASEgIBoMxNzcvKioS2+49ShKNRpswYYKBgUF6erpYsdUmsQJBDUEQKysrWVnZ06dPizlnLQs6Jk2aVFRU1Mb6YvVTIKhFRUVpaWmpqallZGSIlTV/TiwAICEhAYPBLF++XMy3IvMfNRqNtnHjRhkZGXd3d1Hbkv4zCoJ+AgD4448/CATCb7/9Js4jHSyWAFz5paenm5ubY7HYV69eiXntyWKxEARxcXHR1NR8/PixmFuDz6UahDA0NFRBQcHS0rKpqUnMjctisZqampSVlY2NjZOSkgRdgoq4fD6jRqFQPDw8cDjcb7/9JuIpF456iYmJWCx20qRJYt5Q43MFCgAoKChAZwgyMzOFk5ciHsuFCxfwePzixYvFvKHGZ9QQBDl+/Dgej587d25NTY2IQyAc9VxdXYlE4p9//inm49h8Ro3BYJiYmCgoKNy8eVNiWQhhTU2NsbGxnJzcly9fJM1WfrbVvn79isPhjIyMPn/+LJwyQ5RjgRDGxsZqa2sPGDAAddMsytoKQTd+orZnzx4MBjN9+nSJq04WiwUAOH36tKKi4sqVK4WQkaIfBX9QgxDS6XRLS0sCgbB161YxX52G5jqVSl2xYgUWixVbzwlt6OcbatnZ2To6OioqKuHh4ZJ2CYvFysnJsbCwwGAwYr6GqgU4vqF29+5dZWVlHR2d0tJSCWoIgrx9+1ZLS2v69OmSMh6ljT+oAQACAgIIBIKjo6Ok78lisRgMxvnz52VlZQ8dOiQZUeMnaiQSyc3NDYPB7N69u6XAFOebhoYGV1dXVVXVhIQESanGT9TS0tJGjhyJw+EkwxyoWSsqKgYNGjRp0qSKigpx/uRap50/FWh4eLi2traGhgaJRGotXWzvExISZGRkdu7cSafTxdYIbRLOB9SYTGZwcDAOh5s+fbqkoYbad+fOnX379hVbTzBtIEN/8gE1Eom0evXq5gOX9u/fL0ENPaJl1KhRv/zyS15eXrtGF8+HfECtsrLSzs4Og8FERUVJmsAAgKKiIiKRuGLFCrH1BNPut8QH1HJzc1VVVZvPViorK2s3DrF6CAA4deqUiorKq1evxCrhHBPLB9SuXbuGxWKnT58uGRZHl93a2dkNGzZMbP1jdsQcH1ALCgrCYrHr1q2jUCgdRSM+z79//96vX78jR45I2hJtMp0PqHl7e2OxWMmOIHTTSlBQkKamZn5+vqSHxH/ULCwscDjczZs3xXzqE0KYnJxsZmY2d+5cyeFlbTjjzyrc4cOH9+3bV8xbwRBCCoWyYcMGRUXF9+/f/2xoyRM+VKCmpqa6urpRUVHibE0AQEREhLq6upubm2RzVLsk8AE1MzMzY2PjxMTEdiMQk4cUCsXS0rJfv37Pnj2TLOVoN9P5gJqlpeXo0aPF3D3H1atX8Xj8rFmzJEVau5zxp6025ccltmcPslgsOp0+YsSIPn36hISEiHnfqCPO+IPaihUrrK2txXa+DwDw6tUrRUXF4cOHS1YgCxY1X19fExOTpKQk8fygSSTSwoUL8Xj88ePHxdMCbPBq/Rcf2monTpzQ0tKKiIhoLVd87lNTU01NTQkEQmlpqfikuhMp5QNqL168IBAIt2/fFsNvmsFgBAcHKyoqurq6Smai2PPHB9S+f/9OIBD27dsnhmtmKisrnZ2dFRUVP3z4IJmJEjhqeXl5urq6Hh4eYngwXkpKipaWloWFhWSlO3vO+NMDLSsrGz16tKWlpRj6T9i7dy8ej//jjz8kw7bCQK2qqsrW1lZJSUncPFgjCKKhoWFsbPz161eOhpYE4ENbraamZtq0aVJSUm/fvhWfpjGTyUTPWFm1apWYH9bG5VfEB9Tq6+vd3NykpKTEahtLY2Pj0KFD1dTU7t+/L+kQcEMbH1Ajk8nr16+XkpJyc3MTH6P/888/BALB3Ny8traWG0NLwvABNRqNtmvXLikpKS0tLTFBjcFgzJo1C4vFSjyPcv8J8QE1JpN56dKl5pPh8Hi8OEy6QwgTExONjIwMDAxqamrE5OviHqmOQvIHtZCQEEVFRQwG8/fff3cUU6953tTUdOTIEUVFxStXrvSaRAkhIXxArbq62tXVFYfDYbHYkydPCkHpbowCAFBeXu7o6GhhYSFppfGUEXxA7dGjR3369FFRUcFisdbW1jxF3+MCUygUNL23b9+WnKDFU/Z1CTUAQGVl5YABA2bOnLlgwQIsFqulpUWn03vBvDuNRquqqsrOzo6Li2tu++/atWvHjh2nT59+9OjR5MmTrays8vPzeTK0JHCXUKPT6b6+vkpKSufOnQsNDVVUVNTQ0CgsLOxZqMFWF51OLygoePr06YEDB3x9fbds2RIYGPjixYvs7Gz0E2IwGMbGxs7OzhKvEbx+PF1C7d27d+rq6oaGhnl5eSUlJYaGhoqKig8fPuxZqAEAGhsb6+rqXr58uW7duilTpixZsuT27dtxcXEVFRVtOpgIgly5cmX8+PFZWVm82lrMw3cetbq6OkdHRwwGc+DAAXSHLbrNvads5UAQhMFgpKWl3bt3z8fHR1dXd/To0UeOHCkuLqZSqW0Ia6EE3YSHbvYUn1m4luR35aaTqEEIw8LCdHV1+/TpU11djWZMeXm5kpKSnp5eRESEiBdsDAYjMzNz3rx5/fr1MzExWbhw4evXr5k/ro4gQ60MALh79y4GgwkJCZGs5uCJvE6iRiKR1q5dSyAQtm/f3hIfgiDr16/H4XABAQGi7IeHSqXevXvX3Nzc1tY2MDDw27dv3C/qRBDk8ePHUlJShw8f5v6tFhOJ801nUAMAxMfHa2tr6+vr5+bmtpgPAJCamqqhoWFoaJiTk9PyXKRuEAR58uTJnDlzHj16VFRUhFb93JfBKGrS0tIbN26UoMZTznYStbVr12IwmM2bN1Op1Nbxkcnk+fPn43C4ffv2tX4uOvdpaWlmZmYRERGda2khCPLmzRtZWVlXV1eJS2WesrUzqBUUFBCJRCMjo5+dJ0AInz59qqKioq+vTyaT2bd7eFK064EBAPn5+QYGBl08XCExMVFZWdnJyUlSqvGUKbyhBiEEAGzbtg2Px8+bN6/dmZm8vLxJkyZhMJiLFy+KDmoQwoqKCnd3dxsbmy6uZExNTdXR0Rk/fjyNRuPJ1mIemGfUcnJydHV1VVVVb9682W4dRKfTd+3aRSQSR4wY0cVM5WPekEikAwcOmJqapqWldbHnmJaW1r9//1GjRkm8ZPKUQTyjFhQUhMfjjY2NS0pKOmpNp6am6uvry8nJPXjwAEGQjoLxpGinA6Ml8YsXLwwMDO7fv49ODXRaGovFyszMHDJkyMCBAyWo8WRG3lCrqqoaP348DofbuXMnG4YQBEGnRO3s7LrdMw8AoKSkZMCAAVu3buXLFrqCgoJx48b16dNHlAd0eIJAOIF5QI3JZD5//lxbW5tIJKanp7PRDwDw9etXdXV1TU3N0NDQLlZYbCLi5q+ioiI7O7upU6cWFhZyE55jmKKiIvR7k6DG0VatA/CAWn19vZeXFx6Pd3V1ZU8PWmf5+/vjcDgnJ6fy8vJuqUPRrsCSJUv69+8fFxfHrz5KaWmpjY0NDoeTHFXWmiSO9zyg9u3bNwMDAwwGExkZyU22lZSUjBgxQlFR8fnz59yE56grrwFoNNrevXv79u0bHh7OYDD4pUNFRYWDgwMWi01KSuJVJXEOzwNqhw4dwuFwlpaWXI4nMRiMS5cuycvLW1tbt9tXFajdGQzGq1ev+vXrd/78eX5BhipcU1Pj7u4uLS39+vVrgSahlwnnCjUIIY1GMzExkZWVDQ4O5jLnAACFhYUzZsxQVFSMj48XZh0KIUxKShoxYsSKFStaVgPwK+dqa2vnz58vLS0t5k7NebUnV6ghCPLw4cNmz1aDBw/mqdYAALx//37o0KGTJ09ubGwUDm0AgO/fv48fP97a2jojI4PvkTY0NHh4eGCxWMkZjDzRxhVqTCZzwYIFMjIyXl5evHa7EAR5+/atioqKcCYPEAQpLi62sbHR0dFJSkrisgDmyWRUKhVdmXft2jWeXhTzwFyhVl1djcPhNDU1Hz582IlWFwDg48ePpqamgl7uASGsrq5euHChgoJCZGQk38szlBUGg7Ft2zYMBvP777+LOT08JZ8r1G7duoXFYs3MzDq9dwNCuH37dn9//5qaGp704z4wum47MDBQS0vrxo0b3L/Ia0gI4dGjR7FY7NatW3l9V5zDc0aNwWA4OTlhMBhPT8+u1Ec5OTkuLi6PHz8W0PlLCIKcOnXK0NDw4MGDgnYq+Pvvv8vIyKxfv16c0eE17RxQgxCWlJQMGzZMSkoqNDS0K6jR6fS7d+86OzuzWbnPq/Yt4SGE58+f19HR8fHxaXe9SUtIvtzcuHFDSUnJzc2NL9LERAhn1LKzs42NjQkEQk1NTRdbP01NTStXruT7cY4AgNDQ0D59+syePbu2trYr3wM3uQ4hvH//vpqamq2tLTfhJWFQC3BG7fPnzwYGBnv27Ol6xQcAqKiosLGxSU1N7SK1LfnHYDCePXs2ePBgJycnEonEZhFAyytdvIEQvnr1SldXV1ZWll+p6KJKPeJ1zqjdvXtXTU0tJCSEX+lJTU1dsmQJmzVIPEX09OnTkSNHLliwoKysTNDlGaoYOj48ZMgQKSkpQTQGeEp+DwrMGbWTJ08SiUQ+duwRBNm/f/+GDRu6AgcAAEGQu3fvDh48eN68efn5+V1fiMZltkEIc3NzTU1NpaSketxWfi7TKIhgnFHbunWrtLT0/v37+RU9k8mMj48fMWLEhQsXOudhBQBApVKvX7/ep08fZ2fnysrKToz2dTo5EMK6ujpLS0spKSk+LhjptD495UUOqDEYDD8/PywWu3nzZj4mCZ2Jt7Oze/v2bUFBQVlZWU1NTW1tbX19PYlEqq+vR39WVVWVlJTk5OSkp6dfu3bN29t75syZQ4YMUVVVlZeX19DQ2LBhA4lEEnKDCUJIIpGsrKxQT9PCqbX5aPzuEsUBNSaTuXHjRiwWu27dOv6qSKFQTp06pa6uPn78+Gk/rtmzZ3t4eHh7e69cuXL27NkODg62trampqZKSkoKCgoDBgywsLCYOXPm0qVL9+zZc/z48VevXjU1NXW9s8JrutDVeDNnzsRgMI8ePRIy6LxqKzrhOaAGIURPgRDEGFJRUdHy5cvPnDnz/Pnzq1evBgYG+vr6uru7z5s3b/bs2UuXLt24ceOOHTv++OOPR48excTEZGVlVVVV1dfXMxgMJpPZvXns6+uLw+GuXbvWvWqIDkkcNeGM2tGjR2VlZSdMmMBRFq8BGAzG8uXLqVQqWk4wGAwqldr44yKRSGQymUaj0el0YbbDuE9CUFAQgUA4dOiQpALl0micUfvtt9/k5eV1dXX5/vkiCLJ8+fK6ujq+S+Yy8V0Jdv/+fVlZ2XXr1klQ49KMnFF7/Pixurq6tLR0Q0MDf5lAEOT06dPPnj3ribkVGxsrKyu7YsUK/tqEy2zricE4o/bu3TsdHR1paenc3Fz+mhVdOLlhw4aeiFp+fr6cnNyECRPY7+jpiUwISGfOqH3+/Ll///7S0tLJycl8R41CoZiZmXG5WUFAJuic2JycHAUFheHDh/O6VrRz0fWCtzij9v3790GDBklJST1+/Ji/qKHmc3JyEvSSSUHkU2RkJJFIHDp0KF+2MQtCQ1GTyRm1/Px8Y2NjKSmpq1evCqKmW7169T///CNqduGoz8uXLwkEwujRo0Wzg8xRf+EH4IwahUIZNWqUlJTU2bNnBYHa+fPnz549K/yUdzHGM2fO4PH4WbNmSVDj0pIcUGOxWAiC/PLLLxgMZv/+/YKoQN+9e7du3boel2EBAQFYLNbX17fHac4lGXwPxhk1Fovl5OSExWI9PDwEYdbs7OylS5dWVlbyPW0CFTh79mwsFhscHCwImwhU8+4SzhVqa9aswWKxDg4OgqhAS0tLV65cmZGR0V0m6ES8NBrN2toa7SoJwiadUEn0X+EKtcOHD2MwmDFjxghie0hdXV1AQEBMTIzoGwvVEEJYVVVlbm4uJSUVGxsriEZFTzEFT3pyhdr58+elpaVHjhxZXV3Nk3RuAlOp1KNHj/agneIQwrS0tKFDh0pJSRUXF0tKNW5ymcVicYXaX3/9hcPhhg0bVlBQwKVcnoLdunWrZzV6vnz5MmjQIEVFRZ6SKeaBuUItPT0di8U2n5AXHx8vCHu9fPnywIEDPciL8YMHD5p9aVlZWQnCGr1VJleo0el0JSUlXV3dyMhIQRji8+fPvr6+PWXYHUJ45coVBQUFT09PQVijt8rkCjUAgLm5uZqaWmhoqCAMkZeX5+XlJTgfC/zVGd2Gg8Ph+Li1h78aiqY0blE7fPiwkpLS1atXBZGMyspKDw+PnuLvs76+fsmSJVgsNjY2VhDW6K0yuUXt/fv3gkOtqalp/vz5eXl5PWI4tKioaMKECX369OkpNb6IsMsVahBCKpWqqKh4+vRpQegNIfz1118/fvwo+qhBCDMyMgYOHDhmzJg252sJwjK9SSZXqLFYLAihiorKH3/8IYjEo5tl/v77b9Efo0IQJCoqSlZW1sPDQ3KcGU8wcIUauvNRSUnp0qVLPEnnMjCE8NixY9euXRN91FBVMRjM9evXJetvucxfNBhXqAEAsrKy1NTU7t27x5N0LgNDCG/cuLF//37RRw0A4O7urqqq+uHDB9Gv7rm0v3CCcYva8+fPhwwZkpKSIgi1IIT//PPPzp07RX8+sampSU9Pz8LCIi8vTxCm6MUyuUXtzJkz06dPF9CAPoTwzZs3/v7+ol+qJSYm4vF4Dw8PSfeT16+CW9S2bNni7u4uIBQghDExMStWrBCQfF6Nwia8v7+/vLz8b7/9JvqqsklFt/zFLWrOzs6zZs0SUAUHIYyPj583b163mIDLSAEANBpNV1dXT08vKipKQKbgUpmeGIwr1BAEGTdu3LRp0wRkX3Swavbs2QKSz5eMAQBERUVhMJjx48d33VcrX1TqWUK4Qo3JZOrp6U2ZMkVwKGRmZs6cOVNw8rueKwAALy8vLBZ78ODBrksTQwlcodbQ0CArKztr1izBNVCysrKcnJxEGbW8vLwRI0bgcLieuGtVFMjmCrXs7GxpaekZM2YICDUIYWZmpqOjo4Dkd93QEMKgoCBFRUXJbrxOG5Mr1MLDw7FYrEB7iJmZme7u7iJbqlVVVbm7u8vKyn769Elkv4dOQyCcF7lCDT34Z/369QKyMoQwJSXFy8tLNFFDh/00NTWtra0FZAHhZHb3xsIVauiOqcDAQAEZGkL44cOHa9euieZUD4PBcHV1lZeXv3v3bvfmVo+OnSvUfHx8MBiM4MYtIYTh4eEpKSkiiBqCIDk5ObKysubm5rm5uT06s7tXec6oQQjnzZsnLS3N95OpW1IOIbx161ZdXZ2ASs2WiDpxgyDIggULFBUVz5492znX952ItFe+wgE1CCGTyUR9djx//lxAbSkKhXLp0iXRnFVMTEyUk5MbOXJkZmZmryRAaInijFpDQ4OZmZm0tPTr168FgRraJwgJCRE1h37NZ5gyGIz58+fj8Xh/f39JkdZFKDmjVltba2pqKi0tnZiYKAjUAABPnjyJiIjoYkr4/jqE8OvXr/r6+urq6tnZ2YJIO991FmWBnFErKCgwNjaWlpbm43F3rS1SW1u7f//+pKSk1g9F4Z5Op2/evJlIJAYEBIiCPj1dBw6osVisrKyswYMHS0tLo0eG8T3B6enpwjkvlifNIYTfvn0zMTHR1dWVdDx5Ml1HgTmjlpqaOmDAAGlpaTKZLIge4tWrV48dOyZqwxxNTU1nz54lEAh+fn6ipltHeSnizzmghrZXDA0NpaWlm5qa+NteQQ9anDlzpgh6vKqrq7OwsNDU1ExLSxPxLOwp6nFG7dOnT/r6+s2H56En9PAxYegytaFDhwrCl1YX9Wz2WIPD4RYuXFhXV9dFUZLXUQtwRi08PFxbW7tfv358NxkAYOvWrYKbWu2cws1a0en0qVOnqqmp3bp1S1J7ds6MP7/FGbWwsDBtbe2hQ4f+/HIXnzQ2Ng4aNOjNmzf8rZe7qBWEMCoqCofDjR8/vqCgQKR062LSuvd1zqj9/fffWlpapqamfFc0JiZGS0tLQL2NTmsLAFi8eDEej9+yZQuDwZCg1mlLtnmRM2p//fWXhoaGtbV1mze7+LO5YtqzZ4+Hh0cX5fD99W/fvmlra2toaGRlZfFduDgL5IzazZs3VVRU7O3t+WgmCGFlZaWdnV1YWBgfxXZdFIIgJ06cUFBQcHNzE8TITtc17LkSOKN2+fJlJSUlvqP2/v17GxsbUevflZeXz5gxA4fDxcXFSVDjL9acUTt79qyCgsKaNWv4GDEA4Pfff/f09BQ1v1GvXr3S0tIaNWqUpOPJx+xGRXFG7cCBAzIyMvydB6ytrV20aFFoaKhIlRxkMtnHx0dGRub+/ft8N7REIGfUduzYgcPhTp48yT0ZZIMAACAASURBVC9jMZnMpKQke3v779+/80tm1+UwmcyrV69qaWk5OTn1FK+8XU+1MCVwQA0AsGnTJgwGw0fU0HO0V6xYISKHtkIIEQR5+PBh//79jY2NY2JiJLWnIBDkgBqDwfDz88NgMIcOHeJX9ACAKVOmXL9+XURqTwDAy5cv9fX1VVRUrl+/LvEFya+MbiOHA2qNjY0eHh5YLPbhw4dt3uz0z5ycHCMjI76fBN85fRgMRnx8vImJCR6P3759e+eESN7ixgIcUKupqZkzZw4Wi339+jU34jiGaa6tdu7cOX/+fARBuncgHv640tLSJk2apKCgsHbtWgF5j+NoEzEJwAG1kpKSKVOmYLFYvpwuhXoKHzhwoCh08RAEycrKsre3V1JSWrZsWU1NjYhU6L2VPA6oZWVljR49WlVVlS9fPAAgJiZGQ0Ojtra2ew2KIEheXp6FhQWBQJg7d25eXh4AoHtL2e41iBBi54BaQkKCnp7eqFGj+OLNutlT+MaNG319ffkirdPWgRCWl5dPnz4dh8NZWVmVl5dLyrNOG5P7F9mhBgCIjIxUUlKys7PjS2bU1NTY2trGxsbyRRr3iWwdEgBQWFjo5uZGJBJHjx5dUFAgGdpobR/B3bNDjcFgXLt2TVpaevfu3V2HA0IYHR09b948vi8c59I6EEIAQGlp6apVqxQUFKZPn56RkQF+XFxKkATrigXYoUan09esWSMlJXXv3r2uowYAOH369IULF7ouqnMJBgDk5uba2NjIy8vb29tnZGRIdhF3zpKde4sdamQy2c7Ork+fPl+/fu2c9NZv5eXlubq6xsTEMJlM4dOGIEhZWdncuXPxeLy1tXV+fr7wdWhtDTG8Z4daQ0NDv379zMzMungcBISwpKRk5syZQ4cO/fbtGzqgJUxbQwhzc3NdXFyIRKKpqSl6RJ+kvynMLOBwdntubi6RSFy8eHGnV5VBCOl0ekJCwpQpUxwdHSdNmhQWFibkPG5ewJ2dnT1r1iwCgeDi4pKbm9u9/V8hZ7DoRMeuVDt//rysrOyhQ4c6lzdMJrO5f7dz584FCxbcvHmzsLDwzJkzrq6uFApFOJUX2g/Izc2dNGkSgUBwdnbOzs6WjJ91F3zsUPP399fT0+v0jqbg4OBRo0adPHmytLQU7XUWFhba29sfOHBAaKjl5OT88ssvMjIy9vb2eXl5nftmuitvelm87FBzc3OztbVtaGjgvsqDEDY2Nr5//97JycnV1bVNIw8AkJSUNGTIELRVzr3YThidyWTm5+ej7bNx48YVFRUJh+9OqComr7SPGoQQPSLO09OTyxxCa6tv377t27dvyZIloaGhP/c00Q7BsWPHHB0di4uLBYpaZWXlggULFBQUHBwcysrKJPVmtwPdPmoIgiQnJ+NwuK1bt3KjIoSwtrb29OnTM2bMOHfuXFFREZuqqqKiwsnJaefOnWQymRvhnQjT3Of19PSUk5NzcHBIT0+XzAd0woZ8f6VD1A4cOEAkEq9du8YxSiaTmZyc7Ozs7OnpmZeXx3FcFEKYlJRkaWn5/PlzQXiKbKZ8z549qKNkCWccs09oAdpHrbGx0dTUVE5Ojr2PIAghmUy+efOmjY3N7du3qVQql7Utk8m8efOmnZ1dYWEhf5PKZDLv3r3bp08fXV3duLg4NoUrf+OVSONogfZRi46O7vfj6mhEDR0wi4+P9/T0XLRoUXJyMq+VFI1GO336tLu7e05ODl+WSaIeot+8eTNkyJBBgwa9ffuWS+452kgSgC8WaAe1lh3ePj4+7eYWAIBMJt+6dcvV1fXWrVs8dVFblEb7qkeOHHF2dv7y5UtXVvSjnZimpqbk5GRLS8uhQ4e+fPlS0g9oMbWI3LSDWnl5uYuLCxaLDQsLaxc1Op3u7e09d+7chISErjS2mExmY2PjkSNHbG1tuzLNCiGsqqqqrq52cHDQ1NS8efMmXxZyikgO9Ro12kEtKSlp2LBh+vr6P/vhQRCkpKRk+vTpa9as6ahu5dU0ZDL5yJEjs2fPLiwspFAoTU1NCIK0i3hHktF15A4ODjgcbsyYMRkZGR2FlDzvRgu0RQ0AcO/ePVlZ2UWLFrUZ96LT6eHh4Y6OjmfOnGEymW3+7XQaIIQUCiUoKMjMzMzT0/PChQuPHz9+9+5denp6cXEx6qoSHZBrmadHF5kBAJqamoqLixMTEx8/fjx58uTRo0ePHz8+Pz+/08pIXhScBdqiRqPRPD098Xh8SEhIm1iDg4MXLlwYHh7OU5HTRki7P1Hazp07Z2Njc+HChUuXLh08eHDTpk2+vr6bNm3atm3b1atXIyIi0tLSamtrm3dBUyiUpKSk5main5/flClTxo4d6+LicuzYsUuXLg0aNOjjx4/txiJ52L0W+B/U0EbP4MGDdXR00tPTWSwWuvO7uWjZvXu3s7Nzamqq4IYP6HT6jRs3XFxc0tPTGxsbKysr8/PzU1JSIiIiLly44O3t7ebmZmlpOXr0aFtb20GDBqmrq6uqqvr5+X369Km8vJxKpcbHx8vLy9+5c4fvH0P3ZlLviP1/UAMAREVFSUtLu7u7V1VVoaiRSKSVK1dOmTKloaGB1xENnmyEHrRz/fr12bNnl5aWtryLNt2QH9f3799jYmLCwsIOHz68bt26oUOHPnr0CK3NEQTJz89H3b8Lbh6iRSvJDa8W+B/UmEzmhg0bCATC8ePH6XQ6AKC4uNjb23v9+vVdGYzgSScqlRocHDxnzpysrCz2ZNfV1WVlZW3ZsmXbtm3fvn1DEKSqqmr48OFmZmatSeUpdklgwVngf1AjkUiDBg3S1dWNiIhgMpklJSXN0+27du2qrq4WWpUEAKBSqTdv3nR0dPz69SubeNHOAY1Ge/bsmYeHx5UrV0pLSxcvXkwkEr98+SI4k0kkd84C/4Pau3fvsFjsxIkTy8rKCgoK7O3tjxw5UlVVxa/OJpcqou7cHz9+PGvWLHSBOPsXGQxGZmbmli1b3N3dDx06pKioePv2bfavSP4VvgX+Qw1dArRq1SocDrd27dri4mIrK6sTJ05wnDsXnMZMJjMkJMTFxaWgoIAbNeh0+u3bt7W0tOTl5Xfu3Ck4xSSSO2eB/0OttLRUX19fWVn5wYMHnp6eFy9e/HnBWefi6Nxb6KDGb7/9tnbt2urqao4lKwCAwWBERkaam5v7+Pigr3B8q3O6Sd7qhAX+D7UnT56oqKgYGxv7+flduHChoaGhE+L4+wqEsL6+fu/evatWraqsrGTTbmuJl8lkJiQkuLi4zJkz5/379xQKRUJbi3G69+Y/1BgMxtq1a2VkZIYMGXLjxg0SiSQiOQQhbJ4B27Nnj7e3d01NDTdaQQiLi4unTp06aNCgAwcOVFVVse/Jdm8GiE/s/6GWl5dnZWWFx+MvXrxIo9G4KT+EZiMEQchksr+/f2BgIPcewcvLy21sbAgEgrm5eVlZmdC0lUTUkQX+RQ1BkEePHjU3qI8fP85NA7wjWQJ9Xlpaunr16uDgYO6/hIyMDJQ2TU3NS5cuNTY2clMoCjQV4iz8X9Tq6+sXLlz4yy+/lJaWilR51jpjUI8bK1asOHv2LI1G4wYaCGF6erqbm5uMjIy6uvr+/fsrKytb5uxbC5fcC8EC/6KWnJxsYmLy559/Cm5+ky8pAQAUFBS4uLhcuHCBe3dGxcXF+/btU1JSUlFRWbJkCYlEEtnPiS9WElkh/6L24sWLX375JScnR2S1bK1YXV3d7NmzHz16xE3Bhr5Ip9Nv3bqlr68vKytrZWWVmZkp6Si0Nqlw7v9F7c6dO9OmTauoqBBOlF2MBUGQ1NTUmTNnfv78mXvaEAR59+6dqakpDoczNTVNT0+XlG1dzAheX/8XNXSBP79W1fKqQSfCIwjy9OnTuXPnZmdnc/86AODbt2+TJk1qniR1cnIqKSnh/l1JyK5b4F/U1q1b5+bmRiKRui5OaBJoNNqVK1dcXV0rKiq4LJ/QybfMzExbW1sFBYXIyEguXxRaonp3RP+idujQIUdHx+rq6p6VVAqFcvz4cXd3d54OEGIymeHh4dLS0ocPHxbZkZ2elRFcavsvaleuXLGzs+uhFcqWLVs2bdrE0zRaQkKCrKysvb29ZAUll5TwJdi/qN2+fdvExOTbt298kShkIVVVVV5eXqdPn+ZysI3FYmVmZg4YMEBZWZmnpp6Q09X7ovsXtaioKB0dndevX3PfoRMdQwAAcnJyli5deu3aNS7HBSsrKx0dHTEYzPHjx0UnIb1ek39RS09PJxAIV65c6aHNZJQ2Ozu7v/76i5uFTwwGIzAwEI/Hjx07li8+HHo9JXxJ4L+oFRYW6unpbd68uYduCke3dRUUFAwfPvz9+/ccPxgIYWRkZP/+/XE4XG5uLsfwfDG0RMi/qFVVVdnY2FhZWfW4Tmjr/GMymdHR0e7u7ikpKexrUghhQ0ODg4MDBoM5f/68BLXWZhTc/b+okUikFStW6OjoFBYW9sTmGmoddEdCaGiot7c3xx1TAIALFy4QCIQpU6ZI+qGCw6u15H9Ro9PpZ86ckZOTu3//fk//xEkk0rlz57g5RLaoqKhPnz79+/dPSEhobRHJvYAs8C9qLBbr8+fPRkZGNjY29+7d+/DhA4PBQNvXPbGQQxBk5cqVZ8+eZV+NAgDmzZsnJye3f//+rvhTElDG9D6x/6FWVVU1Y8YMeXn5hw8fxsTEXL9+/fbt21lZWSUlJT/7IxJxK6C+LJcvX/748WM2DAEAYmNjiUTi+PHjJQNsQsjT/1ADABw+fFhOTs7Y2Pjr168kEiktLe3WrVunT5++fv16J5xCCkF19lGUlpZ6eXm9fv2a/XqhX375RU1N7cWLFz2x/GZvAVH79z/UIIQFBQX9+/eXkZFZuHBhbW1tU1MThULJyMh49+5d82aQ5il51FlBT2nMAQASEhKWL1+elZXFpia9desWDofz9vbm3pGvqGVhT9Hn/1ADAAQHB2OxWA0NDbR/AABgMpn19fUVFRXZ2dlLliwJCAjoKcvaWCwWACAkJGTJkiVsqtH8/HwTExNdXV3JWXqCRvY/1NBo6uvrx40bJyUlZWlp2dohHuodg0QihYaGuri43L17t6ysTPTbcKiP3L179+7evbujDaENDQ1eXl54PH7Tpk3sq1pB50Svl/8/qAEAvnz5glaj6ElQLS0YdLEXekrw0aNHAwICXr582djYKMr1KbpjhUql/vrrrzdu3EAdULbJUQBARESEvr6+rq5uDyqw26SiR/z8H9RYLBaTyQwODlZSUurXr19H5zKhO8h3/bg4DpZ2uxUAAGVlZWvXru3oRI6Ghoa5c+fKyMgcOnSo27XtxQq0RY3FYpWVlc2ePRuHw1lZWVEolHYTDyGk0WiPHj2ysLBAe3kiXrxlZGR4eHigrjDbpAhC+OzZM2VlZUNDwx49X9ImXaL2sx3UEAT5+vWrkZGRrKzssWPHUIZaatLWCQAAJCcnm5mZ7d69u7y8XJRpQxDk2bNnv/7668/r2lH3zePHj5eXlz906JCkxdY6i/l43w5qaDV66dIlIpE4atSohISEvLy84uLiurq6drMhOjra0tJy0aJFX758EeUl1E1NTWfPnvXx8amvr//Zgm/fvpWTk7OysmrdH/o5mORJpy3QPmpo/ejh4aGqqhoYGHj9+vWtW7euWrVqzZo1Z8+efffuXXV1NeqiFu3l/fXXX8uXL7e1tX348CH3m4E7rXTnXkRnEY4cObJnzx4ymdymnG5qanJyclJSUrp27ZoofzCdS7sovNU+aqhmBQUFKioqnp6eZWVl5eXlBQUFkZGRx44dW79+/YQJE5YvXx4ZGYnmSk1NzYYNGy5fvmxhYbF//36e9pUI2QqNjY07duw4d+5cm8E2JpMZHx+vqKg4ZswYiTsZQWQKO9SoVOrq1atHjx7d5rBi1PN3eXl5aGjo9u3b0aIuKCjIwsIiOjp60aJFCxcuzM7ObmpqEs3WW1VVlbe397Nnz9qUXmQyec2aNTgc7vjx4xLXHnynjR1qCIJ8+PBh2LBhHz58aFPdoLShR4bR6fRv3769fv366NGjc+bMiYyMPHLkiI2NzdWrV0tKSkSTtoyMjCVLlqBbQVuSBiGMiorq37+/trZ2cXGxaGrOdwKEJpAdaqiTohU/LjbTiC26MpnMt2/fenl5paSkhIeHOzs7L1q06OPHj20Kj5bw3XuTkpIyZ86cd+/ete7r1NfXe3p6EggEX1/f1s+7V9XeETsH1AAAT58+NTQ0fPbsGccdH+iJnA8fPty8eXNVVVVRUdGePXtsbGz++ecfEaQNAJCVleXi4pKUlNS6APv27Vu/fv00NTVTUlJ6Rx6LSCo4oIae/jRhwgRVVVVufB+zWKzmvTB79uwJCgpqamqi0Wg3b940MzP7888/Gxsb0WM3RCTl6MTu169fV6xYkZ+f37oa3bJlC5FIDAwMbHkoIjr3aDU4oIam7caNGxgMZu/evW16bR2lvLKycu7cuS3t7oKCgo0bN7q5uW3fvv3+/ftxcXGFhYXc7xDuKBa+PG9qanrw4MHmzZtbjgFBT3XR0dEZN25cTk6OhDa+2JnFYnGFGupnfsiQIYmJidyYHkKYlZXl7u6OHqcCAEAQpKCg4NOnTzdu3Ni2bZuPj8/WrVvv3buXnZ2NOhzlRiy/0txaDnrY8pkzZ7Zv395yICQAYN26dSoqKrdu3Wpdt7Z+UXLPqwW4Qo3JZAYFBcnKyu7YsaOjWdGfI46Li1u+fHlJSUkLRmhjrra2Nicn582bN9u3b586daqdnd2BAwfi4uK46Xn8HEvXnwAA6uvrDx8+vG/fvpZzTj9//ozH4xctWtSDfIF13RQClcAVagAAEomkpKQ0atSodmes21WxuWW2a9eu33//nT1DRUVFV69enTp16oABA9auXfvPP/+ga4DRo/LalSyIh8315rp1665evYp2PKuqqgwNDbW0tL5//y7pivLF4Fyhhi5Wmz9/PpFIvHHjRkspxV6D5i1J6enpK1euZN/iQSe4muusqqqqhw8fbty4cebMmehxx7Gxsbm5uejcKzqmymXU7BVr918EQWpqavz8/N6/f89kMqlU6qZNmzAYzOnTpyWotWsxXh9yhRoqNCwsTElJaerUqdyPXDAYjIsXLwYGBrIv2NooXVNTExsbe/ny5e3bt2/YsCEgIODgwYMPHz5MSkpqd6a8zeud/gkhzMjI2L59O3o+5IsXL9TU1IYPH95D/Ut02g4CepEH1HJzc83NzeXl5b99+8Z9Y7mmpmbu3Llv3rxBpxa4TEbLAtqioqKkpKRmJ8u7d+9etGiRnZ2dl5fXnTt3kpKSyGQyWsnysagDAKSkpHh5eVGp1OLiYnt7ewwG8/TpUy7VlgRjYwEeUEOPRMHhcD4+PlzmLlrzpqen6+np1dfXcw9oa43RGpb54yKTyX///XdAQMD48eM1NDTmzp17+vTprKys1uG7eI8gSGJi4vr165lM5tGjR4lEoqmpaRdlSl7ndrCjxVJhYWG6urrKyso8rX1AEOTYsWM7duzgcliuJTr2N42NjW/fvj1y5MjMmTOnT5/u7e0dHBz88ePHzMzMyspKMpncObLRSENDQx88eJCSkjJ48GAikRgVFdUVaewTIib/8lCqsVis2trayZMn43C4s2fPcm96CCGJRJoxY0ZCQgL3b3HMAHS4H/UKU1RU9Pbt26CgoE2bNnl5eW3cuHHPnj137tz5/PlzXV1dS5eCy8KYxWKRyeQzZ86gxRsej1+9erXQjhTnmPAeGoA31AAAV65ckZGRGTt2bEFBAfc5ByEMDg7etWuXoN3+0Gi04uLixMTEV69eHTp06Ndff3Vzc0OPC/r8+TP3C+mYTGZeXt6xY8eal+jJyckZGRlJDunuIuI8o1ZbW9unTx91dfXbt29zjxrqm3LevHnfv3/vosZcvo4OF9NotIaGhmbfHEePHp06dWrfvn2nTp26b9++yMhIEonEYDDQjkW7ZS0A4M2bN0FBQUuXLsXj8Tt37hT0d8Jl0npoMN5QQ5v5Z86cwWKxCxYs4MmvNoVC2bZt282bN3kCtOtmRafFUKTodPrHjx9PnTrl7u4+btw4d3f3Xbt2hYeH5+TkVFVVodOyLeqhsF68ePHq1avN58EPHjw4KSmp6/qIrQTeUEPNVFNTo6GhMXDgwE+fPvE0vPnu3bs5c+aIyER7WVnZ58+fL1++3Oz679dff92wYcOBAwdu3Ljx7t27vLy8lkUodDr92LFjEyZMwOFw69evF1tQup7wzqCGIMjatWvxePz+/ft5aixTqdRly5bdvHmTJ0C7nsiOJKDdBQaDUV1dnZqaGhYWdubMGT8/vxUrVsydO3fDhg13796NjY1NSUnx9/cnEol9+vTJz88XEeU7SpTIPu8kavHx8fLy8qNGjaqtreU+bRDCr1+/GhgYiOYcNoSQTqfX19dXVVWVlJTExcXduXPn8OHDe/fu3bJly4gRI6SlpV1cXNpt2HFvBLEN2RnUWCxWTU2Nm5sbDod79eoVr7ZbtWqVv78/nU5vaRXxKqFbwn/69Kn5MHgcDhcREdEtCvT0SDuJGpPJPHPmjIKCgp2dXcvCGy5tkZ+fb2Fh8enTp56FGp1O37x5MxaLdXR0FM1SmUv7d1ewTqKGVoXDhg2TlZVNTEzkqU5hMpmHDh3y8fHhfpSru6zTOl4AQF5eXr9+/TQ0NEJCQnhKcms5YnvfSdRQv+Bz5szBYrFr1qzhaeEGhDAzM9PGxub169c8vdjtmQQhvHLlCg6Hc3BwKCkpkfQPeMqRzqMGAHj+/LmioqKenl5BQQH3saInVPj5+bm6uvI0Msd9FIILyWQyzczMiETi/fv3e9Z3IjibcCm586ihZ2uYmprKyckdOnSI+0VsqOvQ6OhoY2PjW7ducamoiARDEOT27dsKCgq89r5FRP9uVKNLqAEAbty4gcVip02bxqtPv8bGxrlz5xoZGSUkJPSg/gEAoLi4uHk/BA6HCwoK4rg3thuzVtSi7ipqZDJZS0tLXV39xYsXvKbt5cuXmpqa27Zt61nHBjCZzJCQEG1tbQ0NjezsbEn/gMt87xJqaBz79u3D4XCdOHiPwWAMGzbs0KFDgYGB7PcfcJkYoQUjkUgzZ87EYrErVqzg7yI8oSVB+BHxAbXs7GxdXd0hQ4bw1DlAW2x37twxMzOLjY09e/ZsWlpaT6mPIISxsbHa2trq6uohISGSrig34PIBNRKJhPpj379/P09GBwCQyWTUZ1FFRUVoaOj9+/fb9cPNTUqEHIbBYJw6dQqDwVhbW+fk5Ag59p4YHR9QgxCGh4fr6Ojo6ur+7ImNjVHQ2e4///zT2dm5pKSETCa/ePEiKCiopqaGJ2TZRCHQvygUyrRp0+Tk5DZt2tTF9eUC1VNEhPMBNdQpuJ2dHRaL9fPz4zVhpaWl06ZN+/vvv9EF3FFRUcePH+8p420pKSmGhoaKioo9bjia12zqenj+oAYAuHbtmoKCgoaGRlZWFk+dMjqdfurUqaVLl6JrXBkMxvPnz/fu3dsjTuJpamoKCgpSVlbW0dFJS0vren70Ygn8QQ1CWF9fb2NjQyAQNm/ezFOnDADw9etXa2vrjIwMtEpFEOTdu3deXl4xMTE8jQwLP58ghGVlZR4eHrKyspMnTy4tLe1BY4RCNhd/UEOVjomJkZGRGTlyZGpqKk/JoFKpS5Ys2b9/f+viMDk5edWqVffv3+cJXJ7i5Utg1CXg0KFD5eXljx49KtkK35FV+YkagiCLFy/GYrHbtm3jaccHhPDBgwcmJiZtZhULCwtnzZp16dIlES/bWCzWhw8fCASCurr6X3/9JeLfRkcoCPo5P1EDAGRkZOjq6mppaX358oX7qgSdgB8xYkRISEjrBEMIS0pK5s2bd+LEiZbtnK0DiM59ywK+ESNG8Fqoi04qBKoJP1FDVxbt27dPUVFx+vTpqampPI1ZHD582NHR8eeFlmVlZevWrfP19c3Ozm5T7AnUNLwKJ5FInp6esrKy9vb2DQ0N3H9pvEbUQ8PzGTUWi1VcXDxnzhwikThu3LiIiIif0enIUjk5OQYGBqmpqa1bbKjX+sbGxt9++23hwoVpaWk8uZnpKC5BPIcQpqWlWVlZycjISE4X/dnC/EcNQZDq6uo1a9ZgsVhtbe3g4GAu2y5MJnPevHnoOaQ/K0qhUC5evDhu3LjMzMw2LP4cuLueMBiMsLAw9R/XkydPuksN0YyX/6i1pPPKlStDhgyRk5Pz9vYuKyvjWBoBAO7evevo6NjRLiwAwIMHD4YOHRodHS2y81cIgmzcuBGPx5uZmaWmpkqq0RYeBIgak8mMiYmxtLQkEAiTJk368OED+zO4AQCVlZXTpk178+ZNuzkEIUQQJCoqavr06aGhoaI5FwQAaGhocHJyIhAInp6etbW17aalJQPE50aAqKGHPX7+/HnSpEk4HM7Y2PjmzZvst640V7V79uwJDAxkMzrFZDLfv38/a9asc+fOUalU0cyq1NRUMzMzJSWlP/74Q2SreyGbTrCooSuFKioqXFxc8Hi8qqrqtm3b6HR6Rx1JCOHbt2/d3NzY+29DECQ+Pt7W1nbPnj3cdzuEaVkEQZ4+faqtrd2nTx/U1ZekbBM4amjZRqPRNm3apKKigsPhFi1aVFNT05Hpy8vLZ82aFRsby4YM1HFLQUHBxIkT58+fX1paKmolBwCASqVu3ryZSCSqq6v3iPlcNgbny1/CQA1VtLGx8fr164MHD8ZisRMnToyKimq3lgQABAcHr169mmPyEASpr6/38vJasGABr3tROQrvegAIYXl5uYODA7qZT0Kb8FBDT06Ojo6eMWMGHo8fOHDgiRMnGhsbf+6Z5ubmjh49ury8vKOSD+UAnZuvq6s7evSog4NDdHQ0+/Bdp4dXCagT59GjRysoKKxZD5yWIQAAFQlJREFUs6a6uppXCb0pvPBQa7FaRUVFQECAvLy8oqKira3tzztBGAyGr6/vmTNnuJxsIJPJly9fHjRokAhu9WseLES9TsvLy584caLFCGJ40w2osVgsBoNx7969AQMG4PF4DQ2Nu3fvNjY2tpRJEMKUlBRLS8uOeg/t5lNsbOzAgQNPnjzZ2NjIJaPtyuH7Q3SVsra2toyMzOPHj7kc0Oa7Gt0usHtQQ9v1ycnJLi4uyj+uVatWff36Fd3Ggo6fLVu2jMvT01AjAgASEhKmT5++a9eusrIytHrtdvuiCtBotHPnzqmpqSkpKb148UL0F6oIwm7dgxqaEgRBKisrL1++bGZmRiAQhg0bFhgYmJubi3YnY2Nj9+7dy5NvLABAUlLS/Pnzm8+PF7X5q+Yl7Hv27MFisYMGDQoLC+OpwBZExgtfZneihk6lM5nM79+/e3t7Kysry8nJjRkzBj2nlkQi7d69Ozk5uaVi5cY6AICysjJPT8+xY8cmJiaKVE1KIpFWr14tIyNjYWGRmpoqbrR1M2ooPQAAJpMZHx8/YcIEAoGAxWLHjx8fGRn59u3bCxcu8JolAAAGg7F161YzM7P4+HiRGnJjMBju7u54PN7ExKSyspKbj6fXhBEJ1Fqs2dTUdP/+fWtra2VlZUVFxRkzZvz666+87otBpVEolJMnT06ePDkmJoZXWFv04fsNACA7O3vy5MkEAmHixIlFRUUi9SXwPb2tBYoWaiwWC0GQsrKyc+fOWVtby8rKEonEhQsXvn79mkql/jwC1zolbe7RI2DOnDljY2Pz8uVLnt5tI4qPP1Fv/PHx8ZaWlng8fuHChZWVlWJCm8ihhk6bNjU15efnnzhxYuDAgXg8XldX18XFJSwsjKf5dXQd+f379wcMGPDw4UMRKdsghAwGIyYmRk1NTV5e3sfHR0yGdkURtZZSBEJYWFi4evVqWVlZLBYrIyMzceLEyMhI9Cw9LrsLCILExMQYGhreunVLdMa0AAAvXrxQUlKSk5MLDg5mMBi9vmwTadTQEg5BkMLCQk9PT0NDQ7TT4O7uHh0djW5saeGyoxu0l/DmzZsJEyaEhISISNmGfi2PHj3S1NRUUVG5f/9+rx9sE3XUWgCi0+lxcXFbtmwZMGAAFovV1NRcvnz5kydPSCQSN+UBepDoxIkTz58/z9OxHi0KCOKmoaHh+PHjqqqqWlpaDx8+5LKcFoQmQpDZY1BDB+HodHp8fHxgYODAgQNlZGS0tLScnZ2jo6PRkV42WQUhbGpq+vDhg6mp6b59+0RkRxOEsLa2dvv27XJycgMHDoyIiOgpbr86gWZPQg1NHoIgTU1NpaWlR44c0dHRwWKxioqKq1atqq+vZ4NaS11cUlIybtw4X19fEfFAAwCgUCjr16/HYrG6urqvX79mn4pO5LGIvNLzUGsxHOqe7cmTJ25ubhoaGsOHD793715JSQn7Rg/a1XB2dvb396+oqGiR1r03NBrN09NTSUnJ0NDw3bt3NBqNm1ZB9+rMa+w9GzX0AMbGxsYnT55MnTpVQUFh6tSpqFMZNtPtEMLc3NwlS5bMnz8/OztbFEoRBEFqa2u3bdumpqamqqp648YNMpksCorxyhOb8D0YtTapysvLO3v2rIGBwbBhww4ePIguumwTpvXPkpKSdevWTZ06VUScPkMIq6qqLl68qKampqWltW3btqKiot5EW+9BDd3E8OXLFxsbG3l5eRMTkxcvXjQ1NbHJreYzkP38/Ozt7TMzM1tT2I33TU1NkZGRurq6RCJx5MiRb968QYfc2KSiG7XlKepehRq66LK6utrX11dVVVVJScnf3x8tGzrKqoaGhk2bNjk6OvLqM5onK3MfGF2rV1xc7OHh0adPHwKBsG7duvz8fPbfDPfyuzFkb0OtZWFSSEiIhYUFkUgcO3bskydPamtrO2poV1ZW+vv7T548OTExsRtzok3UZDL54cOH1tbWCgoKY8aMuXTpEq+HkLQR2O0/eyFqqE2ZTGZaWpqXl5eysrKGhsbq1auzs7PbXb4GIaypqTl06ND48eNF5+hIdGL++/fvO3bscHZ2trS0nDlz5vv373vuFFavRQ0dSKuvr3/48KGmpiaRSDQxMYmJieno4yaTySdOnDA3N//69WtHYYT/vNkDCIlEqqioyMzMXLhwYd++fZcsWZKUlNRRCS18DbmPsTejhloBAJCbmztz5kw5OTk8Hu/j41NZWdnuTCidTj969KidnR26iauj5h33xuV7yDdv3piammpra69fvz4/P180vZZ0lOrejxpaE9XU1Bw9enTw4ME4HM7S0vLx48fNC8p/hqm5Sbdr167Jkyej3g86slp3PWcymbW1tefPn7e0tNTX11+/fv27d+/QSbaf09JdSnYUb+9HrSXlDAYjNjZ29erVcnJyOjo6a9asyc/Pb/m35aa2tvbw4cMWFhYfPnxoeShSN6ij56tXr1pbWzeft7R8+fLw8HD2fndEQX8xQg3tnNbX19+5c8fAwEBWVtbU1PT+/fvIj6t1ZlCp1CNHjlhaWiYlJbV+Ljr3aFFdWFh48+bNsWPH9uvXz9ra+tWrV3Q6XWSbceKFGrqgvNkTeXZ2tqOjI/HH5erq2tzRa9N6o1Aou3btat7cIMpDDOhHwmQynzx5Mn78eBUVlcWLF+fm5rbb0e7270TsUGuxOIlEunr16qhRo+Tl5bW0tAIDA79//956pLSiosLT03PZsmU9YmsTnU5/9uyZg4PDiBEjjh07FhkZGRsb+/Hjx7i4uI8fP3758iUuLu7z/7/i4uISEhK+/bhSU1Ozs7OLi4srKyvLyspqa2vr6up4OgugxaTsb8QXNXQ+Pjs7++DBg4MHD8bj8ZaWlkFBQagvVdRqRUVFc+bMWbZsGZcrftnbWtD/AgCqq6sfPHhgYWGhrq7e7IhYW1tbV1dXR0fHwMCgf//+enp6/X9c+vr6AwYMGDFixPDhw01MTCwtLe3t7V1dXZ2cnBYtWuTh4bF3716+L3sRX9RaMp5KpSYnJy9evFhGRkZZWdnBwSEjI6Pl34KCAltbW19fX0F86C2x8OsGbcPl5ub+9ddfO3bsWLp0qaur6+zZs52dnZ2cnBwdHR0cHGb/uObMmWNubj5x4kRra2tzc3MfH59Xr159+PDhwoULY8eO1dfXP3r0KH+XK0tQ+y+XAQBfvnwZMWIE7sd1/PhxGo2G7gDIyckZOXLkqVOneNqvxS96hC+noaHBx8dHU1Pz27dv7Bf/8aSbBLX/zNXSp/P39+/fv7+MjAy6XZlCoTCZzA8fPkyePDkyMpLNMjie7C7KgREEyc/PnzFjxqRJkzh6ueM+IRLU2tqKyWS+fv3awcFBUVHRyMho3759zfPxjY2N586dmzhxIuouqe07ve43ACAiIkJLS2v16tXtjnV3IsUS1NoaDS23SkpKjhw50r9/fzk5OVtb28jIyGa38Lt37x4+fDg6MiL6o/NtE8bLbwhhs3fsHTt2KCsrX7t2jS+JlaDWfg6gHmu+fv06YsQIDAajpqa2d+/e2tpab29vOzu7XrY+tn0TsFgUCmXgwIHDhg1LSEjoKAz3zyWocbBVY2PjkSNH9PT00IM+Pn36tGjRog0bNlRUVLQZ9eUgSOT/JpPJERER//zzT2FhIeoGAAAQGRmpoaExb968kpKSLqZAghoHA6LFW2RkpIuLi6KiooqKyqpVq5ydnXft2kWhUDi83KP+RjtG2dnZly9fDg0NLSoqYjKZFApl37596urqe/fu7aKLHQlqXOHAYDCKioquXbump6dHJBIHDBgwduzY06dPc/VyTwvU0NAQGRm5cePGp0+fMpnMgoICBweHvn37vnnzpitTXhLUeAABQZC6ujpXV1cCgYDD4eTk5ETwvAQe0tNxUPS8r3379k2ePDkpKSktLW3kyJF6enolJSWdns6XoNaxvdv7B61T/vzzz+ZxEGlpaTMzs8TERD6Oc7YXZzc8QytTBEHevn07ceLEtWvXXrx4UUVFZdmyZZ2eNZGg1smMTEhIcHV1VVJSGjp06K1btzhuO+1kNN39GuoMYO/evfb29paWllpaWnfv3u1cf0iCWiczE938cvDgwb59+2pqavr4+PBrqLOTCgnsNQghhUJ5//793LlzZWRkrK2tCwoKOjHSJkGtS1lEoVCePn1qaGgoKyvr5uZWXV3diTzokgZCeRmtT+vq6i5duqSrq3vixIlOFGwS1LqaVxDC5ORkGxsbNTW1DRs21NXVdbrh3FVVBP8+hPDZs2fm5ubPnz/ntc0gQa2r+YN+8fX19WfPnrWysvLy8iosLOyts/Kom7pv374tXrx4z549PK34laDWVdRa3kcPxJ01a5arq2tOTk5XhqBaZIrmDZPJrKurO3HixNy5c1+/fs1lKS5BjZ+5iZ4BamdnN3r06JycnE40aPipjSBlQQjJZPL169dNTExu377NDW0S1PicIQCA8vLygQMHzpgxo6CggJs84LMGwhKHOre7c+eOsrLy/fv3OaZUgppAcubDhw96enorV67sfbPyre2FNt32798/YMCAmJgY9m0GCWqtTce3eyqVeuDAAU1NzYMHD/biahTdWksikWbOnOns7FxcXMymbJOgxje8WgsCAOTn59va2qqqqrLxSdP6lZ57jyBIXFycoaHhlStX2BxCIkFNUFkMIQwNDVVVVR00aFBFRQX7ykVQSghLbkNDw/Llyzdu3MhmYZUENUHlBnomgb29vYyMTEBAAJs8EJQGQpRLp9O3bNly+fJlNq0FCWoCzBAAwKtXr/r27WtgYBAVFSXAmLpbNITw1KlTBw8eZLN1VIKaYHOpsbFx1apVMjIy69atq6urE2xk3ScdQnjp0qUVK1awcYgkQU2w+cNkMkkk0sSJE42MjNLT0wUbWfdJhxBevHjR3NyczeckQU3g+QMh/Pz5s7W1dUBAQHJycmVlJYPB6E0LQCCEFRUVHh4eXl5ebBZOSlATOGqoV96srCw/P7+xY8cuWLAgKCjo06dP1dXV4MfV47CDEKILWNBVBRQKxcfHx8zM7OPHj2w62hLUhIEa6tetrq7u06dPixcv1tHRMTQ0tLS0DAgIiI6OFpGD1bg3BAAgJCQE9TXe7BV67dq1+vr69+7dY+/TRIIa9xbmT0gGg5GYmDhv3jw8Hi8jI4Puvzpw4EBDQ0NPOaGxea49ICCgpqamoaFh1apVsrKykjlQ/sDBXynoeStMJjM7OzswMHDs2LGampo4HE5VVXXHjh1ZWVls6iD+atJpaQAAKyuryMhIf3//IUOGvHz5kps2gKRU67TB+fAiemDeq1evVq9ebWpqqqSkNGrUqLCwMD6IFqQIEomkpKRkZ2c3ceLEqKgobjhjsVgS1ASZJ5xko81qCCGNRktNTQ0ODh48eLChoWFubi6beWtOUgX+f2JiIg6HmzdvXnp6OpvpgTZ6SFBrY5Bu+4kCl5iYaGxsPGXKlMLCwm5ThVPEd+/eNTc3J5FIPNX1EtQ42VW4/0MIS0pKbGxsTExMwsLCKBQKT9nJd2UBAK39AKMNzZUrV65bt47XuCSo8WoxwYZHq9Ty8vKlS5caGRkdOHCgqqqqGzfF0On08PDwltocQlhQUGBiYvL69WteDSFBjVeLCSM8hLCsrCwgIKBv374uLi7x8fEtmS2M6FvFQafTnzx50uIpora2duPGjYqKivHx8a1CcXUrQY0rMwk/ELqn/NSpUzgcbuTIkeHh4WwWTQhOPQqFcuXKFbQSp9Ppp0+fVlRUHDlyZCfWRElQE1w28UEygiAvXrzQ0NBQVVU9e/as8GlraGi4fPkyAIBGo508eRKPxxsZGcXHx7eUc9wnUoIa97bqnpDooreRI0fKy8tv3bpVmAcRIQgSFhYWERGRm5u7adMmPB4/cuTI58+fcz/A0dpkEtRaW0NE7xEEiY6OHjt2rIyMzLx58xITE9EDFQStblNTk5OT0x9//DF16lQikTht2rRPnz6x2T3AXh8JauztIyr/ohNZDg4OBALB0tLyy5cvQhgEefHihaysrKKiYr9+/fbv319eXt6VSCWoiQpM3OhBp9O9vLwIBMLgwYO/fv1Ko9EE1DMFAJSVlY0bN05bW3vjxo3tHpzKjcKtw/y/9s6YNXkgDMCDGCgmqRbEUsHBDolbqY6KIIUu1ck/IEI7iQ4WoZTSoWOpU6GDisX+CRFctIMKgpNIBEFLqwjqUCSxJnwfHAlSsFjjVYV3ujMmb3KPD7l4Sd4D1WZpbHod5Q0NhUIGg2F3dzedTo9GowVvQf7QNmXcDlV4nq9UKl6v1+FwDAaDVT1vAqr98BNs4ldoyO3p6Wl/f99oNN7e3na7XZUHynEcetRMFMVms3lzc8OyrMViyWazanrMb0cFqn0DsgUfUfqCYrF4eHhI03Q4HB6Px8v1pChj19nZWT6ff35+DgQCDMPs7OyYzeZMJjM7O6p6LqCaeoZriIBmU2g0Gna7Hb1nutwfQ0mSOp0ORVEajQZNGUgQhMfjQY9sqO+aZ9GAarM0tqwuSVKr1QoEAnq9/urq6v39/bdyTCaTWCyGMtxGIpF4PF4oFDBRANUwgf27sMPhMJFInJycvLy8fH5+Lt6TiqLIcdzR0RFBEEqmy8U3/20LQbXfEtvE9QVBKJVKLpcrFAotPjDB8/zDwwNJkn6/f4WX//MAgWrzyGzZclEUs9ksyjUei8VQXrd5/Sla3mg0WJYlSbJer+M7mSkcQTUFxdZXptNptVo9PT0lSZJhmFQq9fb2poyZKc2TJGkymXAc5/F4dDrd5eUlz/OgmsIHKgsREEWx1+vd3d1ZrVadTud2u5PJZLvdVkxCN7geHx8ZhqEoKhgMdjqdhUKrXgnOaqoRblIAdA4TBOH19TUcDhsMBpqmfT5frVYTBOH/m3/X19cOh4OmaZPJdH9///HxMa+TXXmzQLWVI92IgGhG7HK57HQ6tVrtwcEBy7IURREEsbe3d3Fx0e/3lx74Xa6FoNpy3LZmq/F4fH5+brPZjo+Po9FoLpcbjUZrOXpQbS3Y/3Sn0+n06+sLzVGM7kT96e7lnYFqMgkoMRMA1TADhvAyAVBNJgElZgKgGmbAEF4mAKrJJKDETABUwwwYwssEQDWZBJSYCYBqmAFDeJkAqCaTgBIzAVANM2AILxMA1WQSUGIm8A9mhv3AFCxvKgAAAABJRU5ErkJggg==;rotation=-45;" vertex="1" parent="1">
          <mxGeometry x="1480.503529411765" y="1004.4952941176473" width="206" height="376" as="geometry" />
        </mxCell>
        <mxCell id="38yjaDSSOYZPgfIshnpb-3" value="" style="ellipse;whiteSpace=wrap;html=1;aspect=fixed;" vertex="1" parent="1">
          <mxGeometry x="188" y="395" width="15" height="15" as="geometry" />
        </mxCell>
        <mxCell id="38yjaDSSOYZPgfIshnpb-4" value="" style="ellipse;whiteSpace=wrap;html=1;aspect=fixed;" vertex="1" parent="1">
          <mxGeometry x="192" y="418" width="15" height="15" as="geometry" />
        </mxCell>
        <mxCell id="38yjaDSSOYZPgfIshnpb-5" value="" style="ellipse;whiteSpace=wrap;html=1;aspect=fixed;" vertex="1" parent="1">
          <mxGeometry x="210" y="399" width="15" height="15" as="geometry" />
        </mxCell>
        <mxCell id="38yjaDSSOYZPgfIshnpb-6" value="" style="ellipse;whiteSpace=wrap;html=1;aspect=fixed;" vertex="1" parent="1">
          <mxGeometry x="214" y="424" width="15" height="15" as="geometry" />
        </mxCell>
        <mxCell id="38yjaDSSOYZPgfIshnpb-7" value="" style="ellipse;whiteSpace=wrap;html=1;aspect=fixed;" vertex="1" parent="1">
          <mxGeometry x="236" y="428" width="15" height="15" as="geometry" />
        </mxCell>
        <mxCell id="38yjaDSSOYZPgfIshnpb-8" value="" style="ellipse;whiteSpace=wrap;html=1;aspect=fixed;fillColor=#f8cecc;strokeColor=#b85450;" vertex="1" parent="1">
          <mxGeometry x="225" y="373" width="15" height="15" as="geometry" />
        </mxCell>
        <mxCell id="38yjaDSSOYZPgfIshnpb-9" value="" style="ellipse;whiteSpace=wrap;html=1;aspect=fixed;" vertex="1" parent="1">
          <mxGeometry x="245" y="388" width="15" height="15" as="geometry" />
        </mxCell>
        <mxCell id="38yjaDSSOYZPgfIshnpb-10" value="" style="ellipse;whiteSpace=wrap;html=1;aspect=fixed;fillColor=#d5e8d4;strokeColor=#82b366;" vertex="1" parent="1">
          <mxGeometry x="174.5" y="471" width="15" height="15" as="geometry" />
        </mxCell>
        <mxCell id="38yjaDSSOYZPgfIshnpb-11" value="" style="ellipse;whiteSpace=wrap;html=1;aspect=fixed;" vertex="1" parent="1">
          <mxGeometry x="178.5" y="496" width="15" height="15" as="geometry" />
        </mxCell>
        <mxCell id="38yjaDSSOYZPgfIshnpb-12" value="" style="ellipse;whiteSpace=wrap;html=1;aspect=fixed;" vertex="1" parent="1">
          <mxGeometry x="200.5" y="500" width="15" height="15" as="geometry" />
        </mxCell>
        <mxCell id="38yjaDSSOYZPgfIshnpb-13" value="" style="ellipse;whiteSpace=wrap;html=1;aspect=fixed;" vertex="1" parent="1">
          <mxGeometry x="189.5" y="445" width="15" height="15" as="geometry" />
        </mxCell>
        <mxCell id="38yjaDSSOYZPgfIshnpb-14" value="" style="ellipse;whiteSpace=wrap;html=1;aspect=fixed;" vertex="1" parent="1">
          <mxGeometry x="209.5" y="460" width="15" height="15" as="geometry" />
        </mxCell>
        <mxCell id="38yjaDSSOYZPgfIshnpb-15" value="" style="ellipse;whiteSpace=wrap;html=1;aspect=fixed;" vertex="1" parent="1">
          <mxGeometry x="240" y="461" width="15" height="15" as="geometry" />
        </mxCell>
        <mxCell id="38yjaDSSOYZPgfIshnpb-16" value="" style="ellipse;whiteSpace=wrap;html=1;aspect=fixed;" vertex="1" parent="1">
          <mxGeometry x="260" y="477" width="15" height="15" as="geometry" />
        </mxCell>
        <mxCell id="38yjaDSSOYZPgfIshnpb-17" value="" style="ellipse;whiteSpace=wrap;html=1;aspect=fixed;" vertex="1" parent="1">
          <mxGeometry x="282" y="481" width="15" height="15" as="geometry" />
        </mxCell>
        <mxCell id="38yjaDSSOYZPgfIshnpb-18" value="" style="ellipse;whiteSpace=wrap;html=1;aspect=fixed;" vertex="1" parent="1">
          <mxGeometry x="255" y="435" width="15" height="15" as="geometry" />
        </mxCell>
        <mxCell id="38yjaDSSOYZPgfIshnpb-19" value="" style="ellipse;whiteSpace=wrap;html=1;aspect=fixed;" vertex="1" parent="1">
          <mxGeometry x="275" y="450" width="15" height="15" as="geometry" />
        </mxCell>
        <mxCell id="38yjaDSSOYZPgfIshnpb-20" value="" style="ellipse;whiteSpace=wrap;html=1;aspect=fixed;" vertex="1" parent="1">
          <mxGeometry x="345" y="363" width="15" height="15" as="geometry" />
        </mxCell>
        <mxCell id="38yjaDSSOYZPgfIshnpb-21" value="" style="ellipse;whiteSpace=wrap;html=1;aspect=fixed;" vertex="1" parent="1">
          <mxGeometry x="349" y="386" width="15" height="15" as="geometry" />
        </mxCell>
        <mxCell id="38yjaDSSOYZPgfIshnpb-22" value="" style="ellipse;whiteSpace=wrap;html=1;aspect=fixed;" vertex="1" parent="1">
          <mxGeometry x="367" y="367" width="15" height="15" as="geometry" />
        </mxCell>
        <mxCell id="38yjaDSSOYZPgfIshnpb-23" value="" style="ellipse;whiteSpace=wrap;html=1;aspect=fixed;" vertex="1" parent="1">
          <mxGeometry x="371" y="392" width="15" height="15" as="geometry" />
        </mxCell>
        <mxCell id="38yjaDSSOYZPgfIshnpb-24" value="" style="ellipse;whiteSpace=wrap;html=1;aspect=fixed;" vertex="1" parent="1">
          <mxGeometry x="393" y="396" width="15" height="15" as="geometry" />
        </mxCell>
        <mxCell id="38yjaDSSOYZPgfIshnpb-25" value="" style="ellipse;whiteSpace=wrap;html=1;aspect=fixed;" vertex="1" parent="1">
          <mxGeometry x="389" y="363" width="15" height="15" as="geometry" />
        </mxCell>
        <mxCell id="38yjaDSSOYZPgfIshnpb-26" value="" style="ellipse;whiteSpace=wrap;html=1;aspect=fixed;fillColor=#dae8fc;strokeColor=#6c8ebf;" vertex="1" parent="1">
          <mxGeometry x="352" y="418" width="15" height="15" as="geometry" />
        </mxCell>
        <mxCell id="38yjaDSSOYZPgfIshnpb-27" value="" style="ellipse;whiteSpace=wrap;html=1;aspect=fixed;" vertex="1" parent="1">
          <mxGeometry x="347.5" y="449.75" width="15" height="15" as="geometry" />
        </mxCell>
        <mxCell id="38yjaDSSOYZPgfIshnpb-28" value="" style="ellipse;whiteSpace=wrap;html=1;aspect=fixed;" vertex="1" parent="1">
          <mxGeometry x="369.5" y="455.75" width="15" height="15" as="geometry" />
        </mxCell>
        <mxCell id="38yjaDSSOYZPgfIshnpb-29" value="" style="ellipse;whiteSpace=wrap;html=1;aspect=fixed;" vertex="1" parent="1">
          <mxGeometry x="345" y="476.75" width="15" height="15" as="geometry" />
        </mxCell>
        <mxCell id="38yjaDSSOYZPgfIshnpb-30" value="" style="ellipse;whiteSpace=wrap;html=1;aspect=fixed;" vertex="1" parent="1">
          <mxGeometry x="369.5" y="484.25" width="15" height="15" as="geometry" />
        </mxCell>
        <mxCell id="38yjaDSSOYZPgfIshnpb-31" value="" style="ellipse;whiteSpace=wrap;html=1;aspect=fixed;" vertex="1" parent="1">
          <mxGeometry x="391.5" y="488.25" width="15" height="15" as="geometry" />
        </mxCell>
        <mxCell id="38yjaDSSOYZPgfIshnpb-32" value="" style="ellipse;whiteSpace=wrap;html=1;aspect=fixed;" vertex="1" parent="1">
          <mxGeometry x="410.5" y="495.25" width="15" height="15" as="geometry" />
        </mxCell>
        <mxCell id="38yjaDSSOYZPgfIshnpb-33" value="" style="ellipse;whiteSpace=wrap;html=1;aspect=fixed;" vertex="1" parent="1">
          <mxGeometry x="192" y="603.5" width="15" height="15" as="geometry" />
        </mxCell>
        <mxCell id="38yjaDSSOYZPgfIshnpb-34" value="" style="ellipse;whiteSpace=wrap;html=1;aspect=fixed;" vertex="1" parent="1">
          <mxGeometry x="196" y="626.5" width="15" height="15" as="geometry" />
        </mxCell>
        <mxCell id="38yjaDSSOYZPgfIshnpb-35" value="" style="ellipse;whiteSpace=wrap;html=1;aspect=fixed;" vertex="1" parent="1">
          <mxGeometry x="214" y="607.5" width="15" height="15" as="geometry" />
        </mxCell>
        <mxCell id="38yjaDSSOYZPgfIshnpb-36" value="" style="ellipse;whiteSpace=wrap;html=1;aspect=fixed;" vertex="1" parent="1">
          <mxGeometry x="218" y="632.5" width="15" height="15" as="geometry" />
        </mxCell>
        <mxCell id="38yjaDSSOYZPgfIshnpb-37" value="" style="ellipse;whiteSpace=wrap;html=1;aspect=fixed;" vertex="1" parent="1">
          <mxGeometry x="240" y="636.5" width="15" height="15" as="geometry" />
        </mxCell>
        <mxCell id="38yjaDSSOYZPgfIshnpb-38" value="" style="ellipse;whiteSpace=wrap;html=1;aspect=fixed;" vertex="1" parent="1">
          <mxGeometry x="229" y="581.5" width="15" height="15" as="geometry" />
        </mxCell>
        <mxCell id="38yjaDSSOYZPgfIshnpb-39" value="" style="ellipse;whiteSpace=wrap;html=1;aspect=fixed;" vertex="1" parent="1">
          <mxGeometry x="249" y="596.5" width="15" height="15" as="geometry" />
        </mxCell>
        <mxCell id="38yjaDSSOYZPgfIshnpb-40" value="" style="ellipse;whiteSpace=wrap;html=1;aspect=fixed;" vertex="1" parent="1">
          <mxGeometry x="178.5" y="679.5" width="15" height="15" as="geometry" />
        </mxCell>
        <mxCell id="38yjaDSSOYZPgfIshnpb-41" value="" style="ellipse;whiteSpace=wrap;html=1;aspect=fixed;" vertex="1" parent="1">
          <mxGeometry x="182.5" y="704.5" width="15" height="15" as="geometry" />
        </mxCell>
        <mxCell id="38yjaDSSOYZPgfIshnpb-42" value="" style="ellipse;whiteSpace=wrap;html=1;aspect=fixed;" vertex="1" parent="1">
          <mxGeometry x="204.5" y="708.5" width="15" height="15" as="geometry" />
        </mxCell>
        <mxCell id="38yjaDSSOYZPgfIshnpb-43" value="" style="ellipse;whiteSpace=wrap;html=1;aspect=fixed;" vertex="1" parent="1">
          <mxGeometry x="193.5" y="653.5" width="15" height="15" as="geometry" />
        </mxCell>
        <mxCell id="38yjaDSSOYZPgfIshnpb-44" value="" style="ellipse;whiteSpace=wrap;html=1;aspect=fixed;" vertex="1" parent="1">
          <mxGeometry x="213.5" y="668.5" width="15" height="15" as="geometry" />
        </mxCell>
        <mxCell id="38yjaDSSOYZPgfIshnpb-45" value="" style="ellipse;whiteSpace=wrap;html=1;aspect=fixed;" vertex="1" parent="1">
          <mxGeometry x="244" y="669.5" width="15" height="15" as="geometry" />
        </mxCell>
        <mxCell id="38yjaDSSOYZPgfIshnpb-46" value="" style="ellipse;whiteSpace=wrap;html=1;aspect=fixed;" vertex="1" parent="1">
          <mxGeometry x="264" y="685.5" width="15" height="15" as="geometry" />
        </mxCell>
        <mxCell id="38yjaDSSOYZPgfIshnpb-47" value="" style="ellipse;whiteSpace=wrap;html=1;aspect=fixed;" vertex="1" parent="1">
          <mxGeometry x="286" y="689.5" width="15" height="15" as="geometry" />
        </mxCell>
        <mxCell id="38yjaDSSOYZPgfIshnpb-48" value="" style="ellipse;whiteSpace=wrap;html=1;aspect=fixed;fillColor=#f8cecc;strokeColor=#b85450;" vertex="1" parent="1">
          <mxGeometry x="259" y="643.5" width="15" height="15" as="geometry" />
        </mxCell>
        <mxCell id="38yjaDSSOYZPgfIshnpb-49" value="" style="ellipse;whiteSpace=wrap;html=1;aspect=fixed;" vertex="1" parent="1">
          <mxGeometry x="279" y="658.5" width="15" height="15" as="geometry" />
        </mxCell>
        <mxCell id="38yjaDSSOYZPgfIshnpb-50" value="" style="ellipse;whiteSpace=wrap;html=1;aspect=fixed;" vertex="1" parent="1">
          <mxGeometry x="328" y="582.5" width="15" height="15" as="geometry" />
        </mxCell>
        <mxCell id="38yjaDSSOYZPgfIshnpb-51" value="" style="ellipse;whiteSpace=wrap;html=1;aspect=fixed;" vertex="1" parent="1">
          <mxGeometry x="332" y="605.5" width="15" height="15" as="geometry" />
        </mxCell>
        <mxCell id="38yjaDSSOYZPgfIshnpb-52" value="" style="ellipse;whiteSpace=wrap;html=1;aspect=fixed;fillColor=#dae8fc;strokeColor=#6c8ebf;" vertex="1" parent="1">
          <mxGeometry x="350" y="586.5" width="15" height="15" as="geometry" />
        </mxCell>
        <mxCell id="38yjaDSSOYZPgfIshnpb-53" value="" style="ellipse;whiteSpace=wrap;html=1;aspect=fixed;" vertex="1" parent="1">
          <mxGeometry x="354" y="611.5" width="15" height="15" as="geometry" />
        </mxCell>
        <mxCell id="38yjaDSSOYZPgfIshnpb-54" value="" style="ellipse;whiteSpace=wrap;html=1;aspect=fixed;" vertex="1" parent="1">
          <mxGeometry x="376" y="615.5" width="15" height="15" as="geometry" />
        </mxCell>
        <mxCell id="38yjaDSSOYZPgfIshnpb-55" value="" style="ellipse;whiteSpace=wrap;html=1;aspect=fixed;" vertex="1" parent="1">
          <mxGeometry x="372" y="582.5" width="15" height="15" as="geometry" />
        </mxCell>
        <mxCell id="38yjaDSSOYZPgfIshnpb-56" value="" style="ellipse;whiteSpace=wrap;html=1;aspect=fixed;" vertex="1" parent="1">
          <mxGeometry x="337" y="638.5" width="15" height="15" as="geometry" />
        </mxCell>
        <mxCell id="38yjaDSSOYZPgfIshnpb-57" value="" style="ellipse;whiteSpace=wrap;html=1;aspect=fixed;fillColor=#d5e8d4;strokeColor=#82b366;" vertex="1" parent="1">
          <mxGeometry x="339.25" y="677.75" width="15" height="15" as="geometry" />
        </mxCell>
        <mxCell id="38yjaDSSOYZPgfIshnpb-58" value="" style="ellipse;whiteSpace=wrap;html=1;aspect=fixed;" vertex="1" parent="1">
          <mxGeometry x="361.25" y="683.75" width="15" height="15" as="geometry" />
        </mxCell>
        <mxCell id="38yjaDSSOYZPgfIshnpb-59" value="" style="ellipse;whiteSpace=wrap;html=1;aspect=fixed;" vertex="1" parent="1">
          <mxGeometry x="336.75" y="704.75" width="15" height="15" as="geometry" />
        </mxCell>
        <mxCell id="38yjaDSSOYZPgfIshnpb-60" value="" style="ellipse;whiteSpace=wrap;html=1;aspect=fixed;" vertex="1" parent="1">
          <mxGeometry x="361.25" y="712.25" width="15" height="15" as="geometry" />
        </mxCell>
        <mxCell id="38yjaDSSOYZPgfIshnpb-61" value="" style="ellipse;whiteSpace=wrap;html=1;aspect=fixed;" vertex="1" parent="1">
          <mxGeometry x="383.25" y="716.25" width="15" height="15" as="geometry" />
        </mxCell>
        <mxCell id="38yjaDSSOYZPgfIshnpb-62" value="" style="ellipse;whiteSpace=wrap;html=1;aspect=fixed;" vertex="1" parent="1">
          <mxGeometry x="402.25" y="723.25" width="15" height="15" as="geometry" />
        </mxCell>
        <mxCell id="38yjaDSSOYZPgfIshnpb-63" value="" style="endArrow=none;html=1;rounded=0;" edge="1" parent="1">
          <mxGeometry width="50" height="50" relative="1" as="geometry">
            <mxPoint x="119" y="550" as="sourcePoint" />
            <mxPoint x="798" y="550" as="targetPoint" />
          </mxGeometry>
        </mxCell>
        <mxCell id="38yjaDSSOYZPgfIshnpb-64" value="" style="ellipse;whiteSpace=wrap;html=1;aspect=fixed;fillColor=#f8cecc;strokeColor=#b85450;" vertex="1" parent="1">
          <mxGeometry x="501.5" y="383.25" width="15" height="15" as="geometry" />
        </mxCell>
        <mxCell id="38yjaDSSOYZPgfIshnpb-65" value="" style="ellipse;whiteSpace=wrap;html=1;aspect=fixed;fillColor=#f8cecc;strokeColor=#b85450;" vertex="1" parent="1">
          <mxGeometry x="505.5" y="406.25" width="15" height="15" as="geometry" />
        </mxCell>
        <mxCell id="38yjaDSSOYZPgfIshnpb-66" value="" style="ellipse;whiteSpace=wrap;html=1;aspect=fixed;fillColor=#f8cecc;strokeColor=#b85450;" vertex="1" parent="1">
          <mxGeometry x="523.5" y="387.25" width="15" height="15" as="geometry" />
        </mxCell>
        <mxCell id="38yjaDSSOYZPgfIshnpb-67" value="" style="ellipse;whiteSpace=wrap;html=1;aspect=fixed;fillColor=#f8cecc;strokeColor=#b85450;" vertex="1" parent="1">
          <mxGeometry x="527.5" y="412.25" width="15" height="15" as="geometry" />
        </mxCell>
        <mxCell id="38yjaDSSOYZPgfIshnpb-68" value="" style="ellipse;whiteSpace=wrap;html=1;aspect=fixed;fillColor=#f8cecc;strokeColor=#b85450;" vertex="1" parent="1">
          <mxGeometry x="549.5" y="416.25" width="15" height="15" as="geometry" />
        </mxCell>
        <mxCell id="38yjaDSSOYZPgfIshnpb-69" value="" style="ellipse;whiteSpace=wrap;html=1;aspect=fixed;fillColor=#f8cecc;strokeColor=#b85450;" vertex="1" parent="1">
          <mxGeometry x="538.5" y="361.25" width="15" height="15" as="geometry" />
        </mxCell>
        <mxCell id="38yjaDSSOYZPgfIshnpb-70" value="" style="ellipse;whiteSpace=wrap;html=1;aspect=fixed;fillColor=#f8cecc;strokeColor=#b85450;" vertex="1" parent="1">
          <mxGeometry x="558.5" y="376.25" width="15" height="15" as="geometry" />
        </mxCell>
        <mxCell id="38yjaDSSOYZPgfIshnpb-71" value="" style="ellipse;whiteSpace=wrap;html=1;aspect=fixed;fillColor=#d5e8d4;strokeColor=#82b366;" vertex="1" parent="1">
          <mxGeometry x="488" y="459.25" width="15" height="15" as="geometry" />
        </mxCell>
        <mxCell id="38yjaDSSOYZPgfIshnpb-72" value="" style="ellipse;whiteSpace=wrap;html=1;aspect=fixed;fillColor=#d5e8d4;strokeColor=#82b366;" vertex="1" parent="1">
          <mxGeometry x="492" y="484.25" width="15" height="15" as="geometry" />
        </mxCell>
        <mxCell id="38yjaDSSOYZPgfIshnpb-73" value="" style="ellipse;whiteSpace=wrap;html=1;aspect=fixed;fillColor=#d5e8d4;strokeColor=#82b366;" vertex="1" parent="1">
          <mxGeometry x="514" y="488.25" width="15" height="15" as="geometry" />
        </mxCell>
        <mxCell id="38yjaDSSOYZPgfIshnpb-74" value="" style="ellipse;whiteSpace=wrap;html=1;aspect=fixed;fillColor=#d5e8d4;strokeColor=#82b366;" vertex="1" parent="1">
          <mxGeometry x="503" y="433.25" width="15" height="15" as="geometry" />
        </mxCell>
        <mxCell id="38yjaDSSOYZPgfIshnpb-75" value="" style="ellipse;whiteSpace=wrap;html=1;aspect=fixed;fillColor=#d5e8d4;strokeColor=#82b366;" vertex="1" parent="1">
          <mxGeometry x="523" y="448.25" width="15" height="15" as="geometry" />
        </mxCell>
        <mxCell id="38yjaDSSOYZPgfIshnpb-76" value="" style="ellipse;whiteSpace=wrap;html=1;aspect=fixed;fillColor=#d5e8d4;strokeColor=#82b366;" vertex="1" parent="1">
          <mxGeometry x="553.5" y="449.25" width="15" height="15" as="geometry" />
        </mxCell>
        <mxCell id="38yjaDSSOYZPgfIshnpb-77" value="" style="ellipse;whiteSpace=wrap;html=1;aspect=fixed;fillColor=#d5e8d4;strokeColor=#82b366;" vertex="1" parent="1">
          <mxGeometry x="573.5" y="465.25" width="15" height="15" as="geometry" />
        </mxCell>
        <mxCell id="38yjaDSSOYZPgfIshnpb-78" value="" style="ellipse;whiteSpace=wrap;html=1;aspect=fixed;fillColor=#d5e8d4;strokeColor=#82b366;" vertex="1" parent="1">
          <mxGeometry x="595.5" y="469.25" width="15" height="15" as="geometry" />
        </mxCell>
        <mxCell id="38yjaDSSOYZPgfIshnpb-79" value="" style="ellipse;whiteSpace=wrap;html=1;aspect=fixed;fillColor=#f8cecc;strokeColor=#b85450;" vertex="1" parent="1">
          <mxGeometry x="568.5" y="423.25" width="15" height="15" as="geometry" />
        </mxCell>
        <mxCell id="38yjaDSSOYZPgfIshnpb-80" value="" style="ellipse;whiteSpace=wrap;html=1;aspect=fixed;fillColor=#d5e8d4;strokeColor=#82b366;" vertex="1" parent="1">
          <mxGeometry x="588.5" y="438.25" width="15" height="15" as="geometry" />
        </mxCell>
        <mxCell id="38yjaDSSOYZPgfIshnpb-81" value="" style="ellipse;whiteSpace=wrap;html=1;aspect=fixed;fillColor=#dae8fc;strokeColor=#6c8ebf;" vertex="1" parent="1">
          <mxGeometry x="657.75" y="348.25" width="15" height="15" as="geometry" />
        </mxCell>
        <mxCell id="38yjaDSSOYZPgfIshnpb-82" value="" style="ellipse;whiteSpace=wrap;html=1;aspect=fixed;fillColor=#dae8fc;strokeColor=#6c8ebf;" vertex="1" parent="1">
          <mxGeometry x="661.75" y="371.25" width="15" height="15" as="geometry" />
        </mxCell>
        <mxCell id="38yjaDSSOYZPgfIshnpb-83" value="" style="ellipse;whiteSpace=wrap;html=1;aspect=fixed;fillColor=#dae8fc;strokeColor=#6c8ebf;" vertex="1" parent="1">
          <mxGeometry x="679.75" y="352.25" width="15" height="15" as="geometry" />
        </mxCell>
        <mxCell id="38yjaDSSOYZPgfIshnpb-84" value="" style="ellipse;whiteSpace=wrap;html=1;aspect=fixed;fillColor=#dae8fc;strokeColor=#6c8ebf;" vertex="1" parent="1">
          <mxGeometry x="683.75" y="377.25" width="15" height="15" as="geometry" />
        </mxCell>
        <mxCell id="38yjaDSSOYZPgfIshnpb-85" value="" style="ellipse;whiteSpace=wrap;html=1;aspect=fixed;fillColor=#dae8fc;strokeColor=#6c8ebf;" vertex="1" parent="1">
          <mxGeometry x="705.75" y="381.25" width="15" height="15" as="geometry" />
        </mxCell>
        <mxCell id="38yjaDSSOYZPgfIshnpb-86" value="" style="ellipse;whiteSpace=wrap;html=1;aspect=fixed;fillColor=#dae8fc;strokeColor=#6c8ebf;" vertex="1" parent="1">
          <mxGeometry x="701.75" y="348.25" width="15" height="15" as="geometry" />
        </mxCell>
        <mxCell id="38yjaDSSOYZPgfIshnpb-87" value="" style="ellipse;whiteSpace=wrap;html=1;aspect=fixed;fillColor=#dae8fc;strokeColor=#6c8ebf;" vertex="1" parent="1">
          <mxGeometry x="657.75" y="412.25" width="15" height="15" as="geometry" />
        </mxCell>
        <mxCell id="38yjaDSSOYZPgfIshnpb-88" value="" style="ellipse;whiteSpace=wrap;html=1;aspect=fixed;fillColor=#dae8fc;strokeColor=#6c8ebf;" vertex="1" parent="1">
          <mxGeometry x="649.25" y="446.5" width="15" height="15" as="geometry" />
        </mxCell>
        <mxCell id="38yjaDSSOYZPgfIshnpb-89" value="" style="ellipse;whiteSpace=wrap;html=1;aspect=fixed;fillColor=#dae8fc;strokeColor=#6c8ebf;" vertex="1" parent="1">
          <mxGeometry x="671.25" y="452.5" width="15" height="15" as="geometry" />
        </mxCell>
        <mxCell id="38yjaDSSOYZPgfIshnpb-90" value="" style="ellipse;whiteSpace=wrap;html=1;aspect=fixed;fillColor=#dae8fc;strokeColor=#6c8ebf;" vertex="1" parent="1">
          <mxGeometry x="646.75" y="473.5" width="15" height="15" as="geometry" />
        </mxCell>
        <mxCell id="38yjaDSSOYZPgfIshnpb-91" value="" style="ellipse;whiteSpace=wrap;html=1;aspect=fixed;fillColor=#dae8fc;strokeColor=#6c8ebf;" vertex="1" parent="1">
          <mxGeometry x="671.25" y="481" width="15" height="15" as="geometry" />
        </mxCell>
        <mxCell id="38yjaDSSOYZPgfIshnpb-92" value="" style="ellipse;whiteSpace=wrap;html=1;aspect=fixed;fillColor=#dae8fc;strokeColor=#6c8ebf;" vertex="1" parent="1">
          <mxGeometry x="693.25" y="485" width="15" height="15" as="geometry" />
        </mxCell>
        <mxCell id="38yjaDSSOYZPgfIshnpb-93" value="" style="ellipse;whiteSpace=wrap;html=1;aspect=fixed;fillColor=#dae8fc;strokeColor=#6c8ebf;" vertex="1" parent="1">
          <mxGeometry x="712.25" y="492" width="15" height="15" as="geometry" />
        </mxCell>
        <mxCell id="38yjaDSSOYZPgfIshnpb-94" value="" style="ellipse;whiteSpace=wrap;html=1;aspect=fixed;fillColor=#f8cecc;strokeColor=#b85450;" vertex="1" parent="1">
          <mxGeometry x="501.5" y="612" width="15" height="15" as="geometry" />
        </mxCell>
        <mxCell id="38yjaDSSOYZPgfIshnpb-95" value="" style="ellipse;whiteSpace=wrap;html=1;aspect=fixed;fillColor=#f8cecc;strokeColor=#b85450;" vertex="1" parent="1">
          <mxGeometry x="505.5" y="635" width="15" height="15" as="geometry" />
        </mxCell>
        <mxCell id="38yjaDSSOYZPgfIshnpb-96" value="" style="ellipse;whiteSpace=wrap;html=1;aspect=fixed;fillColor=#f8cecc;strokeColor=#b85450;" vertex="1" parent="1">
          <mxGeometry x="523.5" y="616" width="15" height="15" as="geometry" />
        </mxCell>
        <mxCell id="38yjaDSSOYZPgfIshnpb-97" value="" style="ellipse;whiteSpace=wrap;html=1;aspect=fixed;fillColor=#f8cecc;strokeColor=#b85450;" vertex="1" parent="1">
          <mxGeometry x="527.5" y="641" width="15" height="15" as="geometry" />
        </mxCell>
        <mxCell id="38yjaDSSOYZPgfIshnpb-98" value="" style="ellipse;whiteSpace=wrap;html=1;aspect=fixed;fillColor=#f8cecc;strokeColor=#b85450;" vertex="1" parent="1">
          <mxGeometry x="549.5" y="645" width="15" height="15" as="geometry" />
        </mxCell>
        <mxCell id="38yjaDSSOYZPgfIshnpb-99" value="" style="ellipse;whiteSpace=wrap;html=1;aspect=fixed;fillColor=#f8cecc;strokeColor=#b85450;" vertex="1" parent="1">
          <mxGeometry x="538.5" y="590" width="15" height="15" as="geometry" />
        </mxCell>
        <mxCell id="38yjaDSSOYZPgfIshnpb-100" value="" style="ellipse;whiteSpace=wrap;html=1;aspect=fixed;fillColor=#f8cecc;strokeColor=#b85450;" vertex="1" parent="1">
          <mxGeometry x="558.5" y="605" width="15" height="15" as="geometry" />
        </mxCell>
        <mxCell id="38yjaDSSOYZPgfIshnpb-101" value="" style="ellipse;whiteSpace=wrap;html=1;aspect=fixed;fillColor=#f8cecc;strokeColor=#b85450;" vertex="1" parent="1">
          <mxGeometry x="488" y="688" width="15" height="15" as="geometry" />
        </mxCell>
        <mxCell id="38yjaDSSOYZPgfIshnpb-102" value="" style="ellipse;whiteSpace=wrap;html=1;aspect=fixed;fillColor=#f8cecc;strokeColor=#b85450;" vertex="1" parent="1">
          <mxGeometry x="492" y="713" width="15" height="15" as="geometry" />
        </mxCell>
        <mxCell id="38yjaDSSOYZPgfIshnpb-103" value="" style="ellipse;whiteSpace=wrap;html=1;aspect=fixed;fillColor=#f8cecc;strokeColor=#b85450;" vertex="1" parent="1">
          <mxGeometry x="514" y="717" width="15" height="15" as="geometry" />
        </mxCell>
        <mxCell id="38yjaDSSOYZPgfIshnpb-104" value="" style="ellipse;whiteSpace=wrap;html=1;aspect=fixed;fillColor=#f8cecc;strokeColor=#b85450;" vertex="1" parent="1">
          <mxGeometry x="503" y="662" width="15" height="15" as="geometry" />
        </mxCell>
        <mxCell id="38yjaDSSOYZPgfIshnpb-105" value="" style="ellipse;whiteSpace=wrap;html=1;aspect=fixed;fillColor=#f8cecc;strokeColor=#b85450;" vertex="1" parent="1">
          <mxGeometry x="523" y="677" width="15" height="15" as="geometry" />
        </mxCell>
        <mxCell id="38yjaDSSOYZPgfIshnpb-106" value="" style="ellipse;whiteSpace=wrap;html=1;aspect=fixed;fillColor=#f8cecc;strokeColor=#b85450;" vertex="1" parent="1">
          <mxGeometry x="553.5" y="678" width="15" height="15" as="geometry" />
        </mxCell>
        <mxCell id="38yjaDSSOYZPgfIshnpb-107" value="" style="ellipse;whiteSpace=wrap;html=1;aspect=fixed;fillColor=#f8cecc;strokeColor=#b85450;" vertex="1" parent="1">
          <mxGeometry x="573.5" y="694" width="15" height="15" as="geometry" />
        </mxCell>
        <mxCell id="38yjaDSSOYZPgfIshnpb-108" value="" style="ellipse;whiteSpace=wrap;html=1;aspect=fixed;fillColor=#f8cecc;strokeColor=#b85450;" vertex="1" parent="1">
          <mxGeometry x="595.5" y="698" width="15" height="15" as="geometry" />
        </mxCell>
        <mxCell id="38yjaDSSOYZPgfIshnpb-109" value="" style="ellipse;whiteSpace=wrap;html=1;aspect=fixed;fillColor=#f8cecc;strokeColor=#b85450;" vertex="1" parent="1">
          <mxGeometry x="568.5" y="652" width="15" height="15" as="geometry" />
        </mxCell>
        <mxCell id="38yjaDSSOYZPgfIshnpb-110" value="" style="ellipse;whiteSpace=wrap;html=1;aspect=fixed;fillColor=#f8cecc;strokeColor=#b85450;" vertex="1" parent="1">
          <mxGeometry x="588.5" y="667" width="15" height="15" as="geometry" />
        </mxCell>
        <mxCell id="38yjaDSSOYZPgfIshnpb-111" value="" style="ellipse;whiteSpace=wrap;html=1;aspect=fixed;fillColor=#dae8fc;strokeColor=#6c8ebf;" vertex="1" parent="1">
          <mxGeometry x="649.25" y="588.5" width="15" height="15" as="geometry" />
        </mxCell>
        <mxCell id="38yjaDSSOYZPgfIshnpb-112" value="" style="ellipse;whiteSpace=wrap;html=1;aspect=fixed;fillColor=#dae8fc;strokeColor=#6c8ebf;" vertex="1" parent="1">
          <mxGeometry x="653.25" y="611.5" width="15" height="15" as="geometry" />
        </mxCell>
        <mxCell id="38yjaDSSOYZPgfIshnpb-113" value="" style="ellipse;whiteSpace=wrap;html=1;aspect=fixed;fillColor=#dae8fc;strokeColor=#6c8ebf;" vertex="1" parent="1">
          <mxGeometry x="671.25" y="592.5" width="15" height="15" as="geometry" />
        </mxCell>
        <mxCell id="38yjaDSSOYZPgfIshnpb-114" value="" style="ellipse;whiteSpace=wrap;html=1;aspect=fixed;fillColor=#dae8fc;strokeColor=#6c8ebf;" vertex="1" parent="1">
          <mxGeometry x="675.25" y="617.5" width="15" height="15" as="geometry" />
        </mxCell>
        <mxCell id="38yjaDSSOYZPgfIshnpb-115" value="" style="ellipse;whiteSpace=wrap;html=1;aspect=fixed;fillColor=#dae8fc;strokeColor=#6c8ebf;" vertex="1" parent="1">
          <mxGeometry x="697.25" y="621.5" width="15" height="15" as="geometry" />
        </mxCell>
        <mxCell id="38yjaDSSOYZPgfIshnpb-116" value="" style="ellipse;whiteSpace=wrap;html=1;aspect=fixed;fillColor=#dae8fc;strokeColor=#6c8ebf;" vertex="1" parent="1">
          <mxGeometry x="693.25" y="588.5" width="15" height="15" as="geometry" />
        </mxCell>
        <mxCell id="38yjaDSSOYZPgfIshnpb-117" value="" style="ellipse;whiteSpace=wrap;html=1;aspect=fixed;fillColor=#d5e8d4;strokeColor=#82b366;" vertex="1" parent="1">
          <mxGeometry x="652.5" y="645" width="15" height="15" as="geometry" />
        </mxCell>
        <mxCell id="38yjaDSSOYZPgfIshnpb-118" value="" style="ellipse;whiteSpace=wrap;html=1;aspect=fixed;fillColor=#d5e8d4;strokeColor=#82b366;" vertex="1" parent="1">
          <mxGeometry x="645.5" y="691" width="15" height="15" as="geometry" />
        </mxCell>
        <mxCell id="38yjaDSSOYZPgfIshnpb-119" value="" style="ellipse;whiteSpace=wrap;html=1;aspect=fixed;fillColor=#d5e8d4;strokeColor=#82b366;" vertex="1" parent="1">
          <mxGeometry x="667.5" y="697" width="15" height="15" as="geometry" />
        </mxCell>
        <mxCell id="38yjaDSSOYZPgfIshnpb-120" value="" style="ellipse;whiteSpace=wrap;html=1;aspect=fixed;fillColor=#d5e8d4;strokeColor=#82b366;" vertex="1" parent="1">
          <mxGeometry x="643" y="718" width="15" height="15" as="geometry" />
        </mxCell>
        <mxCell id="38yjaDSSOYZPgfIshnpb-121" value="" style="ellipse;whiteSpace=wrap;html=1;aspect=fixed;fillColor=#d5e8d4;strokeColor=#82b366;" vertex="1" parent="1">
          <mxGeometry x="667.5" y="725.5" width="15" height="15" as="geometry" />
        </mxCell>
        <mxCell id="38yjaDSSOYZPgfIshnpb-122" value="" style="ellipse;whiteSpace=wrap;html=1;aspect=fixed;fillColor=#d5e8d4;strokeColor=#82b366;" vertex="1" parent="1">
          <mxGeometry x="689.5" y="729.5" width="15" height="15" as="geometry" />
        </mxCell>
        <mxCell id="38yjaDSSOYZPgfIshnpb-123" value="" style="ellipse;whiteSpace=wrap;html=1;aspect=fixed;fillColor=#d5e8d4;strokeColor=#82b366;" vertex="1" parent="1">
          <mxGeometry x="708.5" y="736.5" width="15" height="15" as="geometry" />
        </mxCell>
        <mxCell id="38yjaDSSOYZPgfIshnpb-125" value="" style="shape=flexArrow;endArrow=classic;html=1;rounded=0;" edge="1" parent="1">
          <mxGeometry width="50" height="50" relative="1" as="geometry">
            <mxPoint x="422" y="435.26" as="sourcePoint" />
            <mxPoint x="469" y="435" as="targetPoint" />
          </mxGeometry>
        </mxCell>
        <mxCell id="38yjaDSSOYZPgfIshnpb-126" value="" style="shape=flexArrow;endArrow=classic;html=1;rounded=0;" edge="1" parent="1">
          <mxGeometry width="50" height="50" relative="1" as="geometry">
            <mxPoint x="429" y="658.0699999999999" as="sourcePoint" />
            <mxPoint x="476" y="657.81" as="targetPoint" />
          </mxGeometry>
        </mxCell>
        <mxCell id="38yjaDSSOYZPgfIshnpb-128" value="&lt;b&gt;First attempt&lt;/b&gt;" style="text;html=1;align=center;verticalAlign=middle;resizable=0;points=[];autosize=1;strokeColor=none;fillColor=none;" vertex="1" parent="1">
          <mxGeometry x="164" y="322.25" width="91" height="26" as="geometry" />
        </mxCell>
        <mxCell id="38yjaDSSOYZPgfIshnpb-129" value="&lt;b&gt;Second attempt&lt;/b&gt;" style="text;html=1;align=center;verticalAlign=middle;resizable=0;points=[];autosize=1;strokeColor=none;fillColor=none;" vertex="1" parent="1">
          <mxGeometry x="158" y="549" width="108" height="26" as="geometry" />
        </mxCell>
        <mxCell id="38yjaDSSOYZPgfIshnpb-130" value="&lt;b&gt;Within-cluster sum of errors&lt;/b&gt;" style="text;html=1;align=center;verticalAlign=middle;resizable=0;points=[];autosize=1;strokeColor=none;fillColor=none;fontSize=15;" vertex="1" parent="1">
          <mxGeometry x="314.25" y="778" width="219" height="30" as="geometry" />
        </mxCell>
        <mxCell id="38yjaDSSOYZPgfIshnpb-132" value="" style="rounded=0;whiteSpace=wrap;html=1;fillColor=#d5e8d4;strokeColor=#82b366;" vertex="1" parent="1">
          <mxGeometry x="209.5" y="849" width="120.5" height="9" as="geometry" />
        </mxCell>
        <mxCell id="38yjaDSSOYZPgfIshnpb-134" value="" style="rounded=0;whiteSpace=wrap;html=1;fillColor=#f8cecc;strokeColor=#b85450;" vertex="1" parent="1">
          <mxGeometry x="330" y="849" width="65" height="9" as="geometry" />
        </mxCell>
        <mxCell id="38yjaDSSOYZPgfIshnpb-135" value="" style="rounded=0;whiteSpace=wrap;html=1;fillColor=#dae8fc;strokeColor=#6c8ebf;" vertex="1" parent="1">
          <mxGeometry x="395" y="849" width="143" height="9" as="geometry" />
        </mxCell>
        <mxCell id="38yjaDSSOYZPgfIshnpb-136" value="" style="rounded=0;whiteSpace=wrap;html=1;fillColor=#f8cecc;strokeColor=#b85450;" vertex="1" parent="1">
          <mxGeometry x="209.5" y="885" width="151" height="9" as="geometry" />
        </mxCell>
        <mxCell id="38yjaDSSOYZPgfIshnpb-137" value="" style="rounded=0;whiteSpace=wrap;html=1;fillColor=#dae8fc;strokeColor=#6c8ebf;" vertex="1" parent="1">
          <mxGeometry x="360.5" y="885" width="43" height="9" as="geometry" />
        </mxCell>
        <mxCell id="38yjaDSSOYZPgfIshnpb-138" value="" style="rounded=0;whiteSpace=wrap;html=1;fillColor=#d5e8d4;strokeColor=#82b366;" vertex="1" parent="1">
          <mxGeometry x="403.5" y="885" width="79" height="9" as="geometry" />
        </mxCell>
        <mxCell id="38yjaDSSOYZPgfIshnpb-140" value="&lt;b&gt;First attempt&lt;/b&gt;" style="text;html=1;align=center;verticalAlign=middle;resizable=0;points=[];autosize=1;strokeColor=none;fillColor=none;" vertex="1" parent="1">
          <mxGeometry x="199.25" y="823" width="91" height="26" as="geometry" />
        </mxCell>
        <mxCell id="38yjaDSSOYZPgfIshnpb-141" value="&lt;b&gt;Second attempt&lt;/b&gt;" style="text;html=1;align=center;verticalAlign=middle;resizable=0;points=[];autosize=1;strokeColor=none;fillColor=none;" vertex="1" parent="1">
          <mxGeometry x="199.25" y="859" width="108" height="26" as="geometry" />
        </mxCell>
        <mxCell id="38yjaDSSOYZPgfIshnpb-142" value="Cross validation" style="text;html=1;align=center;verticalAlign=middle;resizable=0;points=[];autosize=1;strokeColor=none;fillColor=none;fontSize=15;" vertex="1" parent="1">
          <mxGeometry x="591.75" y="859" width="125" height="30" as="geometry" />
        </mxCell>
        <mxCell id="38yjaDSSOYZPgfIshnpb-143" value="&lt;font style=&quot;font-size: 44px;&quot;&gt;}&lt;/font&gt;" style="text;html=1;align=center;verticalAlign=middle;resizable=0;points=[];autosize=1;strokeColor=none;fillColor=none;fontStyle=0" vertex="1" parent="1">
          <mxGeometry x="554.25" y="839.5" width="33" height="65" as="geometry" />
        </mxCell>
        <mxCell id="38yjaDSSOYZPgfIshnpb-144" value="&lt;b&gt;...&lt;/b&gt;" style="text;html=1;align=center;verticalAlign=middle;resizable=0;points=[];autosize=1;strokeColor=none;fillColor=none;" vertex="1" parent="1">
          <mxGeometry x="207.25" y="899" width="28" height="26" as="geometry" />
        </mxCell>
        <mxCell id="38yjaDSSOYZPgfIshnpb-146" value="" style="endArrow=none;html=1;rounded=0;" edge="1" parent="1">
          <mxGeometry width="50" height="50" relative="1" as="geometry">
            <mxPoint x="116" y="778" as="sourcePoint" />
            <mxPoint x="797" y="778" as="targetPoint" />
          </mxGeometry>
        </mxCell>
        <mxCell id="38yjaDSSOYZPgfIshnpb-147" value="" style="endArrow=none;html=1;rounded=0;" edge="1" parent="1">
          <mxGeometry width="50" height="50" relative="1" as="geometry">
            <mxPoint x="109" y="322" as="sourcePoint" />
            <mxPoint x="803" y="322" as="targetPoint" />
          </mxGeometry>
        </mxCell>
        <mxCell id="38yjaDSSOYZPgfIshnpb-239" value="" style="ellipse;whiteSpace=wrap;html=1;aspect=fixed;" vertex="1" parent="1">
          <mxGeometry x="1077.5" y="621" width="15" height="15" as="geometry" />
        </mxCell>
        <mxCell id="38yjaDSSOYZPgfIshnpb-240" value="" style="ellipse;whiteSpace=wrap;html=1;aspect=fixed;" vertex="1" parent="1">
          <mxGeometry x="1081.5" y="644" width="15" height="15" as="geometry" />
        </mxCell>
        <mxCell id="38yjaDSSOYZPgfIshnpb-241" value="" style="ellipse;whiteSpace=wrap;html=1;aspect=fixed;" vertex="1" parent="1">
          <mxGeometry x="1099.5" y="625" width="15" height="15" as="geometry" />
        </mxCell>
        <mxCell id="38yjaDSSOYZPgfIshnpb-242" value="" style="ellipse;whiteSpace=wrap;html=1;aspect=fixed;" vertex="1" parent="1">
          <mxGeometry x="1103.5" y="650" width="15" height="15" as="geometry" />
        </mxCell>
        <mxCell id="38yjaDSSOYZPgfIshnpb-243" value="" style="ellipse;whiteSpace=wrap;html=1;aspect=fixed;" vertex="1" parent="1">
          <mxGeometry x="1125.5" y="654" width="15" height="15" as="geometry" />
        </mxCell>
        <mxCell id="38yjaDSSOYZPgfIshnpb-244" value="" style="ellipse;whiteSpace=wrap;html=1;aspect=fixed;" vertex="1" parent="1">
          <mxGeometry x="1114.5" y="599" width="15" height="15" as="geometry" />
        </mxCell>
        <mxCell id="38yjaDSSOYZPgfIshnpb-245" value="" style="ellipse;whiteSpace=wrap;html=1;aspect=fixed;" vertex="1" parent="1">
          <mxGeometry x="1134.5" y="614" width="15" height="15" as="geometry" />
        </mxCell>
        <mxCell id="38yjaDSSOYZPgfIshnpb-246" value="" style="ellipse;whiteSpace=wrap;html=1;aspect=fixed;" vertex="1" parent="1">
          <mxGeometry x="1064" y="697" width="15" height="15" as="geometry" />
        </mxCell>
        <mxCell id="38yjaDSSOYZPgfIshnpb-247" value="" style="ellipse;whiteSpace=wrap;html=1;aspect=fixed;" vertex="1" parent="1">
          <mxGeometry x="1068" y="722" width="15" height="15" as="geometry" />
        </mxCell>
        <mxCell id="38yjaDSSOYZPgfIshnpb-248" value="" style="ellipse;whiteSpace=wrap;html=1;aspect=fixed;" vertex="1" parent="1">
          <mxGeometry x="1090" y="726" width="15" height="15" as="geometry" />
        </mxCell>
        <mxCell id="38yjaDSSOYZPgfIshnpb-249" value="" style="ellipse;whiteSpace=wrap;html=1;aspect=fixed;" vertex="1" parent="1">
          <mxGeometry x="1079" y="671" width="15" height="15" as="geometry" />
        </mxCell>
        <mxCell id="38yjaDSSOYZPgfIshnpb-250" value="" style="ellipse;whiteSpace=wrap;html=1;aspect=fixed;" vertex="1" parent="1">
          <mxGeometry x="1099" y="686" width="15" height="15" as="geometry" />
        </mxCell>
        <mxCell id="38yjaDSSOYZPgfIshnpb-251" value="" style="ellipse;whiteSpace=wrap;html=1;aspect=fixed;" vertex="1" parent="1">
          <mxGeometry x="1129.5" y="687" width="15" height="15" as="geometry" />
        </mxCell>
        <mxCell id="38yjaDSSOYZPgfIshnpb-252" value="" style="ellipse;whiteSpace=wrap;html=1;aspect=fixed;" vertex="1" parent="1">
          <mxGeometry x="1149.5" y="703" width="15" height="15" as="geometry" />
        </mxCell>
        <mxCell id="38yjaDSSOYZPgfIshnpb-253" value="" style="ellipse;whiteSpace=wrap;html=1;aspect=fixed;" vertex="1" parent="1">
          <mxGeometry x="1171.5" y="707" width="15" height="15" as="geometry" />
        </mxCell>
        <mxCell id="38yjaDSSOYZPgfIshnpb-254" value="" style="ellipse;whiteSpace=wrap;html=1;aspect=fixed;fillColor=#f8cecc;strokeColor=#b85450;" vertex="1" parent="1">
          <mxGeometry x="1144.5" y="661" width="15" height="15" as="geometry" />
        </mxCell>
        <mxCell id="38yjaDSSOYZPgfIshnpb-255" value="" style="ellipse;whiteSpace=wrap;html=1;aspect=fixed;" vertex="1" parent="1">
          <mxGeometry x="1164.5" y="676" width="15" height="15" as="geometry" />
        </mxCell>
        <mxCell id="38yjaDSSOYZPgfIshnpb-256" value="" style="ellipse;whiteSpace=wrap;html=1;aspect=fixed;" vertex="1" parent="1">
          <mxGeometry x="1213.5" y="600" width="15" height="15" as="geometry" />
        </mxCell>
        <mxCell id="38yjaDSSOYZPgfIshnpb-257" value="" style="ellipse;whiteSpace=wrap;html=1;aspect=fixed;" vertex="1" parent="1">
          <mxGeometry x="1217.5" y="623" width="15" height="15" as="geometry" />
        </mxCell>
        <mxCell id="38yjaDSSOYZPgfIshnpb-258" value="" style="ellipse;whiteSpace=wrap;html=1;aspect=fixed;fillColor=#dae8fc;strokeColor=#6c8ebf;" vertex="1" parent="1">
          <mxGeometry x="1235.5" y="604" width="15" height="15" as="geometry" />
        </mxCell>
        <mxCell id="38yjaDSSOYZPgfIshnpb-259" value="" style="ellipse;whiteSpace=wrap;html=1;aspect=fixed;" vertex="1" parent="1">
          <mxGeometry x="1239.5" y="629" width="15" height="15" as="geometry" />
        </mxCell>
        <mxCell id="38yjaDSSOYZPgfIshnpb-260" value="" style="ellipse;whiteSpace=wrap;html=1;aspect=fixed;" vertex="1" parent="1">
          <mxGeometry x="1261.5" y="633" width="15" height="15" as="geometry" />
        </mxCell>
        <mxCell id="38yjaDSSOYZPgfIshnpb-261" value="" style="ellipse;whiteSpace=wrap;html=1;aspect=fixed;" vertex="1" parent="1">
          <mxGeometry x="1257.5" y="600" width="15" height="15" as="geometry" />
        </mxCell>
        <mxCell id="38yjaDSSOYZPgfIshnpb-262" value="" style="ellipse;whiteSpace=wrap;html=1;aspect=fixed;" vertex="1" parent="1">
          <mxGeometry x="1222.5" y="656" width="15" height="15" as="geometry" />
        </mxCell>
        <mxCell id="38yjaDSSOYZPgfIshnpb-263" value="" style="ellipse;whiteSpace=wrap;html=1;aspect=fixed;fillColor=#d5e8d4;strokeColor=#82b366;" vertex="1" parent="1">
          <mxGeometry x="1224.75" y="695.25" width="15" height="15" as="geometry" />
        </mxCell>
        <mxCell id="38yjaDSSOYZPgfIshnpb-264" value="" style="ellipse;whiteSpace=wrap;html=1;aspect=fixed;" vertex="1" parent="1">
          <mxGeometry x="1246.75" y="701.25" width="15" height="15" as="geometry" />
        </mxCell>
        <mxCell id="38yjaDSSOYZPgfIshnpb-265" value="" style="ellipse;whiteSpace=wrap;html=1;aspect=fixed;" vertex="1" parent="1">
          <mxGeometry x="1222.25" y="722.25" width="15" height="15" as="geometry" />
        </mxCell>
        <mxCell id="38yjaDSSOYZPgfIshnpb-266" value="" style="ellipse;whiteSpace=wrap;html=1;aspect=fixed;" vertex="1" parent="1">
          <mxGeometry x="1246.75" y="729.75" width="15" height="15" as="geometry" />
        </mxCell>
        <mxCell id="38yjaDSSOYZPgfIshnpb-267" value="" style="ellipse;whiteSpace=wrap;html=1;aspect=fixed;" vertex="1" parent="1">
          <mxGeometry x="1268.75" y="733.75" width="15" height="15" as="geometry" />
        </mxCell>
        <mxCell id="38yjaDSSOYZPgfIshnpb-268" value="" style="ellipse;whiteSpace=wrap;html=1;aspect=fixed;" vertex="1" parent="1">
          <mxGeometry x="1287.75" y="740.75" width="15" height="15" as="geometry" />
        </mxCell>
        <mxCell id="38yjaDSSOYZPgfIshnpb-269" value="" style="ellipse;whiteSpace=wrap;html=1;aspect=fixed;fillColor=#f8cecc;strokeColor=#b85450;" vertex="1" parent="1">
          <mxGeometry x="1387" y="629.5" width="15" height="15" as="geometry" />
        </mxCell>
        <mxCell id="38yjaDSSOYZPgfIshnpb-270" value="" style="ellipse;whiteSpace=wrap;html=1;aspect=fixed;fillColor=#f8cecc;strokeColor=#b85450;" vertex="1" parent="1">
          <mxGeometry x="1391" y="652.5" width="15" height="15" as="geometry" />
        </mxCell>
        <mxCell id="38yjaDSSOYZPgfIshnpb-271" value="" style="ellipse;whiteSpace=wrap;html=1;aspect=fixed;fillColor=#f8cecc;strokeColor=#b85450;" vertex="1" parent="1">
          <mxGeometry x="1409" y="633.5" width="15" height="15" as="geometry" />
        </mxCell>
        <mxCell id="38yjaDSSOYZPgfIshnpb-272" value="" style="ellipse;whiteSpace=wrap;html=1;aspect=fixed;fillColor=#f8cecc;strokeColor=#b85450;" vertex="1" parent="1">
          <mxGeometry x="1413" y="658.5" width="15" height="15" as="geometry" />
        </mxCell>
        <mxCell id="38yjaDSSOYZPgfIshnpb-273" value="" style="ellipse;whiteSpace=wrap;html=1;aspect=fixed;fillColor=#f8cecc;strokeColor=#b85450;" vertex="1" parent="1">
          <mxGeometry x="1435" y="662.5" width="15" height="15" as="geometry" />
        </mxCell>
        <mxCell id="38yjaDSSOYZPgfIshnpb-274" value="" style="ellipse;whiteSpace=wrap;html=1;aspect=fixed;fillColor=#f8cecc;strokeColor=#b85450;" vertex="1" parent="1">
          <mxGeometry x="1424" y="607.5" width="15" height="15" as="geometry" />
        </mxCell>
        <mxCell id="38yjaDSSOYZPgfIshnpb-275" value="" style="ellipse;whiteSpace=wrap;html=1;aspect=fixed;fillColor=#f8cecc;strokeColor=#b85450;" vertex="1" parent="1">
          <mxGeometry x="1444" y="622.5" width="15" height="15" as="geometry" />
        </mxCell>
        <mxCell id="38yjaDSSOYZPgfIshnpb-276" value="" style="ellipse;whiteSpace=wrap;html=1;aspect=fixed;fillColor=#f8cecc;strokeColor=#b85450;" vertex="1" parent="1">
          <mxGeometry x="1373.5" y="705.5" width="15" height="15" as="geometry" />
        </mxCell>
        <mxCell id="38yjaDSSOYZPgfIshnpb-277" value="" style="ellipse;whiteSpace=wrap;html=1;aspect=fixed;fillColor=#f8cecc;strokeColor=#b85450;" vertex="1" parent="1">
          <mxGeometry x="1377.5" y="730.5" width="15" height="15" as="geometry" />
        </mxCell>
        <mxCell id="38yjaDSSOYZPgfIshnpb-278" value="" style="ellipse;whiteSpace=wrap;html=1;aspect=fixed;fillColor=#f8cecc;strokeColor=#b85450;" vertex="1" parent="1">
          <mxGeometry x="1399.5" y="734.5" width="15" height="15" as="geometry" />
        </mxCell>
        <mxCell id="38yjaDSSOYZPgfIshnpb-279" value="" style="ellipse;whiteSpace=wrap;html=1;aspect=fixed;fillColor=#f8cecc;strokeColor=#b85450;" vertex="1" parent="1">
          <mxGeometry x="1388.5" y="679.5" width="15" height="15" as="geometry" />
        </mxCell>
        <mxCell id="38yjaDSSOYZPgfIshnpb-280" value="" style="ellipse;whiteSpace=wrap;html=1;aspect=fixed;fillColor=#f8cecc;strokeColor=#b85450;" vertex="1" parent="1">
          <mxGeometry x="1408.5" y="694.5" width="15" height="15" as="geometry" />
        </mxCell>
        <mxCell id="38yjaDSSOYZPgfIshnpb-281" value="" style="ellipse;whiteSpace=wrap;html=1;aspect=fixed;fillColor=#f8cecc;strokeColor=#b85450;" vertex="1" parent="1">
          <mxGeometry x="1439" y="695.5" width="15" height="15" as="geometry" />
        </mxCell>
        <mxCell id="38yjaDSSOYZPgfIshnpb-282" value="" style="ellipse;whiteSpace=wrap;html=1;aspect=fixed;fillColor=#f8cecc;strokeColor=#b85450;" vertex="1" parent="1">
          <mxGeometry x="1459" y="711.5" width="15" height="15" as="geometry" />
        </mxCell>
        <mxCell id="38yjaDSSOYZPgfIshnpb-283" value="" style="ellipse;whiteSpace=wrap;html=1;aspect=fixed;fillColor=#f8cecc;strokeColor=#b85450;" vertex="1" parent="1">
          <mxGeometry x="1481" y="715.5" width="15" height="15" as="geometry" />
        </mxCell>
        <mxCell id="38yjaDSSOYZPgfIshnpb-284" value="" style="ellipse;whiteSpace=wrap;html=1;aspect=fixed;fillColor=#f8cecc;strokeColor=#b85450;" vertex="1" parent="1">
          <mxGeometry x="1454" y="669.5" width="15" height="15" as="geometry" />
        </mxCell>
        <mxCell id="38yjaDSSOYZPgfIshnpb-285" value="" style="ellipse;whiteSpace=wrap;html=1;aspect=fixed;fillColor=#f8cecc;strokeColor=#b85450;" vertex="1" parent="1">
          <mxGeometry x="1474" y="684.5" width="15" height="15" as="geometry" />
        </mxCell>
        <mxCell id="38yjaDSSOYZPgfIshnpb-286" value="" style="ellipse;whiteSpace=wrap;html=1;aspect=fixed;fillColor=#dae8fc;strokeColor=#6c8ebf;" vertex="1" parent="1">
          <mxGeometry x="1534.75" y="606" width="15" height="15" as="geometry" />
        </mxCell>
        <mxCell id="38yjaDSSOYZPgfIshnpb-287" value="" style="ellipse;whiteSpace=wrap;html=1;aspect=fixed;fillColor=#dae8fc;strokeColor=#6c8ebf;" vertex="1" parent="1">
          <mxGeometry x="1538.75" y="629" width="15" height="15" as="geometry" />
        </mxCell>
        <mxCell id="38yjaDSSOYZPgfIshnpb-288" value="" style="ellipse;whiteSpace=wrap;html=1;aspect=fixed;fillColor=#dae8fc;strokeColor=#6c8ebf;" vertex="1" parent="1">
          <mxGeometry x="1556.75" y="610" width="15" height="15" as="geometry" />
        </mxCell>
        <mxCell id="38yjaDSSOYZPgfIshnpb-289" value="" style="ellipse;whiteSpace=wrap;html=1;aspect=fixed;fillColor=#dae8fc;strokeColor=#6c8ebf;" vertex="1" parent="1">
          <mxGeometry x="1560.75" y="635" width="15" height="15" as="geometry" />
        </mxCell>
        <mxCell id="38yjaDSSOYZPgfIshnpb-290" value="" style="ellipse;whiteSpace=wrap;html=1;aspect=fixed;fillColor=#dae8fc;strokeColor=#6c8ebf;" vertex="1" parent="1">
          <mxGeometry x="1582.75" y="639" width="15" height="15" as="geometry" />
        </mxCell>
        <mxCell id="38yjaDSSOYZPgfIshnpb-291" value="" style="ellipse;whiteSpace=wrap;html=1;aspect=fixed;fillColor=#dae8fc;strokeColor=#6c8ebf;" vertex="1" parent="1">
          <mxGeometry x="1578.75" y="606" width="15" height="15" as="geometry" />
        </mxCell>
        <mxCell id="38yjaDSSOYZPgfIshnpb-292" value="" style="ellipse;whiteSpace=wrap;html=1;aspect=fixed;fillColor=#dae8fc;strokeColor=#6c8ebf;" vertex="1" parent="1">
          <mxGeometry x="1538" y="662.5" width="15" height="15" as="geometry" />
        </mxCell>
        <mxCell id="38yjaDSSOYZPgfIshnpb-293" value="" style="ellipse;whiteSpace=wrap;html=1;aspect=fixed;fillColor=#d5e8d4;strokeColor=#82b366;" vertex="1" parent="1">
          <mxGeometry x="1531" y="708.5" width="15" height="15" as="geometry" />
        </mxCell>
        <mxCell id="38yjaDSSOYZPgfIshnpb-294" value="" style="ellipse;whiteSpace=wrap;html=1;aspect=fixed;fillColor=#d5e8d4;strokeColor=#82b366;" vertex="1" parent="1">
          <mxGeometry x="1553" y="714.5" width="15" height="15" as="geometry" />
        </mxCell>
        <mxCell id="38yjaDSSOYZPgfIshnpb-295" value="" style="ellipse;whiteSpace=wrap;html=1;aspect=fixed;fillColor=#d5e8d4;strokeColor=#82b366;" vertex="1" parent="1">
          <mxGeometry x="1528.5" y="735.5" width="15" height="15" as="geometry" />
        </mxCell>
        <mxCell id="38yjaDSSOYZPgfIshnpb-296" value="" style="ellipse;whiteSpace=wrap;html=1;aspect=fixed;fillColor=#d5e8d4;strokeColor=#82b366;" vertex="1" parent="1">
          <mxGeometry x="1553" y="743" width="15" height="15" as="geometry" />
        </mxCell>
        <mxCell id="38yjaDSSOYZPgfIshnpb-297" value="" style="ellipse;whiteSpace=wrap;html=1;aspect=fixed;fillColor=#d5e8d4;strokeColor=#82b366;" vertex="1" parent="1">
          <mxGeometry x="1575" y="747" width="15" height="15" as="geometry" />
        </mxCell>
        <mxCell id="38yjaDSSOYZPgfIshnpb-298" value="" style="ellipse;whiteSpace=wrap;html=1;aspect=fixed;fillColor=#d5e8d4;strokeColor=#82b366;" vertex="1" parent="1">
          <mxGeometry x="1594" y="754" width="15" height="15" as="geometry" />
        </mxCell>
        <mxCell id="38yjaDSSOYZPgfIshnpb-299" value="" style="shape=flexArrow;endArrow=classic;html=1;rounded=0;" edge="1" parent="1">
          <mxGeometry width="50" height="50" relative="1" as="geometry">
            <mxPoint x="1314.5" y="675.5699999999999" as="sourcePoint" />
            <mxPoint x="1361.5" y="675.31" as="targetPoint" />
          </mxGeometry>
        </mxCell>
        <mxCell id="38yjaDSSOYZPgfIshnpb-300" value="" style="ellipse;whiteSpace=wrap;html=1;aspect=fixed;" vertex="1" parent="1">
          <mxGeometry x="1077.5" y="417" width="15" height="15" as="geometry" />
        </mxCell>
        <mxCell id="38yjaDSSOYZPgfIshnpb-301" value="" style="ellipse;whiteSpace=wrap;html=1;aspect=fixed;" vertex="1" parent="1">
          <mxGeometry x="1081.5" y="440" width="15" height="15" as="geometry" />
        </mxCell>
        <mxCell id="38yjaDSSOYZPgfIshnpb-302" value="" style="ellipse;whiteSpace=wrap;html=1;aspect=fixed;" vertex="1" parent="1">
          <mxGeometry x="1099.5" y="421" width="15" height="15" as="geometry" />
        </mxCell>
        <mxCell id="38yjaDSSOYZPgfIshnpb-303" value="" style="ellipse;whiteSpace=wrap;html=1;aspect=fixed;" vertex="1" parent="1">
          <mxGeometry x="1103.5" y="446" width="15" height="15" as="geometry" />
        </mxCell>
        <mxCell id="38yjaDSSOYZPgfIshnpb-304" value="" style="ellipse;whiteSpace=wrap;html=1;aspect=fixed;" vertex="1" parent="1">
          <mxGeometry x="1125.5" y="450" width="15" height="15" as="geometry" />
        </mxCell>
        <mxCell id="38yjaDSSOYZPgfIshnpb-305" value="" style="ellipse;whiteSpace=wrap;html=1;aspect=fixed;" vertex="1" parent="1">
          <mxGeometry x="1114.5" y="395" width="15" height="15" as="geometry" />
        </mxCell>
        <mxCell id="38yjaDSSOYZPgfIshnpb-306" value="" style="ellipse;whiteSpace=wrap;html=1;aspect=fixed;fillColor=#f8cecc;strokeColor=#b85450;" vertex="1" parent="1">
          <mxGeometry x="1134.5" y="410" width="15" height="15" as="geometry" />
        </mxCell>
        <mxCell id="38yjaDSSOYZPgfIshnpb-307" value="" style="ellipse;whiteSpace=wrap;html=1;aspect=fixed;" vertex="1" parent="1">
          <mxGeometry x="1064" y="493" width="15" height="15" as="geometry" />
        </mxCell>
        <mxCell id="38yjaDSSOYZPgfIshnpb-308" value="" style="ellipse;whiteSpace=wrap;html=1;aspect=fixed;" vertex="1" parent="1">
          <mxGeometry x="1068" y="518" width="15" height="15" as="geometry" />
        </mxCell>
        <mxCell id="38yjaDSSOYZPgfIshnpb-309" value="" style="ellipse;whiteSpace=wrap;html=1;aspect=fixed;" vertex="1" parent="1">
          <mxGeometry x="1090" y="522" width="15" height="15" as="geometry" />
        </mxCell>
        <mxCell id="38yjaDSSOYZPgfIshnpb-310" value="" style="ellipse;whiteSpace=wrap;html=1;aspect=fixed;" vertex="1" parent="1">
          <mxGeometry x="1079" y="467" width="15" height="15" as="geometry" />
        </mxCell>
        <mxCell id="38yjaDSSOYZPgfIshnpb-311" value="" style="ellipse;whiteSpace=wrap;html=1;aspect=fixed;" vertex="1" parent="1">
          <mxGeometry x="1099" y="482" width="15" height="15" as="geometry" />
        </mxCell>
        <mxCell id="38yjaDSSOYZPgfIshnpb-312" value="" style="ellipse;whiteSpace=wrap;html=1;aspect=fixed;" vertex="1" parent="1">
          <mxGeometry x="1129.5" y="483" width="15" height="15" as="geometry" />
        </mxCell>
        <mxCell id="38yjaDSSOYZPgfIshnpb-313" value="" style="ellipse;whiteSpace=wrap;html=1;aspect=fixed;" vertex="1" parent="1">
          <mxGeometry x="1149.5" y="499" width="15" height="15" as="geometry" />
        </mxCell>
        <mxCell id="38yjaDSSOYZPgfIshnpb-314" value="" style="ellipse;whiteSpace=wrap;html=1;aspect=fixed;" vertex="1" parent="1">
          <mxGeometry x="1171.5" y="503" width="15" height="15" as="geometry" />
        </mxCell>
        <mxCell id="38yjaDSSOYZPgfIshnpb-315" value="" style="ellipse;whiteSpace=wrap;html=1;aspect=fixed;" vertex="1" parent="1">
          <mxGeometry x="1144.5" y="457" width="15" height="15" as="geometry" />
        </mxCell>
        <mxCell id="38yjaDSSOYZPgfIshnpb-316" value="" style="ellipse;whiteSpace=wrap;html=1;aspect=fixed;" vertex="1" parent="1">
          <mxGeometry x="1164.5" y="472" width="15" height="15" as="geometry" />
        </mxCell>
        <mxCell id="38yjaDSSOYZPgfIshnpb-317" value="" style="ellipse;whiteSpace=wrap;html=1;aspect=fixed;" vertex="1" parent="1">
          <mxGeometry x="1213.5" y="396" width="15" height="15" as="geometry" />
        </mxCell>
        <mxCell id="38yjaDSSOYZPgfIshnpb-318" value="" style="ellipse;whiteSpace=wrap;html=1;aspect=fixed;" vertex="1" parent="1">
          <mxGeometry x="1217.5" y="419" width="15" height="15" as="geometry" />
        </mxCell>
        <mxCell id="38yjaDSSOYZPgfIshnpb-319" value="" style="ellipse;whiteSpace=wrap;html=1;aspect=fixed;" vertex="1" parent="1">
          <mxGeometry x="1235.5" y="400" width="15" height="15" as="geometry" />
        </mxCell>
        <mxCell id="38yjaDSSOYZPgfIshnpb-320" value="" style="ellipse;whiteSpace=wrap;html=1;aspect=fixed;" vertex="1" parent="1">
          <mxGeometry x="1239.5" y="425" width="15" height="15" as="geometry" />
        </mxCell>
        <mxCell id="38yjaDSSOYZPgfIshnpb-321" value="" style="ellipse;whiteSpace=wrap;html=1;aspect=fixed;" vertex="1" parent="1">
          <mxGeometry x="1261.5" y="429" width="15" height="15" as="geometry" />
        </mxCell>
        <mxCell id="38yjaDSSOYZPgfIshnpb-322" value="" style="ellipse;whiteSpace=wrap;html=1;aspect=fixed;" vertex="1" parent="1">
          <mxGeometry x="1257.5" y="396" width="15" height="15" as="geometry" />
        </mxCell>
        <mxCell id="38yjaDSSOYZPgfIshnpb-323" value="" style="ellipse;whiteSpace=wrap;html=1;aspect=fixed;" vertex="1" parent="1">
          <mxGeometry x="1222.5" y="452" width="15" height="15" as="geometry" />
        </mxCell>
        <mxCell id="38yjaDSSOYZPgfIshnpb-324" value="" style="ellipse;whiteSpace=wrap;html=1;aspect=fixed;fillColor=#d5e8d4;strokeColor=#82b366;" vertex="1" parent="1">
          <mxGeometry x="1224.75" y="491.25" width="15" height="15" as="geometry" />
        </mxCell>
        <mxCell id="38yjaDSSOYZPgfIshnpb-325" value="" style="ellipse;whiteSpace=wrap;html=1;aspect=fixed;" vertex="1" parent="1">
          <mxGeometry x="1246.75" y="497.25" width="15" height="15" as="geometry" />
        </mxCell>
        <mxCell id="38yjaDSSOYZPgfIshnpb-326" value="" style="ellipse;whiteSpace=wrap;html=1;aspect=fixed;" vertex="1" parent="1">
          <mxGeometry x="1222.25" y="518.25" width="15" height="15" as="geometry" />
        </mxCell>
        <mxCell id="38yjaDSSOYZPgfIshnpb-327" value="" style="ellipse;whiteSpace=wrap;html=1;aspect=fixed;" vertex="1" parent="1">
          <mxGeometry x="1246.75" y="525.75" width="15" height="15" as="geometry" />
        </mxCell>
        <mxCell id="38yjaDSSOYZPgfIshnpb-328" value="" style="ellipse;whiteSpace=wrap;html=1;aspect=fixed;" vertex="1" parent="1">
          <mxGeometry x="1268.75" y="529.75" width="15" height="15" as="geometry" />
        </mxCell>
        <mxCell id="38yjaDSSOYZPgfIshnpb-329" value="" style="ellipse;whiteSpace=wrap;html=1;aspect=fixed;" vertex="1" parent="1">
          <mxGeometry x="1287.75" y="536.75" width="15" height="15" as="geometry" />
        </mxCell>
        <mxCell id="38yjaDSSOYZPgfIshnpb-330" value="" style="ellipse;whiteSpace=wrap;html=1;aspect=fixed;fillColor=#f8cecc;strokeColor=#b85450;" vertex="1" parent="1">
          <mxGeometry x="1387" y="425.5" width="15" height="15" as="geometry" />
        </mxCell>
        <mxCell id="38yjaDSSOYZPgfIshnpb-331" value="" style="ellipse;whiteSpace=wrap;html=1;aspect=fixed;fillColor=#f8cecc;strokeColor=#b85450;" vertex="1" parent="1">
          <mxGeometry x="1391" y="448.5" width="15" height="15" as="geometry" />
        </mxCell>
        <mxCell id="38yjaDSSOYZPgfIshnpb-332" value="" style="ellipse;whiteSpace=wrap;html=1;aspect=fixed;fillColor=#f8cecc;strokeColor=#b85450;" vertex="1" parent="1">
          <mxGeometry x="1409" y="429.5" width="15" height="15" as="geometry" />
        </mxCell>
        <mxCell id="38yjaDSSOYZPgfIshnpb-333" value="" style="ellipse;whiteSpace=wrap;html=1;aspect=fixed;fillColor=#f8cecc;strokeColor=#b85450;" vertex="1" parent="1">
          <mxGeometry x="1413" y="454.5" width="15" height="15" as="geometry" />
        </mxCell>
        <mxCell id="38yjaDSSOYZPgfIshnpb-334" value="" style="ellipse;whiteSpace=wrap;html=1;aspect=fixed;fillColor=#f8cecc;strokeColor=#b85450;" vertex="1" parent="1">
          <mxGeometry x="1435" y="458.5" width="15" height="15" as="geometry" />
        </mxCell>
        <mxCell id="38yjaDSSOYZPgfIshnpb-335" value="" style="ellipse;whiteSpace=wrap;html=1;aspect=fixed;fillColor=#f8cecc;strokeColor=#b85450;" vertex="1" parent="1">
          <mxGeometry x="1424" y="403.5" width="15" height="15" as="geometry" />
        </mxCell>
        <mxCell id="38yjaDSSOYZPgfIshnpb-336" value="" style="ellipse;whiteSpace=wrap;html=1;aspect=fixed;fillColor=#f8cecc;strokeColor=#b85450;" vertex="1" parent="1">
          <mxGeometry x="1444" y="418.5" width="15" height="15" as="geometry" />
        </mxCell>
        <mxCell id="38yjaDSSOYZPgfIshnpb-337" value="" style="ellipse;whiteSpace=wrap;html=1;aspect=fixed;fillColor=#f8cecc;strokeColor=#b85450;" vertex="1" parent="1">
          <mxGeometry x="1373.5" y="501.5" width="15" height="15" as="geometry" />
        </mxCell>
        <mxCell id="38yjaDSSOYZPgfIshnpb-338" value="" style="ellipse;whiteSpace=wrap;html=1;aspect=fixed;fillColor=#f8cecc;strokeColor=#b85450;" vertex="1" parent="1">
          <mxGeometry x="1377.5" y="526.5" width="15" height="15" as="geometry" />
        </mxCell>
        <mxCell id="38yjaDSSOYZPgfIshnpb-339" value="" style="ellipse;whiteSpace=wrap;html=1;aspect=fixed;fillColor=#f8cecc;strokeColor=#b85450;" vertex="1" parent="1">
          <mxGeometry x="1399.5" y="530.5" width="15" height="15" as="geometry" />
        </mxCell>
        <mxCell id="38yjaDSSOYZPgfIshnpb-340" value="" style="ellipse;whiteSpace=wrap;html=1;aspect=fixed;fillColor=#f8cecc;strokeColor=#b85450;" vertex="1" parent="1">
          <mxGeometry x="1388.5" y="475.5" width="15" height="15" as="geometry" />
        </mxCell>
        <mxCell id="38yjaDSSOYZPgfIshnpb-341" value="" style="ellipse;whiteSpace=wrap;html=1;aspect=fixed;fillColor=#f8cecc;strokeColor=#b85450;" vertex="1" parent="1">
          <mxGeometry x="1408.5" y="490.5" width="15" height="15" as="geometry" />
        </mxCell>
        <mxCell id="38yjaDSSOYZPgfIshnpb-342" value="" style="ellipse;whiteSpace=wrap;html=1;aspect=fixed;fillColor=#f8cecc;strokeColor=#b85450;" vertex="1" parent="1">
          <mxGeometry x="1439" y="491.5" width="15" height="15" as="geometry" />
        </mxCell>
        <mxCell id="38yjaDSSOYZPgfIshnpb-343" value="" style="ellipse;whiteSpace=wrap;html=1;aspect=fixed;fillColor=#d5e8d4;strokeColor=#82b366;" vertex="1" parent="1">
          <mxGeometry x="1459" y="507.5" width="15" height="15" as="geometry" />
        </mxCell>
        <mxCell id="38yjaDSSOYZPgfIshnpb-344" value="" style="ellipse;whiteSpace=wrap;html=1;aspect=fixed;fillColor=#d5e8d4;strokeColor=#82b366;" vertex="1" parent="1">
          <mxGeometry x="1481" y="511.5" width="15" height="15" as="geometry" />
        </mxCell>
        <mxCell id="38yjaDSSOYZPgfIshnpb-345" value="" style="ellipse;whiteSpace=wrap;html=1;aspect=fixed;fillColor=#f8cecc;strokeColor=#b85450;" vertex="1" parent="1">
          <mxGeometry x="1454" y="465.5" width="15" height="15" as="geometry" />
        </mxCell>
        <mxCell id="38yjaDSSOYZPgfIshnpb-346" value="" style="ellipse;whiteSpace=wrap;html=1;aspect=fixed;fillColor=#d5e8d4;strokeColor=#82b366;" vertex="1" parent="1">
          <mxGeometry x="1474" y="480.5" width="15" height="15" as="geometry" />
        </mxCell>
        <mxCell id="38yjaDSSOYZPgfIshnpb-347" value="" style="ellipse;whiteSpace=wrap;html=1;aspect=fixed;fillColor=#f8cecc;strokeColor=#b85450;" vertex="1" parent="1">
          <mxGeometry x="1534.75" y="402" width="15" height="15" as="geometry" />
        </mxCell>
        <mxCell id="38yjaDSSOYZPgfIshnpb-348" value="" style="ellipse;whiteSpace=wrap;html=1;aspect=fixed;fillColor=#f8cecc;strokeColor=#b85450;" vertex="1" parent="1">
          <mxGeometry x="1538.75" y="425" width="15" height="15" as="geometry" />
        </mxCell>
        <mxCell id="38yjaDSSOYZPgfIshnpb-349" value="" style="ellipse;whiteSpace=wrap;html=1;aspect=fixed;fillColor=#f8cecc;strokeColor=#b85450;" vertex="1" parent="1">
          <mxGeometry x="1556.75" y="406" width="15" height="15" as="geometry" />
        </mxCell>
        <mxCell id="38yjaDSSOYZPgfIshnpb-350" value="" style="ellipse;whiteSpace=wrap;html=1;aspect=fixed;fillColor=#d5e8d4;strokeColor=#82b366;" vertex="1" parent="1">
          <mxGeometry x="1560.75" y="431" width="15" height="15" as="geometry" />
        </mxCell>
        <mxCell id="38yjaDSSOYZPgfIshnpb-351" value="" style="ellipse;whiteSpace=wrap;html=1;aspect=fixed;fillColor=#d5e8d4;strokeColor=#82b366;" vertex="1" parent="1">
          <mxGeometry x="1582.75" y="435" width="15" height="15" as="geometry" />
        </mxCell>
        <mxCell id="38yjaDSSOYZPgfIshnpb-352" value="" style="ellipse;whiteSpace=wrap;html=1;aspect=fixed;fillColor=#f8cecc;strokeColor=#b85450;" vertex="1" parent="1">
          <mxGeometry x="1578.75" y="402" width="15" height="15" as="geometry" />
        </mxCell>
        <mxCell id="38yjaDSSOYZPgfIshnpb-353" value="" style="ellipse;whiteSpace=wrap;html=1;aspect=fixed;fillColor=#d5e8d4;strokeColor=#82b366;" vertex="1" parent="1">
          <mxGeometry x="1538" y="458.5" width="15" height="15" as="geometry" />
        </mxCell>
        <mxCell id="38yjaDSSOYZPgfIshnpb-354" value="" style="ellipse;whiteSpace=wrap;html=1;aspect=fixed;fillColor=#d5e8d4;strokeColor=#82b366;" vertex="1" parent="1">
          <mxGeometry x="1531" y="504.5" width="15" height="15" as="geometry" />
        </mxCell>
        <mxCell id="38yjaDSSOYZPgfIshnpb-355" value="" style="ellipse;whiteSpace=wrap;html=1;aspect=fixed;fillColor=#d5e8d4;strokeColor=#82b366;" vertex="1" parent="1">
          <mxGeometry x="1553" y="510.5" width="15" height="15" as="geometry" />
        </mxCell>
        <mxCell id="38yjaDSSOYZPgfIshnpb-356" value="" style="ellipse;whiteSpace=wrap;html=1;aspect=fixed;fillColor=#d5e8d4;strokeColor=#82b366;" vertex="1" parent="1">
          <mxGeometry x="1528.5" y="531.5" width="15" height="15" as="geometry" />
        </mxCell>
        <mxCell id="38yjaDSSOYZPgfIshnpb-357" value="" style="ellipse;whiteSpace=wrap;html=1;aspect=fixed;fillColor=#d5e8d4;strokeColor=#82b366;" vertex="1" parent="1">
          <mxGeometry x="1553" y="539" width="15" height="15" as="geometry" />
        </mxCell>
        <mxCell id="38yjaDSSOYZPgfIshnpb-358" value="" style="ellipse;whiteSpace=wrap;html=1;aspect=fixed;fillColor=#d5e8d4;strokeColor=#82b366;" vertex="1" parent="1">
          <mxGeometry x="1575" y="543" width="15" height="15" as="geometry" />
        </mxCell>
        <mxCell id="38yjaDSSOYZPgfIshnpb-359" value="" style="ellipse;whiteSpace=wrap;html=1;aspect=fixed;fillColor=#d5e8d4;strokeColor=#82b366;" vertex="1" parent="1">
          <mxGeometry x="1594" y="550" width="15" height="15" as="geometry" />
        </mxCell>
        <mxCell id="38yjaDSSOYZPgfIshnpb-360" value="" style="shape=flexArrow;endArrow=classic;html=1;rounded=0;" edge="1" parent="1">
          <mxGeometry width="50" height="50" relative="1" as="geometry">
            <mxPoint x="1314.5" y="471.56999999999994" as="sourcePoint" />
            <mxPoint x="1361.5" y="471.30999999999995" as="targetPoint" />
          </mxGeometry>
        </mxCell>
        <mxCell id="38yjaDSSOYZPgfIshnpb-361" value="" style="ellipse;whiteSpace=wrap;html=1;aspect=fixed;" vertex="1" parent="1">
          <mxGeometry x="1077.5" y="209.25" width="15" height="15" as="geometry" />
        </mxCell>
        <mxCell id="38yjaDSSOYZPgfIshnpb-362" value="" style="ellipse;whiteSpace=wrap;html=1;aspect=fixed;" vertex="1" parent="1">
          <mxGeometry x="1081.5" y="232.25" width="15" height="15" as="geometry" />
        </mxCell>
        <mxCell id="38yjaDSSOYZPgfIshnpb-363" value="" style="ellipse;whiteSpace=wrap;html=1;aspect=fixed;" vertex="1" parent="1">
          <mxGeometry x="1099.5" y="213.25" width="15" height="15" as="geometry" />
        </mxCell>
        <mxCell id="38yjaDSSOYZPgfIshnpb-364" value="" style="ellipse;whiteSpace=wrap;html=1;aspect=fixed;" vertex="1" parent="1">
          <mxGeometry x="1103.5" y="238.25" width="15" height="15" as="geometry" />
        </mxCell>
        <mxCell id="38yjaDSSOYZPgfIshnpb-365" value="" style="ellipse;whiteSpace=wrap;html=1;aspect=fixed;" vertex="1" parent="1">
          <mxGeometry x="1125.5" y="242.25" width="15" height="15" as="geometry" />
        </mxCell>
        <mxCell id="38yjaDSSOYZPgfIshnpb-366" value="" style="ellipse;whiteSpace=wrap;html=1;aspect=fixed;" vertex="1" parent="1">
          <mxGeometry x="1114.5" y="187.25" width="15" height="15" as="geometry" />
        </mxCell>
        <mxCell id="38yjaDSSOYZPgfIshnpb-367" value="" style="ellipse;whiteSpace=wrap;html=1;aspect=fixed;" vertex="1" parent="1">
          <mxGeometry x="1134.5" y="202.25" width="15" height="15" as="geometry" />
        </mxCell>
        <mxCell id="38yjaDSSOYZPgfIshnpb-368" value="" style="ellipse;whiteSpace=wrap;html=1;aspect=fixed;" vertex="1" parent="1">
          <mxGeometry x="1064" y="285.25" width="15" height="15" as="geometry" />
        </mxCell>
        <mxCell id="38yjaDSSOYZPgfIshnpb-369" value="" style="ellipse;whiteSpace=wrap;html=1;aspect=fixed;fillColor=#f8cecc;strokeColor=#b85450;" vertex="1" parent="1">
          <mxGeometry x="1068" y="310.25" width="15" height="15" as="geometry" />
        </mxCell>
        <mxCell id="38yjaDSSOYZPgfIshnpb-370" value="" style="ellipse;whiteSpace=wrap;html=1;aspect=fixed;" vertex="1" parent="1">
          <mxGeometry x="1090" y="314.25" width="15" height="15" as="geometry" />
        </mxCell>
        <mxCell id="38yjaDSSOYZPgfIshnpb-371" value="" style="ellipse;whiteSpace=wrap;html=1;aspect=fixed;" vertex="1" parent="1">
          <mxGeometry x="1079" y="259.25" width="15" height="15" as="geometry" />
        </mxCell>
        <mxCell id="38yjaDSSOYZPgfIshnpb-372" value="" style="ellipse;whiteSpace=wrap;html=1;aspect=fixed;" vertex="1" parent="1">
          <mxGeometry x="1099" y="274.25" width="15" height="15" as="geometry" />
        </mxCell>
        <mxCell id="38yjaDSSOYZPgfIshnpb-373" value="" style="ellipse;whiteSpace=wrap;html=1;aspect=fixed;" vertex="1" parent="1">
          <mxGeometry x="1129.5" y="275.25" width="15" height="15" as="geometry" />
        </mxCell>
        <mxCell id="38yjaDSSOYZPgfIshnpb-374" value="" style="ellipse;whiteSpace=wrap;html=1;aspect=fixed;" vertex="1" parent="1">
          <mxGeometry x="1149.5" y="291.25" width="15" height="15" as="geometry" />
        </mxCell>
        <mxCell id="38yjaDSSOYZPgfIshnpb-375" value="" style="ellipse;whiteSpace=wrap;html=1;aspect=fixed;" vertex="1" parent="1">
          <mxGeometry x="1171.5" y="295.25" width="15" height="15" as="geometry" />
        </mxCell>
        <mxCell id="38yjaDSSOYZPgfIshnpb-376" value="" style="ellipse;whiteSpace=wrap;html=1;aspect=fixed;" vertex="1" parent="1">
          <mxGeometry x="1144.5" y="249.25" width="15" height="15" as="geometry" />
        </mxCell>
        <mxCell id="38yjaDSSOYZPgfIshnpb-377" value="" style="ellipse;whiteSpace=wrap;html=1;aspect=fixed;" vertex="1" parent="1">
          <mxGeometry x="1164.5" y="264.25" width="15" height="15" as="geometry" />
        </mxCell>
        <mxCell id="38yjaDSSOYZPgfIshnpb-378" value="" style="ellipse;whiteSpace=wrap;html=1;aspect=fixed;" vertex="1" parent="1">
          <mxGeometry x="1213.5" y="188.25" width="15" height="15" as="geometry" />
        </mxCell>
        <mxCell id="38yjaDSSOYZPgfIshnpb-379" value="" style="ellipse;whiteSpace=wrap;html=1;aspect=fixed;" vertex="1" parent="1">
          <mxGeometry x="1217.5" y="211.25" width="15" height="15" as="geometry" />
        </mxCell>
        <mxCell id="38yjaDSSOYZPgfIshnpb-380" value="" style="ellipse;whiteSpace=wrap;html=1;aspect=fixed;" vertex="1" parent="1">
          <mxGeometry x="1235.5" y="192.25" width="15" height="15" as="geometry" />
        </mxCell>
        <mxCell id="38yjaDSSOYZPgfIshnpb-381" value="" style="ellipse;whiteSpace=wrap;html=1;aspect=fixed;" vertex="1" parent="1">
          <mxGeometry x="1239.5" y="217.25" width="15" height="15" as="geometry" />
        </mxCell>
        <mxCell id="38yjaDSSOYZPgfIshnpb-382" value="" style="ellipse;whiteSpace=wrap;html=1;aspect=fixed;" vertex="1" parent="1">
          <mxGeometry x="1261.5" y="221.25" width="15" height="15" as="geometry" />
        </mxCell>
        <mxCell id="38yjaDSSOYZPgfIshnpb-383" value="" style="ellipse;whiteSpace=wrap;html=1;aspect=fixed;" vertex="1" parent="1">
          <mxGeometry x="1257.5" y="188.25" width="15" height="15" as="geometry" />
        </mxCell>
        <mxCell id="38yjaDSSOYZPgfIshnpb-384" value="" style="ellipse;whiteSpace=wrap;html=1;aspect=fixed;" vertex="1" parent="1">
          <mxGeometry x="1222.5" y="244.25" width="15" height="15" as="geometry" />
        </mxCell>
        <mxCell id="38yjaDSSOYZPgfIshnpb-385" value="" style="ellipse;whiteSpace=wrap;html=1;aspect=fixed;" vertex="1" parent="1">
          <mxGeometry x="1224.75" y="283.5" width="15" height="15" as="geometry" />
        </mxCell>
        <mxCell id="38yjaDSSOYZPgfIshnpb-386" value="" style="ellipse;whiteSpace=wrap;html=1;aspect=fixed;" vertex="1" parent="1">
          <mxGeometry x="1246.75" y="289.5" width="15" height="15" as="geometry" />
        </mxCell>
        <mxCell id="38yjaDSSOYZPgfIshnpb-387" value="" style="ellipse;whiteSpace=wrap;html=1;aspect=fixed;" vertex="1" parent="1">
          <mxGeometry x="1222.25" y="310.5" width="15" height="15" as="geometry" />
        </mxCell>
        <mxCell id="38yjaDSSOYZPgfIshnpb-388" value="" style="ellipse;whiteSpace=wrap;html=1;aspect=fixed;" vertex="1" parent="1">
          <mxGeometry x="1246.75" y="318" width="15" height="15" as="geometry" />
        </mxCell>
        <mxCell id="38yjaDSSOYZPgfIshnpb-389" value="" style="ellipse;whiteSpace=wrap;html=1;aspect=fixed;" vertex="1" parent="1">
          <mxGeometry x="1268.75" y="322" width="15" height="15" as="geometry" />
        </mxCell>
        <mxCell id="38yjaDSSOYZPgfIshnpb-390" value="" style="ellipse;whiteSpace=wrap;html=1;aspect=fixed;" vertex="1" parent="1">
          <mxGeometry x="1287.75" y="329" width="15" height="15" as="geometry" />
        </mxCell>
        <mxCell id="38yjaDSSOYZPgfIshnpb-391" value="" style="ellipse;whiteSpace=wrap;html=1;aspect=fixed;fillColor=#f8cecc;strokeColor=#b85450;" vertex="1" parent="1">
          <mxGeometry x="1387" y="217.75" width="15" height="15" as="geometry" />
        </mxCell>
        <mxCell id="38yjaDSSOYZPgfIshnpb-392" value="" style="ellipse;whiteSpace=wrap;html=1;aspect=fixed;fillColor=#f8cecc;strokeColor=#b85450;" vertex="1" parent="1">
          <mxGeometry x="1391" y="240.75" width="15" height="15" as="geometry" />
        </mxCell>
        <mxCell id="38yjaDSSOYZPgfIshnpb-393" value="" style="ellipse;whiteSpace=wrap;html=1;aspect=fixed;fillColor=#f8cecc;strokeColor=#b85450;" vertex="1" parent="1">
          <mxGeometry x="1409" y="221.75" width="15" height="15" as="geometry" />
        </mxCell>
        <mxCell id="38yjaDSSOYZPgfIshnpb-394" value="" style="ellipse;whiteSpace=wrap;html=1;aspect=fixed;fillColor=#f8cecc;strokeColor=#b85450;" vertex="1" parent="1">
          <mxGeometry x="1413" y="246.75" width="15" height="15" as="geometry" />
        </mxCell>
        <mxCell id="38yjaDSSOYZPgfIshnpb-395" value="" style="ellipse;whiteSpace=wrap;html=1;aspect=fixed;fillColor=#f8cecc;strokeColor=#b85450;" vertex="1" parent="1">
          <mxGeometry x="1435" y="250.75" width="15" height="15" as="geometry" />
        </mxCell>
        <mxCell id="38yjaDSSOYZPgfIshnpb-396" value="" style="ellipse;whiteSpace=wrap;html=1;aspect=fixed;fillColor=#f8cecc;strokeColor=#b85450;" vertex="1" parent="1">
          <mxGeometry x="1424" y="195.75" width="15" height="15" as="geometry" />
        </mxCell>
        <mxCell id="38yjaDSSOYZPgfIshnpb-397" value="" style="ellipse;whiteSpace=wrap;html=1;aspect=fixed;fillColor=#f8cecc;strokeColor=#b85450;" vertex="1" parent="1">
          <mxGeometry x="1444" y="210.75" width="15" height="15" as="geometry" />
        </mxCell>
        <mxCell id="38yjaDSSOYZPgfIshnpb-398" value="" style="ellipse;whiteSpace=wrap;html=1;aspect=fixed;fillColor=#f8cecc;strokeColor=#b85450;" vertex="1" parent="1">
          <mxGeometry x="1373.5" y="293.75" width="15" height="15" as="geometry" />
        </mxCell>
        <mxCell id="38yjaDSSOYZPgfIshnpb-399" value="" style="ellipse;whiteSpace=wrap;html=1;aspect=fixed;fillColor=#f8cecc;strokeColor=#b85450;" vertex="1" parent="1">
          <mxGeometry x="1377.5" y="318.75" width="15" height="15" as="geometry" />
        </mxCell>
        <mxCell id="38yjaDSSOYZPgfIshnpb-400" value="" style="ellipse;whiteSpace=wrap;html=1;aspect=fixed;fillColor=#f8cecc;strokeColor=#b85450;" vertex="1" parent="1">
          <mxGeometry x="1399.5" y="322.75" width="15" height="15" as="geometry" />
        </mxCell>
        <mxCell id="38yjaDSSOYZPgfIshnpb-401" value="" style="ellipse;whiteSpace=wrap;html=1;aspect=fixed;fillColor=#f8cecc;strokeColor=#b85450;" vertex="1" parent="1">
          <mxGeometry x="1388.5" y="267.75" width="15" height="15" as="geometry" />
        </mxCell>
        <mxCell id="38yjaDSSOYZPgfIshnpb-402" value="" style="ellipse;whiteSpace=wrap;html=1;aspect=fixed;fillColor=#f8cecc;strokeColor=#b85450;" vertex="1" parent="1">
          <mxGeometry x="1408.5" y="282.75" width="15" height="15" as="geometry" />
        </mxCell>
        <mxCell id="38yjaDSSOYZPgfIshnpb-403" value="" style="ellipse;whiteSpace=wrap;html=1;aspect=fixed;fillColor=#f8cecc;strokeColor=#b85450;" vertex="1" parent="1">
          <mxGeometry x="1439" y="283.75" width="15" height="15" as="geometry" />
        </mxCell>
        <mxCell id="38yjaDSSOYZPgfIshnpb-404" value="" style="ellipse;whiteSpace=wrap;html=1;aspect=fixed;fillColor=#f8cecc;strokeColor=#b85450;" vertex="1" parent="1">
          <mxGeometry x="1459" y="299.75" width="15" height="15" as="geometry" />
        </mxCell>
        <mxCell id="38yjaDSSOYZPgfIshnpb-405" value="" style="ellipse;whiteSpace=wrap;html=1;aspect=fixed;fillColor=#f8cecc;strokeColor=#b85450;" vertex="1" parent="1">
          <mxGeometry x="1481" y="303.75" width="15" height="15" as="geometry" />
        </mxCell>
        <mxCell id="38yjaDSSOYZPgfIshnpb-406" value="" style="ellipse;whiteSpace=wrap;html=1;aspect=fixed;fillColor=#f8cecc;strokeColor=#b85450;" vertex="1" parent="1">
          <mxGeometry x="1454" y="257.75" width="15" height="15" as="geometry" />
        </mxCell>
        <mxCell id="38yjaDSSOYZPgfIshnpb-407" value="" style="ellipse;whiteSpace=wrap;html=1;aspect=fixed;fillColor=#f8cecc;strokeColor=#b85450;" vertex="1" parent="1">
          <mxGeometry x="1474" y="272.75" width="15" height="15" as="geometry" />
        </mxCell>
        <mxCell id="38yjaDSSOYZPgfIshnpb-408" value="" style="ellipse;whiteSpace=wrap;html=1;aspect=fixed;fillColor=#f8cecc;strokeColor=#b85450;" vertex="1" parent="1">
          <mxGeometry x="1534.75" y="194.25" width="15" height="15" as="geometry" />
        </mxCell>
        <mxCell id="38yjaDSSOYZPgfIshnpb-409" value="" style="ellipse;whiteSpace=wrap;html=1;aspect=fixed;fillColor=#f8cecc;strokeColor=#b85450;" vertex="1" parent="1">
          <mxGeometry x="1538.75" y="217.25" width="15" height="15" as="geometry" />
        </mxCell>
        <mxCell id="38yjaDSSOYZPgfIshnpb-410" value="" style="ellipse;whiteSpace=wrap;html=1;aspect=fixed;fillColor=#f8cecc;strokeColor=#b85450;" vertex="1" parent="1">
          <mxGeometry x="1556.75" y="198.25" width="15" height="15" as="geometry" />
        </mxCell>
        <mxCell id="38yjaDSSOYZPgfIshnpb-411" value="" style="ellipse;whiteSpace=wrap;html=1;aspect=fixed;fillColor=#f8cecc;strokeColor=#b85450;" vertex="1" parent="1">
          <mxGeometry x="1560.75" y="223.25" width="15" height="15" as="geometry" />
        </mxCell>
        <mxCell id="38yjaDSSOYZPgfIshnpb-412" value="" style="ellipse;whiteSpace=wrap;html=1;aspect=fixed;fillColor=#f8cecc;strokeColor=#b85450;" vertex="1" parent="1">
          <mxGeometry x="1582.75" y="227.25" width="15" height="15" as="geometry" />
        </mxCell>
        <mxCell id="38yjaDSSOYZPgfIshnpb-413" value="" style="ellipse;whiteSpace=wrap;html=1;aspect=fixed;fillColor=#f8cecc;strokeColor=#b85450;" vertex="1" parent="1">
          <mxGeometry x="1578.75" y="194.25" width="15" height="15" as="geometry" />
        </mxCell>
        <mxCell id="38yjaDSSOYZPgfIshnpb-414" value="" style="ellipse;whiteSpace=wrap;html=1;aspect=fixed;fillColor=#f8cecc;strokeColor=#b85450;" vertex="1" parent="1">
          <mxGeometry x="1538" y="250.75" width="15" height="15" as="geometry" />
        </mxCell>
        <mxCell id="38yjaDSSOYZPgfIshnpb-415" value="" style="ellipse;whiteSpace=wrap;html=1;aspect=fixed;fillColor=#f8cecc;strokeColor=#b85450;" vertex="1" parent="1">
          <mxGeometry x="1531" y="296.75" width="15" height="15" as="geometry" />
        </mxCell>
        <mxCell id="38yjaDSSOYZPgfIshnpb-416" value="" style="ellipse;whiteSpace=wrap;html=1;aspect=fixed;fillColor=#f8cecc;strokeColor=#b85450;" vertex="1" parent="1">
          <mxGeometry x="1553" y="302.75" width="15" height="15" as="geometry" />
        </mxCell>
        <mxCell id="38yjaDSSOYZPgfIshnpb-417" value="" style="ellipse;whiteSpace=wrap;html=1;aspect=fixed;fillColor=#f8cecc;strokeColor=#b85450;" vertex="1" parent="1">
          <mxGeometry x="1528.5" y="323.75" width="15" height="15" as="geometry" />
        </mxCell>
        <mxCell id="38yjaDSSOYZPgfIshnpb-418" value="" style="ellipse;whiteSpace=wrap;html=1;aspect=fixed;fillColor=#f8cecc;strokeColor=#b85450;" vertex="1" parent="1">
          <mxGeometry x="1553" y="331.25" width="15" height="15" as="geometry" />
        </mxCell>
        <mxCell id="38yjaDSSOYZPgfIshnpb-419" value="" style="ellipse;whiteSpace=wrap;html=1;aspect=fixed;fillColor=#f8cecc;strokeColor=#b85450;" vertex="1" parent="1">
          <mxGeometry x="1575" y="335.25" width="15" height="15" as="geometry" />
        </mxCell>
        <mxCell id="38yjaDSSOYZPgfIshnpb-420" value="" style="ellipse;whiteSpace=wrap;html=1;aspect=fixed;fillColor=#f8cecc;strokeColor=#b85450;" vertex="1" parent="1">
          <mxGeometry x="1594" y="342.25" width="15" height="15" as="geometry" />
        </mxCell>
        <mxCell id="38yjaDSSOYZPgfIshnpb-421" value="" style="shape=flexArrow;endArrow=classic;html=1;rounded=0;" edge="1" parent="1">
          <mxGeometry width="50" height="50" relative="1" as="geometry">
            <mxPoint x="1314.5" y="263.81999999999994" as="sourcePoint" />
            <mxPoint x="1361.5" y="263.55999999999995" as="targetPoint" />
          </mxGeometry>
        </mxCell>
        <mxCell id="38yjaDSSOYZPgfIshnpb-422" value="" style="ellipse;whiteSpace=wrap;html=1;aspect=fixed;" vertex="1" parent="1">
          <mxGeometry x="1077.5" y="818" width="15" height="15" as="geometry" />
        </mxCell>
        <mxCell id="38yjaDSSOYZPgfIshnpb-423" value="" style="ellipse;whiteSpace=wrap;html=1;aspect=fixed;" vertex="1" parent="1">
          <mxGeometry x="1081.5" y="841" width="15" height="15" as="geometry" />
        </mxCell>
        <mxCell id="38yjaDSSOYZPgfIshnpb-424" value="" style="ellipse;whiteSpace=wrap;html=1;aspect=fixed;fillColor=#d5e8d4;strokeColor=#82b366;" vertex="1" parent="1">
          <mxGeometry x="1099.5" y="822" width="15" height="15" as="geometry" />
        </mxCell>
        <mxCell id="38yjaDSSOYZPgfIshnpb-425" value="" style="ellipse;whiteSpace=wrap;html=1;aspect=fixed;" vertex="1" parent="1">
          <mxGeometry x="1103.5" y="847" width="15" height="15" as="geometry" />
        </mxCell>
        <mxCell id="38yjaDSSOYZPgfIshnpb-426" value="" style="ellipse;whiteSpace=wrap;html=1;aspect=fixed;" vertex="1" parent="1">
          <mxGeometry x="1125.5" y="851" width="15" height="15" as="geometry" />
        </mxCell>
        <mxCell id="38yjaDSSOYZPgfIshnpb-427" value="" style="ellipse;whiteSpace=wrap;html=1;aspect=fixed;" vertex="1" parent="1">
          <mxGeometry x="1114.5" y="796" width="15" height="15" as="geometry" />
        </mxCell>
        <mxCell id="38yjaDSSOYZPgfIshnpb-428" value="" style="ellipse;whiteSpace=wrap;html=1;aspect=fixed;" vertex="1" parent="1">
          <mxGeometry x="1134.5" y="811" width="15" height="15" as="geometry" />
        </mxCell>
        <mxCell id="38yjaDSSOYZPgfIshnpb-429" value="" style="ellipse;whiteSpace=wrap;html=1;aspect=fixed;" vertex="1" parent="1">
          <mxGeometry x="1064" y="894" width="15" height="15" as="geometry" />
        </mxCell>
        <mxCell id="38yjaDSSOYZPgfIshnpb-430" value="" style="ellipse;whiteSpace=wrap;html=1;aspect=fixed;fillColor=#f8cecc;strokeColor=#b85450;" vertex="1" parent="1">
          <mxGeometry x="1068" y="919" width="15" height="15" as="geometry" />
        </mxCell>
        <mxCell id="38yjaDSSOYZPgfIshnpb-431" value="" style="ellipse;whiteSpace=wrap;html=1;aspect=fixed;" vertex="1" parent="1">
          <mxGeometry x="1090" y="923" width="15" height="15" as="geometry" />
        </mxCell>
        <mxCell id="38yjaDSSOYZPgfIshnpb-432" value="" style="ellipse;whiteSpace=wrap;html=1;aspect=fixed;" vertex="1" parent="1">
          <mxGeometry x="1079" y="868" width="15" height="15" as="geometry" />
        </mxCell>
        <mxCell id="38yjaDSSOYZPgfIshnpb-433" value="" style="ellipse;whiteSpace=wrap;html=1;aspect=fixed;" vertex="1" parent="1">
          <mxGeometry x="1099" y="883" width="15" height="15" as="geometry" />
        </mxCell>
        <mxCell id="38yjaDSSOYZPgfIshnpb-434" value="" style="ellipse;whiteSpace=wrap;html=1;aspect=fixed;" vertex="1" parent="1">
          <mxGeometry x="1129.5" y="884" width="15" height="15" as="geometry" />
        </mxCell>
        <mxCell id="38yjaDSSOYZPgfIshnpb-435" value="" style="ellipse;whiteSpace=wrap;html=1;aspect=fixed;" vertex="1" parent="1">
          <mxGeometry x="1149.5" y="900" width="15" height="15" as="geometry" />
        </mxCell>
        <mxCell id="38yjaDSSOYZPgfIshnpb-436" value="" style="ellipse;whiteSpace=wrap;html=1;aspect=fixed;" vertex="1" parent="1">
          <mxGeometry x="1171.5" y="904" width="15" height="15" as="geometry" />
        </mxCell>
        <mxCell id="38yjaDSSOYZPgfIshnpb-437" value="" style="ellipse;whiteSpace=wrap;html=1;aspect=fixed;" vertex="1" parent="1">
          <mxGeometry x="1144.5" y="858" width="15" height="15" as="geometry" />
        </mxCell>
        <mxCell id="38yjaDSSOYZPgfIshnpb-438" value="" style="ellipse;whiteSpace=wrap;html=1;aspect=fixed;" vertex="1" parent="1">
          <mxGeometry x="1164.5" y="873" width="15" height="15" as="geometry" />
        </mxCell>
        <mxCell id="38yjaDSSOYZPgfIshnpb-439" value="" style="ellipse;whiteSpace=wrap;html=1;aspect=fixed;" vertex="1" parent="1">
          <mxGeometry x="1213.5" y="797" width="15" height="15" as="geometry" />
        </mxCell>
        <mxCell id="38yjaDSSOYZPgfIshnpb-440" value="" style="ellipse;whiteSpace=wrap;html=1;aspect=fixed;" vertex="1" parent="1">
          <mxGeometry x="1217.5" y="820" width="15" height="15" as="geometry" />
        </mxCell>
        <mxCell id="38yjaDSSOYZPgfIshnpb-441" value="" style="ellipse;whiteSpace=wrap;html=1;aspect=fixed;" vertex="1" parent="1">
          <mxGeometry x="1235.5" y="801" width="15" height="15" as="geometry" />
        </mxCell>
        <mxCell id="38yjaDSSOYZPgfIshnpb-442" value="" style="ellipse;whiteSpace=wrap;html=1;aspect=fixed;" vertex="1" parent="1">
          <mxGeometry x="1239.5" y="826" width="15" height="15" as="geometry" />
        </mxCell>
        <mxCell id="38yjaDSSOYZPgfIshnpb-443" value="" style="ellipse;whiteSpace=wrap;html=1;aspect=fixed;fillColor=#dae8fc;strokeColor=#6c8ebf;" vertex="1" parent="1">
          <mxGeometry x="1261.5" y="830" width="15" height="15" as="geometry" />
        </mxCell>
        <mxCell id="38yjaDSSOYZPgfIshnpb-444" value="" style="ellipse;whiteSpace=wrap;html=1;aspect=fixed;" vertex="1" parent="1">
          <mxGeometry x="1257.5" y="797" width="15" height="15" as="geometry" />
        </mxCell>
        <mxCell id="38yjaDSSOYZPgfIshnpb-445" value="" style="ellipse;whiteSpace=wrap;html=1;aspect=fixed;" vertex="1" parent="1">
          <mxGeometry x="1222.5" y="853" width="15" height="15" as="geometry" />
        </mxCell>
        <mxCell id="38yjaDSSOYZPgfIshnpb-446" value="" style="ellipse;whiteSpace=wrap;html=1;aspect=fixed;" vertex="1" parent="1">
          <mxGeometry x="1224.75" y="892.25" width="15" height="15" as="geometry" />
        </mxCell>
        <mxCell id="38yjaDSSOYZPgfIshnpb-447" value="" style="ellipse;whiteSpace=wrap;html=1;aspect=fixed;" vertex="1" parent="1">
          <mxGeometry x="1246.75" y="898.25" width="15" height="15" as="geometry" />
        </mxCell>
        <mxCell id="38yjaDSSOYZPgfIshnpb-448" value="" style="ellipse;whiteSpace=wrap;html=1;aspect=fixed;" vertex="1" parent="1">
          <mxGeometry x="1222.25" y="919.25" width="15" height="15" as="geometry" />
        </mxCell>
        <mxCell id="38yjaDSSOYZPgfIshnpb-449" value="" style="ellipse;whiteSpace=wrap;html=1;aspect=fixed;" vertex="1" parent="1">
          <mxGeometry x="1246.75" y="926.75" width="15" height="15" as="geometry" />
        </mxCell>
        <mxCell id="38yjaDSSOYZPgfIshnpb-450" value="" style="ellipse;whiteSpace=wrap;html=1;aspect=fixed;fillColor=#ffe6cc;strokeColor=#d79b00;" vertex="1" parent="1">
          <mxGeometry x="1268.75" y="930.75" width="15" height="15" as="geometry" />
        </mxCell>
        <mxCell id="38yjaDSSOYZPgfIshnpb-451" value="" style="ellipse;whiteSpace=wrap;html=1;aspect=fixed;" vertex="1" parent="1">
          <mxGeometry x="1287.75" y="937.75" width="15" height="15" as="geometry" />
        </mxCell>
        <mxCell id="38yjaDSSOYZPgfIshnpb-452" value="" style="ellipse;whiteSpace=wrap;html=1;aspect=fixed;fillColor=#d5e8d4;strokeColor=#82b366;" vertex="1" parent="1">
          <mxGeometry x="1387" y="826.5" width="15" height="15" as="geometry" />
        </mxCell>
        <mxCell id="38yjaDSSOYZPgfIshnpb-453" value="" style="ellipse;whiteSpace=wrap;html=1;aspect=fixed;fillColor=#d5e8d4;strokeColor=#82b366;" vertex="1" parent="1">
          <mxGeometry x="1391" y="849.5" width="15" height="15" as="geometry" />
        </mxCell>
        <mxCell id="38yjaDSSOYZPgfIshnpb-454" value="" style="ellipse;whiteSpace=wrap;html=1;aspect=fixed;fillColor=#d5e8d4;strokeColor=#82b366;" vertex="1" parent="1">
          <mxGeometry x="1409" y="830.5" width="15" height="15" as="geometry" />
        </mxCell>
        <mxCell id="38yjaDSSOYZPgfIshnpb-455" value="" style="ellipse;whiteSpace=wrap;html=1;aspect=fixed;fillColor=#d5e8d4;strokeColor=#82b366;" vertex="1" parent="1">
          <mxGeometry x="1413" y="855.5" width="15" height="15" as="geometry" />
        </mxCell>
        <mxCell id="38yjaDSSOYZPgfIshnpb-456" value="" style="ellipse;whiteSpace=wrap;html=1;aspect=fixed;fillColor=#d5e8d4;strokeColor=#82b366;" vertex="1" parent="1">
          <mxGeometry x="1435" y="859.5" width="15" height="15" as="geometry" />
        </mxCell>
        <mxCell id="38yjaDSSOYZPgfIshnpb-457" value="" style="ellipse;whiteSpace=wrap;html=1;aspect=fixed;fillColor=#d5e8d4;strokeColor=#82b366;" vertex="1" parent="1">
          <mxGeometry x="1424" y="804.5" width="15" height="15" as="geometry" />
        </mxCell>
        <mxCell id="38yjaDSSOYZPgfIshnpb-458" value="" style="ellipse;whiteSpace=wrap;html=1;aspect=fixed;fillColor=#d5e8d4;strokeColor=#82b366;" vertex="1" parent="1">
          <mxGeometry x="1444" y="819.5" width="15" height="15" as="geometry" />
        </mxCell>
        <mxCell id="38yjaDSSOYZPgfIshnpb-459" value="" style="ellipse;whiteSpace=wrap;html=1;aspect=fixed;fillColor=#f8cecc;strokeColor=#b85450;" vertex="1" parent="1">
          <mxGeometry x="1373.5" y="902.5" width="15" height="15" as="geometry" />
        </mxCell>
        <mxCell id="38yjaDSSOYZPgfIshnpb-460" value="" style="ellipse;whiteSpace=wrap;html=1;aspect=fixed;fillColor=#f8cecc;strokeColor=#b85450;" vertex="1" parent="1">
          <mxGeometry x="1377.5" y="927.5" width="15" height="15" as="geometry" />
        </mxCell>
        <mxCell id="38yjaDSSOYZPgfIshnpb-461" value="" style="ellipse;whiteSpace=wrap;html=1;aspect=fixed;fillColor=#f8cecc;strokeColor=#b85450;" vertex="1" parent="1">
          <mxGeometry x="1399.5" y="931.5" width="15" height="15" as="geometry" />
        </mxCell>
        <mxCell id="38yjaDSSOYZPgfIshnpb-462" value="" style="ellipse;whiteSpace=wrap;html=1;aspect=fixed;fillColor=#f8cecc;strokeColor=#b85450;" vertex="1" parent="1">
          <mxGeometry x="1388.5" y="876.5" width="15" height="15" as="geometry" />
        </mxCell>
        <mxCell id="38yjaDSSOYZPgfIshnpb-463" value="" style="ellipse;whiteSpace=wrap;html=1;aspect=fixed;fillColor=#f8cecc;strokeColor=#b85450;" vertex="1" parent="1">
          <mxGeometry x="1408.5" y="891.5" width="15" height="15" as="geometry" />
        </mxCell>
        <mxCell id="38yjaDSSOYZPgfIshnpb-464" value="" style="ellipse;whiteSpace=wrap;html=1;aspect=fixed;fillColor=#f8cecc;strokeColor=#b85450;" vertex="1" parent="1">
          <mxGeometry x="1439" y="892.5" width="15" height="15" as="geometry" />
        </mxCell>
        <mxCell id="38yjaDSSOYZPgfIshnpb-465" value="" style="ellipse;whiteSpace=wrap;html=1;aspect=fixed;fillColor=#f8cecc;strokeColor=#b85450;" vertex="1" parent="1">
          <mxGeometry x="1459" y="908.5" width="15" height="15" as="geometry" />
        </mxCell>
        <mxCell id="38yjaDSSOYZPgfIshnpb-466" value="" style="ellipse;whiteSpace=wrap;html=1;aspect=fixed;fillColor=#f8cecc;strokeColor=#b85450;" vertex="1" parent="1">
          <mxGeometry x="1481" y="912.5" width="15" height="15" as="geometry" />
        </mxCell>
        <mxCell id="38yjaDSSOYZPgfIshnpb-467" value="" style="ellipse;whiteSpace=wrap;html=1;aspect=fixed;fillColor=#d5e8d4;strokeColor=#82b366;" vertex="1" parent="1">
          <mxGeometry x="1454" y="866.5" width="15" height="15" as="geometry" />
        </mxCell>
        <mxCell id="38yjaDSSOYZPgfIshnpb-468" value="" style="ellipse;whiteSpace=wrap;html=1;aspect=fixed;fillColor=#f8cecc;strokeColor=#b85450;" vertex="1" parent="1">
          <mxGeometry x="1474" y="881.5" width="15" height="15" as="geometry" />
        </mxCell>
        <mxCell id="38yjaDSSOYZPgfIshnpb-469" value="" style="ellipse;whiteSpace=wrap;html=1;aspect=fixed;fillColor=#dae8fc;strokeColor=#6c8ebf;" vertex="1" parent="1">
          <mxGeometry x="1534.75" y="803" width="15" height="15" as="geometry" />
        </mxCell>
        <mxCell id="38yjaDSSOYZPgfIshnpb-470" value="" style="ellipse;whiteSpace=wrap;html=1;aspect=fixed;fillColor=#dae8fc;strokeColor=#6c8ebf;" vertex="1" parent="1">
          <mxGeometry x="1538.75" y="826" width="15" height="15" as="geometry" />
        </mxCell>
        <mxCell id="38yjaDSSOYZPgfIshnpb-471" value="" style="ellipse;whiteSpace=wrap;html=1;aspect=fixed;fillColor=#dae8fc;strokeColor=#6c8ebf;" vertex="1" parent="1">
          <mxGeometry x="1556.75" y="807" width="15" height="15" as="geometry" />
        </mxCell>
        <mxCell id="38yjaDSSOYZPgfIshnpb-472" value="" style="ellipse;whiteSpace=wrap;html=1;aspect=fixed;fillColor=#dae8fc;strokeColor=#6c8ebf;" vertex="1" parent="1">
          <mxGeometry x="1560.75" y="832" width="15" height="15" as="geometry" />
        </mxCell>
        <mxCell id="38yjaDSSOYZPgfIshnpb-473" value="" style="ellipse;whiteSpace=wrap;html=1;aspect=fixed;fillColor=#dae8fc;strokeColor=#6c8ebf;" vertex="1" parent="1">
          <mxGeometry x="1582.75" y="836" width="15" height="15" as="geometry" />
        </mxCell>
        <mxCell id="38yjaDSSOYZPgfIshnpb-474" value="" style="ellipse;whiteSpace=wrap;html=1;aspect=fixed;fillColor=#dae8fc;strokeColor=#6c8ebf;" vertex="1" parent="1">
          <mxGeometry x="1578.75" y="803" width="15" height="15" as="geometry" />
        </mxCell>
        <mxCell id="38yjaDSSOYZPgfIshnpb-475" value="" style="ellipse;whiteSpace=wrap;html=1;aspect=fixed;fillColor=#dae8fc;strokeColor=#6c8ebf;" vertex="1" parent="1">
          <mxGeometry x="1538" y="859.5" width="15" height="15" as="geometry" />
        </mxCell>
        <mxCell id="38yjaDSSOYZPgfIshnpb-476" value="" style="ellipse;whiteSpace=wrap;html=1;aspect=fixed;fillColor=#fff2cc;strokeColor=#d6b656;" vertex="1" parent="1">
          <mxGeometry x="1531" y="905.5" width="15" height="15" as="geometry" />
        </mxCell>
        <mxCell id="38yjaDSSOYZPgfIshnpb-477" value="" style="ellipse;whiteSpace=wrap;html=1;aspect=fixed;fillColor=#fff2cc;strokeColor=#d6b656;" vertex="1" parent="1">
          <mxGeometry x="1553" y="911.5" width="15" height="15" as="geometry" />
        </mxCell>
        <mxCell id="38yjaDSSOYZPgfIshnpb-478" value="" style="ellipse;whiteSpace=wrap;html=1;aspect=fixed;fillColor=#fff2cc;strokeColor=#d6b656;" vertex="1" parent="1">
          <mxGeometry x="1528.5" y="932.5" width="15" height="15" as="geometry" />
        </mxCell>
        <mxCell id="38yjaDSSOYZPgfIshnpb-479" value="" style="ellipse;whiteSpace=wrap;html=1;aspect=fixed;fillColor=#fff2cc;strokeColor=#d6b656;" vertex="1" parent="1">
          <mxGeometry x="1553" y="940" width="15" height="15" as="geometry" />
        </mxCell>
        <mxCell id="38yjaDSSOYZPgfIshnpb-480" value="" style="ellipse;whiteSpace=wrap;html=1;aspect=fixed;fillColor=#fff2cc;strokeColor=#d6b656;" vertex="1" parent="1">
          <mxGeometry x="1575" y="944" width="15" height="15" as="geometry" />
        </mxCell>
        <mxCell id="38yjaDSSOYZPgfIshnpb-481" value="" style="ellipse;whiteSpace=wrap;html=1;aspect=fixed;fillColor=#fff2cc;strokeColor=#d6b656;" vertex="1" parent="1">
          <mxGeometry x="1594" y="951" width="15" height="15" as="geometry" />
        </mxCell>
        <mxCell id="38yjaDSSOYZPgfIshnpb-482" value="" style="shape=flexArrow;endArrow=classic;html=1;rounded=0;" edge="1" parent="1">
          <mxGeometry width="50" height="50" relative="1" as="geometry">
            <mxPoint x="1314.5" y="872.5699999999999" as="sourcePoint" />
            <mxPoint x="1361.5" y="872.31" as="targetPoint" />
          </mxGeometry>
        </mxCell>
        <mxCell id="38yjaDSSOYZPgfIshnpb-486" value="K = 1" style="text;html=1;align=center;verticalAlign=middle;resizable=0;points=[];autosize=1;strokeColor=none;fillColor=none;fontStyle=1;fontSize=14;" vertex="1" parent="1">
          <mxGeometry x="1029" y="171.25" width="51" height="29" as="geometry" />
        </mxCell>
        <mxCell id="38yjaDSSOYZPgfIshnpb-487" value="" style="endArrow=none;html=1;rounded=0;" edge="1" parent="1">
          <mxGeometry width="50" height="50" relative="1" as="geometry">
            <mxPoint x="953" y="172" as="sourcePoint" />
            <mxPoint x="1647" y="172" as="targetPoint" />
          </mxGeometry>
        </mxCell>
        <mxCell id="38yjaDSSOYZPgfIshnpb-488" value="K = 2" style="text;html=1;align=center;verticalAlign=middle;resizable=0;points=[];autosize=1;strokeColor=none;fillColor=none;fontStyle=1;fontSize=14;" vertex="1" parent="1">
          <mxGeometry x="1032" y="375.5" width="51" height="29" as="geometry" />
        </mxCell>
        <mxCell id="38yjaDSSOYZPgfIshnpb-489" value="" style="endArrow=none;html=1;rounded=0;" edge="1" parent="1">
          <mxGeometry width="50" height="50" relative="1" as="geometry">
            <mxPoint x="956" y="376.25" as="sourcePoint" />
            <mxPoint x="1650" y="376.25" as="targetPoint" />
          </mxGeometry>
        </mxCell>
        <mxCell id="38yjaDSSOYZPgfIshnpb-490" value="K = 3" style="text;html=1;align=center;verticalAlign=middle;resizable=0;points=[];autosize=1;strokeColor=none;fillColor=none;fontStyle=1;fontSize=14;" vertex="1" parent="1">
          <mxGeometry x="1029" y="586" width="51" height="29" as="geometry" />
        </mxCell>
        <mxCell id="38yjaDSSOYZPgfIshnpb-491" value="" style="endArrow=none;html=1;rounded=0;" edge="1" parent="1">
          <mxGeometry width="50" height="50" relative="1" as="geometry">
            <mxPoint x="948.25" y="583.75" as="sourcePoint" />
            <mxPoint x="1642.25" y="583.75" as="targetPoint" />
          </mxGeometry>
        </mxCell>
        <mxCell id="38yjaDSSOYZPgfIshnpb-492" value="K = 4" style="text;html=1;align=center;verticalAlign=middle;resizable=0;points=[];autosize=1;strokeColor=none;fillColor=none;fontStyle=1;fontSize=14;" vertex="1" parent="1">
          <mxGeometry x="1029" y="789" width="51" height="29" as="geometry" />
        </mxCell>
        <mxCell id="38yjaDSSOYZPgfIshnpb-493" value="" style="endArrow=none;html=1;rounded=0;" edge="1" parent="1">
          <mxGeometry width="50" height="50" relative="1" as="geometry">
            <mxPoint x="954" y="785.75" as="sourcePoint" />
            <mxPoint x="1648" y="785.75" as="targetPoint" />
          </mxGeometry>
        </mxCell>
        <mxCell id="38yjaDSSOYZPgfIshnpb-495" value="" style="rounded=0;whiteSpace=wrap;html=1;fillColor=#d5e8d4;strokeColor=#82b366;" vertex="1" parent="1">
          <mxGeometry x="1014.56" y="1168" width="181.44" height="9" as="geometry" />
        </mxCell>
        <mxCell id="38yjaDSSOYZPgfIshnpb-496" value="" style="rounded=0;whiteSpace=wrap;html=1;fillColor=#f8cecc;strokeColor=#b85450;" vertex="1" parent="1">
          <mxGeometry x="802.06" y="1168" width="213" height="9" as="geometry" />
        </mxCell>
        <mxCell id="38yjaDSSOYZPgfIshnpb-498" value="" style="rounded=0;whiteSpace=wrap;html=1;fillColor=#f8cecc;strokeColor=#b85450;" vertex="1" parent="1">
          <mxGeometry x="801.94" y="1204" width="151" height="9" as="geometry" />
        </mxCell>
        <mxCell id="38yjaDSSOYZPgfIshnpb-499" value="" style="rounded=0;whiteSpace=wrap;html=1;fillColor=#dae8fc;strokeColor=#6c8ebf;" vertex="1" parent="1">
          <mxGeometry x="1017.56" y="1204" width="51.5" height="9" as="geometry" />
        </mxCell>
        <mxCell id="38yjaDSSOYZPgfIshnpb-500" value="" style="rounded=0;whiteSpace=wrap;html=1;fillColor=#d5e8d4;strokeColor=#82b366;" vertex="1" parent="1">
          <mxGeometry x="952.94" y="1204" width="65.12" height="9" as="geometry" />
        </mxCell>
        <mxCell id="38yjaDSSOYZPgfIshnpb-501" value="K=2" style="text;html=1;align=center;verticalAlign=middle;resizable=0;points=[];autosize=1;strokeColor=none;fillColor=none;fontStyle=1" vertex="1" parent="1">
          <mxGeometry x="811.69" y="1142" width="40" height="26" as="geometry" />
        </mxCell>
        <mxCell id="38yjaDSSOYZPgfIshnpb-502" value="K=3" style="text;html=1;align=center;verticalAlign=middle;resizable=0;points=[];autosize=1;strokeColor=none;fillColor=none;fontStyle=1" vertex="1" parent="1">
          <mxGeometry x="811.69" y="1178" width="40" height="26" as="geometry" />
        </mxCell>
        <mxCell id="38yjaDSSOYZPgfIshnpb-503" value="&lt;b&gt;...&lt;/b&gt;" style="text;html=1;align=center;verticalAlign=middle;resizable=0;points=[];autosize=1;strokeColor=none;fillColor=none;" vertex="1" parent="1">
          <mxGeometry x="823.69" y="1257" width="28" height="26" as="geometry" />
        </mxCell>
        <mxCell id="38yjaDSSOYZPgfIshnpb-505" value="" style="rounded=0;whiteSpace=wrap;html=1;fillColor=#f8cecc;strokeColor=#b85450;" vertex="1" parent="1">
          <mxGeometry x="801.94" y="1126" width="519.06" height="9" as="geometry" />
        </mxCell>
        <mxCell id="38yjaDSSOYZPgfIshnpb-508" value="K=1" style="text;html=1;align=center;verticalAlign=middle;resizable=0;points=[];autosize=1;strokeColor=none;fillColor=none;fontStyle=1" vertex="1" parent="1">
          <mxGeometry x="811.69" y="1100" width="40" height="26" as="geometry" />
        </mxCell>
        <mxCell id="38yjaDSSOYZPgfIshnpb-509" value="" style="rounded=0;whiteSpace=wrap;html=1;fillColor=#f8cecc;strokeColor=#b85450;" vertex="1" parent="1">
          <mxGeometry x="801.94" y="1243" width="108.12" height="9" as="geometry" />
        </mxCell>
        <mxCell id="38yjaDSSOYZPgfIshnpb-510" value="" style="rounded=0;whiteSpace=wrap;html=1;fillColor=#dae8fc;strokeColor=#6c8ebf;" vertex="1" parent="1">
          <mxGeometry x="910.06" y="1243" width="43" height="9" as="geometry" />
        </mxCell>
        <mxCell id="38yjaDSSOYZPgfIshnpb-511" value="" style="rounded=0;whiteSpace=wrap;html=1;fillColor=#d5e8d4;strokeColor=#82b366;" vertex="1" parent="1">
          <mxGeometry x="953.06" y="1243" width="71" height="9" as="geometry" />
        </mxCell>
        <mxCell id="38yjaDSSOYZPgfIshnpb-512" value="K=4" style="text;html=1;align=center;verticalAlign=middle;resizable=0;points=[];autosize=1;strokeColor=none;fillColor=none;fontStyle=1" vertex="1" parent="1">
          <mxGeometry x="812.19" y="1217" width="40" height="26" as="geometry" />
        </mxCell>
        <mxCell id="38yjaDSSOYZPgfIshnpb-515" value="" style="rounded=0;whiteSpace=wrap;html=1;fillColor=#fff2cc;strokeColor=#d6b656;" vertex="1" parent="1">
          <mxGeometry x="1024.06" y="1243" width="34.5" height="9" as="geometry" />
        </mxCell>
        <mxCell id="38yjaDSSOYZPgfIshnpb-516" value="&lt;b&gt;Within-cluster sum of errors&lt;/b&gt;" style="text;html=1;align=center;verticalAlign=middle;resizable=0;points=[];autosize=1;strokeColor=none;fillColor=none;fontSize=15;" vertex="1" parent="1">
          <mxGeometry x="910.06" y="1070" width="219" height="30" as="geometry" />
        </mxCell>
        <mxCell id="38yjaDSSOYZPgfIshnpb-517" value="" style="endArrow=none;html=1;rounded=0;" edge="1" parent="1">
          <mxGeometry width="50" height="50" relative="1" as="geometry">
            <mxPoint x="948.25" y="983" as="sourcePoint" />
            <mxPoint x="1642.25" y="983" as="targetPoint" />
          </mxGeometry>
        </mxCell>
        <mxCell id="38yjaDSSOYZPgfIshnpb-518" value="" style="ellipse;whiteSpace=wrap;html=1;aspect=fixed;fillColor=#0050ef;fontColor=#ffffff;strokeColor=#001DBC;" vertex="1" parent="1">
          <mxGeometry x="1397.5" y="1128.5" width="9" height="9" as="geometry" />
        </mxCell>
        <mxCell id="38yjaDSSOYZPgfIshnpb-519" value="" style="ellipse;whiteSpace=wrap;html=1;aspect=fixed;fillColor=#0050ef;fontColor=#ffffff;strokeColor=#001DBC;" vertex="1" parent="1">
          <mxGeometry x="1442.5" y="1232.5" width="9" height="9" as="geometry" />
        </mxCell>
        <mxCell id="38yjaDSSOYZPgfIshnpb-520" value="" style="ellipse;whiteSpace=wrap;html=1;aspect=fixed;fillColor=#0050ef;fontColor=#ffffff;strokeColor=#001DBC;" vertex="1" parent="1">
          <mxGeometry x="1492" y="1298.5" width="9" height="9" as="geometry" />
        </mxCell>
        <mxCell id="38yjaDSSOYZPgfIshnpb-521" value="" style="ellipse;whiteSpace=wrap;html=1;aspect=fixed;fillColor=#0050ef;fontColor=#ffffff;strokeColor=#001DBC;" vertex="1" parent="1">
          <mxGeometry x="1549.5" y="1312.5" width="9" height="9" as="geometry" />
        </mxCell>
        <mxCell id="38yjaDSSOYZPgfIshnpb-522" value="" style="ellipse;whiteSpace=wrap;html=1;aspect=fixed;fillColor=#0050ef;fontColor=#ffffff;strokeColor=#001DBC;" vertex="1" parent="1">
          <mxGeometry x="1606.5" y="1321.5" width="9" height="9" as="geometry" />
        </mxCell>
        <mxCell id="38yjaDSSOYZPgfIshnpb-523" value="" style="ellipse;whiteSpace=wrap;html=1;aspect=fixed;fillColor=#0050ef;fontColor=#ffffff;strokeColor=#001DBC;" vertex="1" parent="1">
          <mxGeometry x="1655.25" y="1326.5" width="9" height="9" as="geometry" />
        </mxCell>
        <mxCell id="38yjaDSSOYZPgfIshnpb-524" value="" style="ellipse;whiteSpace=wrap;html=1;aspect=fixed;fillColor=#0050ef;fontColor=#ffffff;strokeColor=#001DBC;" vertex="1" parent="1">
          <mxGeometry x="1703.5" y="1330.5" width="9" height="9" as="geometry" />
        </mxCell>
        <mxCell id="38yjaDSSOYZPgfIshnpb-525" value="" style="endArrow=classic;html=1;rounded=0;" edge="1" parent="1">
          <mxGeometry width="50" height="50" relative="1" as="geometry">
            <mxPoint x="1359.5" y="1440.5" as="sourcePoint" />
            <mxPoint x="1793.5" y="1440.5" as="targetPoint" />
          </mxGeometry>
        </mxCell>
        <mxCell id="38yjaDSSOYZPgfIshnpb-526" value="K value" style="text;html=1;align=center;verticalAlign=middle;whiteSpace=wrap;rounded=0;fontStyle=1" vertex="1" parent="1">
          <mxGeometry x="1538.5" y="1460.5" width="60" height="30" as="geometry" />
        </mxCell>
        <mxCell id="38yjaDSSOYZPgfIshnpb-527" value="" style="endArrow=none;html=1;rounded=0;endFill=0;startArrow=classic;startFill=1;" edge="1" parent="1">
          <mxGeometry width="50" height="50" relative="1" as="geometry">
            <mxPoint x="1359.5" y="1077.5" as="sourcePoint" />
            <mxPoint x="1359.5" y="1440.5" as="targetPoint" />
          </mxGeometry>
        </mxCell>
        <mxCell id="38yjaDSSOYZPgfIshnpb-529" value="1" style="text;html=1;align=center;verticalAlign=middle;whiteSpace=wrap;rounded=0;fontSize=9;fontStyle=1" vertex="1" parent="1">
          <mxGeometry x="1393.5" y="1440.5" width="26.5" height="17" as="geometry" />
        </mxCell>
        <mxCell id="38yjaDSSOYZPgfIshnpb-530" value="2" style="text;html=1;align=center;verticalAlign=middle;whiteSpace=wrap;rounded=0;fontSize=9;fontStyle=1" vertex="1" parent="1">
          <mxGeometry x="1440.5" y="1440.5" width="26.5" height="17" as="geometry" />
        </mxCell>
        <mxCell id="38yjaDSSOYZPgfIshnpb-531" value="3" style="text;html=1;align=center;verticalAlign=middle;whiteSpace=wrap;rounded=0;fontSize=9;fontStyle=1" vertex="1" parent="1">
          <mxGeometry x="1486" y="1440.5" width="26.5" height="17" as="geometry" />
        </mxCell>
        <mxCell id="38yjaDSSOYZPgfIshnpb-532" value="4" style="text;html=1;align=center;verticalAlign=middle;whiteSpace=wrap;rounded=0;fontSize=9;fontStyle=1" vertex="1" parent="1">
          <mxGeometry x="1543.5" y="1440.5" width="26.5" height="17" as="geometry" />
        </mxCell>
        <mxCell id="38yjaDSSOYZPgfIshnpb-533" value="5" style="text;html=1;align=center;verticalAlign=middle;whiteSpace=wrap;rounded=0;fontSize=9;fontStyle=1" vertex="1" parent="1">
          <mxGeometry x="1597.75" y="1440.5" width="26.5" height="17" as="geometry" />
        </mxCell>
        <mxCell id="38yjaDSSOYZPgfIshnpb-534" value="6" style="text;html=1;align=center;verticalAlign=middle;whiteSpace=wrap;rounded=0;fontSize=9;fontStyle=1" vertex="1" parent="1">
          <mxGeometry x="1647.25" y="1440.5" width="26.5" height="17" as="geometry" />
        </mxCell>
        <mxCell id="38yjaDSSOYZPgfIshnpb-535" value="7" style="text;html=1;align=center;verticalAlign=middle;whiteSpace=wrap;rounded=0;fontSize=9;fontStyle=1" vertex="1" parent="1">
          <mxGeometry x="1697.75" y="1440.5" width="26.5" height="17" as="geometry" />
        </mxCell>
        <mxCell id="38yjaDSSOYZPgfIshnpb-536" value="Within cluster sum of error" style="text;html=1;align=center;verticalAlign=middle;whiteSpace=wrap;rounded=0;fontStyle=1" vertex="1" parent="1">
          <mxGeometry x="1254.5" y="1246.5" width="85" height="30" as="geometry" />
        </mxCell>
        <mxCell id="38yjaDSSOYZPgfIshnpb-538" value="" style="endArrow=classic;html=1;rounded=0;exitX=-0.01;exitY=0.529;exitDx=0;exitDy=0;exitPerimeter=0;" edge="1" parent="1" source="38yjaDSSOYZPgfIshnpb-537">
          <mxGeometry width="50" height="50" relative="1" as="geometry">
            <mxPoint x="1507.5" y="1243.5" as="sourcePoint" />
            <mxPoint x="1504.5" y="1290.5" as="targetPoint" />
          </mxGeometry>
        </mxCell>
        <mxCell id="38yjaDSSOYZPgfIshnpb-539" value="" style="ellipse;whiteSpace=wrap;html=1;aspect=fixed;" vertex="1" parent="1">
          <mxGeometry x="1087.5" y="427" width="15" height="15" as="geometry" />
        </mxCell>
        <mxCell id="38yjaDSSOYZPgfIshnpb-540" value="" style="ellipse;whiteSpace=wrap;html=1;aspect=fixed;" vertex="1" parent="1">
          <mxGeometry x="1091.5" y="450" width="15" height="15" as="geometry" />
        </mxCell>
        <mxCell id="38yjaDSSOYZPgfIshnpb-541" value="" style="ellipse;whiteSpace=wrap;html=1;aspect=fixed;" vertex="1" parent="1">
          <mxGeometry x="1109.5" y="431" width="15" height="15" as="geometry" />
        </mxCell>
        <mxCell id="38yjaDSSOYZPgfIshnpb-542" value="" style="ellipse;whiteSpace=wrap;html=1;aspect=fixed;" vertex="1" parent="1">
          <mxGeometry x="1113.5" y="456" width="15" height="15" as="geometry" />
        </mxCell>
        <mxCell id="38yjaDSSOYZPgfIshnpb-543" value="" style="ellipse;whiteSpace=wrap;html=1;aspect=fixed;" vertex="1" parent="1">
          <mxGeometry x="1135.5" y="460" width="15" height="15" as="geometry" />
        </mxCell>
        <mxCell id="38yjaDSSOYZPgfIshnpb-544" value="" style="ellipse;whiteSpace=wrap;html=1;aspect=fixed;" vertex="1" parent="1">
          <mxGeometry x="1124.5" y="405" width="15" height="15" as="geometry" />
        </mxCell>
        <mxCell id="38yjaDSSOYZPgfIshnpb-545" value="" style="ellipse;whiteSpace=wrap;html=1;aspect=fixed;fillColor=#f8cecc;strokeColor=#b85450;" vertex="1" parent="1">
          <mxGeometry x="1144.5" y="420" width="15" height="15" as="geometry" />
        </mxCell>
        <mxCell id="38yjaDSSOYZPgfIshnpb-546" value="" style="ellipse;whiteSpace=wrap;html=1;aspect=fixed;" vertex="1" parent="1">
          <mxGeometry x="1074" y="503" width="15" height="15" as="geometry" />
        </mxCell>
        <mxCell id="38yjaDSSOYZPgfIshnpb-547" value="" style="ellipse;whiteSpace=wrap;html=1;aspect=fixed;" vertex="1" parent="1">
          <mxGeometry x="1078" y="528" width="15" height="15" as="geometry" />
        </mxCell>
        <mxCell id="38yjaDSSOYZPgfIshnpb-548" value="" style="ellipse;whiteSpace=wrap;html=1;aspect=fixed;" vertex="1" parent="1">
          <mxGeometry x="1100" y="532" width="15" height="15" as="geometry" />
        </mxCell>
        <mxCell id="38yjaDSSOYZPgfIshnpb-549" value="" style="ellipse;whiteSpace=wrap;html=1;aspect=fixed;" vertex="1" parent="1">
          <mxGeometry x="1089" y="477" width="15" height="15" as="geometry" />
        </mxCell>
        <mxCell id="38yjaDSSOYZPgfIshnpb-550" value="" style="ellipse;whiteSpace=wrap;html=1;aspect=fixed;" vertex="1" parent="1">
          <mxGeometry x="1109" y="492" width="15" height="15" as="geometry" />
        </mxCell>
        <mxCell id="38yjaDSSOYZPgfIshnpb-551" value="" style="ellipse;whiteSpace=wrap;html=1;aspect=fixed;" vertex="1" parent="1">
          <mxGeometry x="1139.5" y="493" width="15" height="15" as="geometry" />
        </mxCell>
        <mxCell id="38yjaDSSOYZPgfIshnpb-552" value="" style="ellipse;whiteSpace=wrap;html=1;aspect=fixed;" vertex="1" parent="1">
          <mxGeometry x="1159.5" y="509" width="15" height="15" as="geometry" />
        </mxCell>
        <mxCell id="38yjaDSSOYZPgfIshnpb-553" value="" style="ellipse;whiteSpace=wrap;html=1;aspect=fixed;" vertex="1" parent="1">
          <mxGeometry x="1181.5" y="513" width="15" height="15" as="geometry" />
        </mxCell>
        <mxCell id="38yjaDSSOYZPgfIshnpb-554" value="" style="ellipse;whiteSpace=wrap;html=1;aspect=fixed;" vertex="1" parent="1">
          <mxGeometry x="1154.5" y="467" width="15" height="15" as="geometry" />
        </mxCell>
        <mxCell id="38yjaDSSOYZPgfIshnpb-555" value="" style="ellipse;whiteSpace=wrap;html=1;aspect=fixed;" vertex="1" parent="1">
          <mxGeometry x="1174.5" y="482" width="15" height="15" as="geometry" />
        </mxCell>
        <mxCell id="38yjaDSSOYZPgfIshnpb-556" value="" style="ellipse;whiteSpace=wrap;html=1;aspect=fixed;" vertex="1" parent="1">
          <mxGeometry x="1223.5" y="406" width="15" height="15" as="geometry" />
        </mxCell>
        <mxCell id="38yjaDSSOYZPgfIshnpb-557" value="" style="ellipse;whiteSpace=wrap;html=1;aspect=fixed;" vertex="1" parent="1">
          <mxGeometry x="1227.5" y="429" width="15" height="15" as="geometry" />
        </mxCell>
        <mxCell id="38yjaDSSOYZPgfIshnpb-558" value="" style="ellipse;whiteSpace=wrap;html=1;aspect=fixed;" vertex="1" parent="1">
          <mxGeometry x="1245.5" y="410" width="15" height="15" as="geometry" />
        </mxCell>
        <mxCell id="38yjaDSSOYZPgfIshnpb-559" value="" style="ellipse;whiteSpace=wrap;html=1;aspect=fixed;" vertex="1" parent="1">
          <mxGeometry x="1249.5" y="435" width="15" height="15" as="geometry" />
        </mxCell>
        <mxCell id="38yjaDSSOYZPgfIshnpb-560" value="" style="ellipse;whiteSpace=wrap;html=1;aspect=fixed;" vertex="1" parent="1">
          <mxGeometry x="1271.5" y="439" width="15" height="15" as="geometry" />
        </mxCell>
        <mxCell id="38yjaDSSOYZPgfIshnpb-561" value="" style="ellipse;whiteSpace=wrap;html=1;aspect=fixed;" vertex="1" parent="1">
          <mxGeometry x="1267.5" y="406" width="15" height="15" as="geometry" />
        </mxCell>
        <mxCell id="38yjaDSSOYZPgfIshnpb-562" value="" style="ellipse;whiteSpace=wrap;html=1;aspect=fixed;" vertex="1" parent="1">
          <mxGeometry x="1232.5" y="462" width="15" height="15" as="geometry" />
        </mxCell>
        <mxCell id="38yjaDSSOYZPgfIshnpb-563" value="" style="ellipse;whiteSpace=wrap;html=1;aspect=fixed;fillColor=#d5e8d4;strokeColor=#82b366;" vertex="1" parent="1">
          <mxGeometry x="1234.75" y="501.25" width="15" height="15" as="geometry" />
        </mxCell>
        <mxCell id="38yjaDSSOYZPgfIshnpb-564" value="" style="ellipse;whiteSpace=wrap;html=1;aspect=fixed;" vertex="1" parent="1">
          <mxGeometry x="1256.75" y="507.25" width="15" height="15" as="geometry" />
        </mxCell>
        <mxCell id="38yjaDSSOYZPgfIshnpb-565" value="" style="ellipse;whiteSpace=wrap;html=1;aspect=fixed;" vertex="1" parent="1">
          <mxGeometry x="1232.25" y="528.25" width="15" height="15" as="geometry" />
        </mxCell>
        <mxCell id="38yjaDSSOYZPgfIshnpb-566" value="" style="ellipse;whiteSpace=wrap;html=1;aspect=fixed;" vertex="1" parent="1">
          <mxGeometry x="1256.75" y="535.75" width="15" height="15" as="geometry" />
        </mxCell>
        <mxCell id="38yjaDSSOYZPgfIshnpb-567" value="" style="ellipse;whiteSpace=wrap;html=1;aspect=fixed;" vertex="1" parent="1">
          <mxGeometry x="1278.75" y="539.75" width="15" height="15" as="geometry" />
        </mxCell>
        <mxCell id="38yjaDSSOYZPgfIshnpb-568" value="" style="ellipse;whiteSpace=wrap;html=1;aspect=fixed;" vertex="1" parent="1">
          <mxGeometry x="1297.75" y="546.75" width="15" height="15" as="geometry" />
        </mxCell>
        <mxCell id="38yjaDSSOYZPgfIshnpb-569" value="" style="ellipse;whiteSpace=wrap;html=1;aspect=fixed;fillColor=#f8cecc;strokeColor=#b85450;" vertex="1" parent="1">
          <mxGeometry x="2061" y="203.25" width="15" height="15" as="geometry" />
        </mxCell>
        <mxCell id="38yjaDSSOYZPgfIshnpb-570" value="" style="ellipse;whiteSpace=wrap;html=1;aspect=fixed;fillColor=#f8cecc;strokeColor=#b85450;" vertex="1" parent="1">
          <mxGeometry x="2065" y="226.25" width="15" height="15" as="geometry" />
        </mxCell>
        <mxCell id="38yjaDSSOYZPgfIshnpb-571" value="" style="ellipse;whiteSpace=wrap;html=1;aspect=fixed;fillColor=#f8cecc;strokeColor=#b85450;" vertex="1" parent="1">
          <mxGeometry x="2083" y="207.25" width="15" height="15" as="geometry" />
        </mxCell>
        <mxCell id="38yjaDSSOYZPgfIshnpb-572" value="" style="ellipse;whiteSpace=wrap;html=1;aspect=fixed;fillColor=#f8cecc;strokeColor=#b85450;" vertex="1" parent="1">
          <mxGeometry x="2087" y="232.25" width="15" height="15" as="geometry" />
        </mxCell>
        <mxCell id="38yjaDSSOYZPgfIshnpb-573" value="" style="ellipse;whiteSpace=wrap;html=1;aspect=fixed;fillColor=#f8cecc;strokeColor=#b85450;" vertex="1" parent="1">
          <mxGeometry x="2118" y="222" width="15" height="15" as="geometry" />
        </mxCell>
        <mxCell id="38yjaDSSOYZPgfIshnpb-574" value="" style="ellipse;whiteSpace=wrap;html=1;aspect=fixed;fillColor=#f8cecc;strokeColor=#b85450;" vertex="1" parent="1">
          <mxGeometry x="2098" y="181.25" width="15" height="15" as="geometry" />
        </mxCell>
        <mxCell id="38yjaDSSOYZPgfIshnpb-575" value="" style="ellipse;whiteSpace=wrap;html=1;aspect=fixed;fillColor=#f8cecc;strokeColor=#b85450;" vertex="1" parent="1">
          <mxGeometry x="2118" y="196.25" width="15" height="15" as="geometry" />
        </mxCell>
        <mxCell id="38yjaDSSOYZPgfIshnpb-579" value="" style="ellipse;whiteSpace=wrap;html=1;aspect=fixed;fillColor=#f8cecc;strokeColor=#b85450;" vertex="1" parent="1">
          <mxGeometry x="2062.5" y="253.25" width="15" height="15" as="geometry" />
        </mxCell>
        <mxCell id="38yjaDSSOYZPgfIshnpb-580" value="" style="ellipse;whiteSpace=wrap;html=1;aspect=fixed;fillColor=#f8cecc;strokeColor=#b85450;" vertex="1" parent="1">
          <mxGeometry x="2082.5" y="268.25" width="15" height="15" as="geometry" />
        </mxCell>
        <mxCell id="38yjaDSSOYZPgfIshnpb-581" value="" style="ellipse;whiteSpace=wrap;html=1;aspect=fixed;fillColor=#f8cecc;strokeColor=#b85450;" vertex="1" parent="1">
          <mxGeometry x="2122" y="255" width="15" height="15" as="geometry" />
        </mxCell>
        <mxCell id="38yjaDSSOYZPgfIshnpb-582" value="" style="ellipse;whiteSpace=wrap;html=1;aspect=fixed;fillColor=#d5e8d4;strokeColor=#82b366;" vertex="1" parent="1">
          <mxGeometry x="2142" y="271" width="15" height="15" as="geometry" />
        </mxCell>
        <mxCell id="38yjaDSSOYZPgfIshnpb-584" value="" style="ellipse;whiteSpace=wrap;html=1;aspect=fixed;fillColor=#d5e8d4;strokeColor=#82b366;" vertex="1" parent="1">
          <mxGeometry x="2137" y="229" width="15" height="15" as="geometry" />
        </mxCell>
        <mxCell id="38yjaDSSOYZPgfIshnpb-585" value="" style="ellipse;whiteSpace=wrap;html=1;aspect=fixed;fillColor=#d5e8d4;strokeColor=#82b366;" vertex="1" parent="1">
          <mxGeometry x="2157" y="244" width="15" height="15" as="geometry" />
        </mxCell>
        <mxCell id="38yjaDSSOYZPgfIshnpb-586" value="" style="ellipse;whiteSpace=wrap;html=1;aspect=fixed;fillColor=#f8cecc;strokeColor=#b85450;" vertex="1" parent="1">
          <mxGeometry x="2205.5" y="184" width="15" height="15" as="geometry" />
        </mxCell>
        <mxCell id="38yjaDSSOYZPgfIshnpb-587" value="" style="ellipse;whiteSpace=wrap;html=1;aspect=fixed;fillColor=#f8cecc;strokeColor=#b85450;" vertex="1" parent="1">
          <mxGeometry x="2209.5" y="207" width="15" height="15" as="geometry" />
        </mxCell>
        <mxCell id="38yjaDSSOYZPgfIshnpb-588" value="" style="ellipse;whiteSpace=wrap;html=1;aspect=fixed;fillColor=#f8cecc;strokeColor=#b85450;" vertex="1" parent="1">
          <mxGeometry x="2227.5" y="188" width="15" height="15" as="geometry" />
        </mxCell>
        <mxCell id="38yjaDSSOYZPgfIshnpb-589" value="" style="ellipse;whiteSpace=wrap;html=1;aspect=fixed;fillColor=#d5e8d4;strokeColor=#82b366;" vertex="1" parent="1">
          <mxGeometry x="2231.5" y="213" width="15" height="15" as="geometry" />
        </mxCell>
        <mxCell id="38yjaDSSOYZPgfIshnpb-590" value="" style="ellipse;whiteSpace=wrap;html=1;aspect=fixed;fillColor=#d5e8d4;strokeColor=#82b366;" vertex="1" parent="1">
          <mxGeometry x="2253.5" y="217" width="15" height="15" as="geometry" />
        </mxCell>
        <mxCell id="38yjaDSSOYZPgfIshnpb-591" value="" style="ellipse;whiteSpace=wrap;html=1;aspect=fixed;fillColor=#f8cecc;strokeColor=#b85450;" vertex="1" parent="1">
          <mxGeometry x="2249.5" y="184" width="15" height="15" as="geometry" />
        </mxCell>
        <mxCell id="38yjaDSSOYZPgfIshnpb-592" value="" style="ellipse;whiteSpace=wrap;html=1;aspect=fixed;fillColor=#d5e8d4;strokeColor=#82b366;" vertex="1" parent="1">
          <mxGeometry x="2214.5" y="240" width="15" height="15" as="geometry" />
        </mxCell>
        <mxCell id="38yjaDSSOYZPgfIshnpb-599" value="" style="ellipse;whiteSpace=wrap;html=1;aspect=fixed;fillColor=#d5e8d4;strokeColor=#82b366;" vertex="1" parent="1">
          <mxGeometry x="2317" y="371.25" width="15" height="15" as="geometry" />
        </mxCell>
        <mxCell id="38yjaDSSOYZPgfIshnpb-600" value="" style="ellipse;whiteSpace=wrap;html=1;aspect=fixed;" vertex="1" parent="1">
          <mxGeometry x="1721.5" y="209.25" width="15" height="15" as="geometry" />
        </mxCell>
        <mxCell id="38yjaDSSOYZPgfIshnpb-601" value="" style="ellipse;whiteSpace=wrap;html=1;aspect=fixed;" vertex="1" parent="1">
          <mxGeometry x="1725.5" y="232.25" width="15" height="15" as="geometry" />
        </mxCell>
        <mxCell id="38yjaDSSOYZPgfIshnpb-602" value="" style="ellipse;whiteSpace=wrap;html=1;aspect=fixed;fillColor=#f8cecc;strokeColor=#b85450;" vertex="1" parent="1">
          <mxGeometry x="1743.5" y="213.25" width="15" height="15" as="geometry" />
        </mxCell>
        <mxCell id="38yjaDSSOYZPgfIshnpb-603" value="" style="ellipse;whiteSpace=wrap;html=1;aspect=fixed;" vertex="1" parent="1">
          <mxGeometry x="1747.5" y="238.25" width="15" height="15" as="geometry" />
        </mxCell>
        <mxCell id="38yjaDSSOYZPgfIshnpb-604" value="" style="ellipse;whiteSpace=wrap;html=1;aspect=fixed;" vertex="1" parent="1">
          <mxGeometry x="1778.5" y="228" width="15" height="15" as="geometry" />
        </mxCell>
        <mxCell id="38yjaDSSOYZPgfIshnpb-605" value="" style="ellipse;whiteSpace=wrap;html=1;aspect=fixed;" vertex="1" parent="1">
          <mxGeometry x="1758.5" y="187.25" width="15" height="15" as="geometry" />
        </mxCell>
        <mxCell id="38yjaDSSOYZPgfIshnpb-606" value="" style="ellipse;whiteSpace=wrap;html=1;aspect=fixed;" vertex="1" parent="1">
          <mxGeometry x="1778.5" y="202.25" width="15" height="15" as="geometry" />
        </mxCell>
        <mxCell id="38yjaDSSOYZPgfIshnpb-607" value="" style="ellipse;whiteSpace=wrap;html=1;aspect=fixed;" vertex="1" parent="1">
          <mxGeometry x="1723" y="259.25" width="15" height="15" as="geometry" />
        </mxCell>
        <mxCell id="38yjaDSSOYZPgfIshnpb-608" value="" style="ellipse;whiteSpace=wrap;html=1;aspect=fixed;" vertex="1" parent="1">
          <mxGeometry x="1743" y="274.25" width="15" height="15" as="geometry" />
        </mxCell>
        <mxCell id="38yjaDSSOYZPgfIshnpb-609" value="" style="ellipse;whiteSpace=wrap;html=1;aspect=fixed;" vertex="1" parent="1">
          <mxGeometry x="1782.5" y="261" width="15" height="15" as="geometry" />
        </mxCell>
        <mxCell id="38yjaDSSOYZPgfIshnpb-610" value="" style="ellipse;whiteSpace=wrap;html=1;aspect=fixed;" vertex="1" parent="1">
          <mxGeometry x="1802.5" y="277" width="15" height="15" as="geometry" />
        </mxCell>
        <mxCell id="38yjaDSSOYZPgfIshnpb-611" value="" style="ellipse;whiteSpace=wrap;html=1;aspect=fixed;" vertex="1" parent="1">
          <mxGeometry x="1797.5" y="235" width="15" height="15" as="geometry" />
        </mxCell>
        <mxCell id="38yjaDSSOYZPgfIshnpb-612" value="" style="ellipse;whiteSpace=wrap;html=1;aspect=fixed;" vertex="1" parent="1">
          <mxGeometry x="1817.5" y="250" width="15" height="15" as="geometry" />
        </mxCell>
        <mxCell id="38yjaDSSOYZPgfIshnpb-613" value="" style="ellipse;whiteSpace=wrap;html=1;aspect=fixed;" vertex="1" parent="1">
          <mxGeometry x="1866" y="190" width="15" height="15" as="geometry" />
        </mxCell>
        <mxCell id="38yjaDSSOYZPgfIshnpb-614" value="" style="ellipse;whiteSpace=wrap;html=1;aspect=fixed;" vertex="1" parent="1">
          <mxGeometry x="1870" y="213" width="15" height="15" as="geometry" />
        </mxCell>
        <mxCell id="38yjaDSSOYZPgfIshnpb-615" value="" style="ellipse;whiteSpace=wrap;html=1;aspect=fixed;" vertex="1" parent="1">
          <mxGeometry x="1888" y="194" width="15" height="15" as="geometry" />
        </mxCell>
        <mxCell id="38yjaDSSOYZPgfIshnpb-616" value="" style="ellipse;whiteSpace=wrap;html=1;aspect=fixed;" vertex="1" parent="1">
          <mxGeometry x="1892" y="219" width="15" height="15" as="geometry" />
        </mxCell>
        <mxCell id="38yjaDSSOYZPgfIshnpb-617" value="" style="ellipse;whiteSpace=wrap;html=1;aspect=fixed;" vertex="1" parent="1">
          <mxGeometry x="1914" y="223" width="15" height="15" as="geometry" />
        </mxCell>
        <mxCell id="38yjaDSSOYZPgfIshnpb-618" value="" style="ellipse;whiteSpace=wrap;html=1;aspect=fixed;" vertex="1" parent="1">
          <mxGeometry x="1910" y="190" width="15" height="15" as="geometry" />
        </mxCell>
        <mxCell id="38yjaDSSOYZPgfIshnpb-619" value="" style="ellipse;whiteSpace=wrap;html=1;aspect=fixed;" vertex="1" parent="1">
          <mxGeometry x="1875" y="246" width="15" height="15" as="geometry" />
        </mxCell>
        <mxCell id="38yjaDSSOYZPgfIshnpb-620" value="" style="ellipse;whiteSpace=wrap;html=1;aspect=fixed;fillColor=#d5e8d4;strokeColor=#82b366;" vertex="1" parent="1">
          <mxGeometry x="1932" y="378" width="15" height="15" as="geometry" />
        </mxCell>
        <mxCell id="38yjaDSSOYZPgfIshnpb-621" value="" style="shape=flexArrow;endArrow=classic;html=1;rounded=0;" edge="1" parent="1">
          <mxGeometry width="50" height="50" relative="1" as="geometry">
            <mxPoint x="1979" y="252.83999999999995" as="sourcePoint" />
            <mxPoint x="2026" y="252.57999999999996" as="targetPoint" />
          </mxGeometry>
        </mxCell>
        <mxCell id="38yjaDSSOYZPgfIshnpb-624" value="" style="ellipse;whiteSpace=wrap;html=1;aspect=fixed;strokeColor=#82b366;fillColor=none;" vertex="1" parent="1">
          <mxGeometry x="1631" y="1682" width="80" height="80" as="geometry" />
        </mxCell>
        <mxCell id="38yjaDSSOYZPgfIshnpb-626" value="" style="endArrow=classic;html=1;rounded=0;entryX=0.842;entryY=0.088;entryDx=0;entryDy=0;entryPerimeter=0;strokeColor=#82b366;exitX=0.083;exitY=1.03;exitDx=0;exitDy=0;exitPerimeter=0;" edge="1" parent="1" source="38yjaDSSOYZPgfIshnpb-627" target="38yjaDSSOYZPgfIshnpb-624">
          <mxGeometry width="50" height="50" relative="1" as="geometry">
            <mxPoint x="1720" y="1671" as="sourcePoint" />
            <mxPoint x="1696" y="1697" as="targetPoint" />
          </mxGeometry>
        </mxCell>
        <mxCell id="38yjaDSSOYZPgfIshnpb-627" value="Region of interest&lt;br&gt;(size = bandwidth)" style="text;html=1;align=center;verticalAlign=middle;resizable=0;points=[];autosize=1;strokeColor=none;fillColor=none;fontSize=5;fontColor=#82b366;" vertex="1" parent="1">
          <mxGeometry x="1705.5" y="1655" width="59" height="24" as="geometry" />
        </mxCell>
        <mxCell id="38yjaDSSOYZPgfIshnpb-630" value="" style="shape=flexArrow;endArrow=classic;html=1;rounded=0;endWidth=5.168539325842697;endSize=1.1671874999999998;width=1.5625;fontColor=#1939d7;strokeColor=#0c1bed;entryX=-0.115;entryY=0.259;entryDx=0;entryDy=0;entryPerimeter=0;" edge="1" parent="1">
          <mxGeometry width="50" height="50" relative="1" as="geometry">
            <mxPoint x="1675" y="1724" as="sourcePoint" />
            <mxPoint x="1689" y="1729.2600000000002" as="targetPoint" />
          </mxGeometry>
        </mxCell>
        <mxCell id="38yjaDSSOYZPgfIshnpb-631" value="&lt;font style=&quot;font-size: 4px;&quot;&gt;&lt;b&gt;Mean shift vector&lt;/b&gt;&lt;/font&gt;" style="text;html=1;align=center;verticalAlign=middle;resizable=0;points=[];autosize=1;strokeColor=none;fillColor=none;rotation=10;fontColor=#0c1bed;" vertex="1" parent="1">
          <mxGeometry x="1666.5" y="1692" width="51" height="26" as="geometry" />
        </mxCell>
        <mxCell id="38yjaDSSOYZPgfIshnpb-633" value="" style="shape=image;verticalLabelPosition=bottom;labelBackgroundColor=default;verticalAlign=top;aspect=fixed;imageAspect=0;image=data:image/png,iVBORw0KGgoAAAANSUhEUgAAAQAAAABVCAIAAAApJK3BAAAU8UlEQVR4nO2daUBTxxbHT0AEISyhggSFByKIFEFFfILIc6mKxQeoVbQKgtoKbuC+VBb32vAUcAlqsYrWWhU3XLDuoIISLEiRHWQLAhK2RJYs931AETQ3udmR3N83wp2byb1zZs6cOTN/AoIggIOjrKgougI4OIoENwAcpQY3ABylBjcAHKUGNwClA2G+PLF4YXjSG7lHP5j5p1d5hd2p4vSguAtuAEoGu+D86k3JLhvXjzciyPu7iVYLwzapxyz65Ul9jzEBAh4GVSIQBu1/S3yKfG4fnGnaR+7tv4PWlzHeqzIXnTw4y7yPYmrQDXwEUB64TelxW08NjdzuobDWDwAaw/32LKD/FHWtrFVhdegCbgBKw7vMk1tjNdf4TjJUbM9L0LDxCvJM/ynyYU0PcD5wA1AS2PTEX8PLvVZ7DVVTdFWAYDB+sf/Q41FxLxoVXRXcAJQEdt61mFvDAme76Kt+9r/Wsvsn9mzy9ww8m9+KALwrvhTu7x9xv5aD4b7ilSWoWU5burBi/5lUhsIHAQRHKOzKlNg1E4jL4ulsNv1xTJCbBTEgns5WdLWww2PRIpxgTmxeC8r/m/POBFiCmQf1RXXGkfmLzxW18zDfG6Vs46MQ26CEGg5KMW7jvS1kUlBCtYIfIz4CCKXp1e0XYKBTTvpKrewi5SJroocrqGlpqct9HonUpJ6ICFk0TptA0B49c3Xo0fvlbQAAwHoVM5ugPW5RSOcnn9D4MvF6isuksRYa/O9MIFrNDlzrAdf2b/phf+uqiO8Gq2H+dWhlNS09qSsm9P98wOlARdvW2RNuX3pMV+wY0BMiUXKG15S889+u4bkWE+aMM+3H/xpOXfaDG3S/e7m7Juno2LhPZ9x+yDCnP8j0Cl85knX5crWrsxUJ7dXKDILh2MXrR9vDH3HltkGUKJ8hBAAALjP7IiWqLfTKnyGTB/F/nW2Fjy/QzObstRBQZY2vvTcvPz91R45mwEDtD91iU2p0MDWdy7eAtkPgjtVj9VHL9iE7uAj8NQbWzq6soKSciFmm+oIulDGKHYAUA+s5xYkElmsS6O2o1/AqElZs+TBAMzOi3IhTojNYPASpvbfRyYWahTa0yxg2PX4ZgFNIUh2CIAjCaf7npJ+1e+jdcgGeBDcvdirYByW+EXjn5ry4oIkOFgBOaxIrMTtAfMvy2PTH1GUulhSaQP+GmRHlBiZhSUwRv02qKKULpPm1x9LpxIKL0Rey3qFdQzCwG69eUtUKAIBUvbxfOyfA006TAG2vX9wmTPzaWO79fwet9OI8gMGWg7QAEA79Vsi8C6aHYlD7fgAAHrOiMAvMrE200W/LbaL9tq/iu4vXDgRaZh3/3/n0Jv7dPrayLW+ZJJthJt8OF1ArANAwHmxJLM/ILm3B/F0yQIHGp0B4dXc3WROFDAKd1CUGkRbEFbci73tT/9iku5dT6IrouCoTllmDSVgSk8um/xU6xUtw348gCIKwsqmeQFyFPh9tKb1Lme8VmdbIQRBW0blASyA7+h1NY2AZ5FDK1uXGeS5AnXN/gE2jWIDDxnu1GL5IViipASAIKy/2eyKYTNydzBDSkLmN97aQ7Sm0Vh6CIJyMqJEWnpvOpNWwJWn/nPrsm7GRoUHebh5hD2o67sSrTYkO8vULiS9CbzecjKiRRPD8LaMwIcTTn/KoAkMMpS4pxAkshLgjUqYuMcjh/RMTBD3eF8hTY3O4cqkUX5TWAD4MAsTvY/NY8v9ydnNZRnzoRCJ88JtbKxM22E7ceZfeKqhcTcIyIhBdp0+3tA9IqMBmgmXxvhbgQs2W36yF23hvi8XG67n5pc2Cq1iTsIwob9v8BKWcAwAAAEHfafEGDyLzGuVEityXYwh9iCb2szbFRH1PhJQDwYdv/311517C3jMbJpPVP1zDrrq+1mpUdGYXb5xLL37OJFmw6KkFmWeiL2Dy1HmshjfvYLChHKNWSNu7dyrZTzPZulqCo6kk8pABwKh42ySnivFBeQ0AQNPyvz5LLSH38IkrBaiTYZlWwGpecJgTCXL3TJ+cMOLoVndj9S7/5bHbwcbDzvjjK+I2vil7DaYTwo5dCJ0Od0J8wm7RhebW81iMoiqZVB8VVYMZkfnXd8+10cWymlBfz+K7eCEflNkAgGDg7LfyGyLzdX4FU1g74tMfCwTh1GZcilgyxv+SoNanOWrxrhXWAMBmtnEJ3ZuLuums/VfCJxh8/LTtTUlhPZhZW9hO3hJxxM8yNzL0pz9yJEyqJMgeySooW5TaAAC0TGyH2wWsW+5qIOwtfd4fC7j29fV131objpy94UQaT/ClbQ21DdoWJsC88lPYxXy2YDNsLs99DaQh5kbqoGGzcH/07olvTy7feogmkQeH1Vlm1+bRnt79Izr6vsjhLwlqJ3OU2wDeZZ7ZV75kjRuG/PjP+2N0VNTViF8HxD+8ttNV4HXcJtqxFVdHnrj+ix8JmFePRN6ueN9YkMb8K9s9h0yKSGd2uby2JL0MzEyNdFUBgEAatzZmrx/53gafn2/Q0Z0IgjqRTMJQaSEgrS0ttU+ifzhVgWBPk8AE2UhPS6o3FAllNoB3xQlxD9xXzbPSlPadydO2R6yf5WCsIeDxIhz6rbCgQr9d82ytPbZF+ZMgnbrh4A16GwC76smjEm0D9eqhg427ZO80VuZm18PwQYbvp7MEDavvdu8PtM6lrv3pYn4rSkerqms4WB+yKmqwL23xg0A0sRs6gMC0G2WpK9GNutL0toIBmga6Un8B2FFeA0Bqkg4d0lm10F740+fbH0tEa0niviVee1vXrZs9WBNA02JO8B4PM8ilzPfaFF/MJbvMcCJUPHZ2tB3QsZbakPknZWNASGw9wJNT+3Yf/5D0pm7svvk0ZXLVyYBvv1tz4H4ZP4ern56RHjS1S7wTHXlXUfRi5AhrY+ltKGhj1deb2A7QVdCyOoBSJsMBAADCSI87375p+0Q++fGd15Sc3/Z0RPgc7Wdd+mOk4vb2HWdL0FyO/v9ZG7bYXkfY12uYu20+5ba5ywd2AVdLAj7+zch8mGzuPtfsfQelZ++9wd57wy+f34mgP3r9leb1Ar5L08h8EBQVltZyHMiSvO62yoJXnCkB5iqN+deP790RnbkwIW21vSRtl1tTkQX6robaCpwmK6cBIOyCawdypu0MGoT+6LlN6TeTLSbOVOur5jJD6/42f2fHXQP6AGHQtPBj02RdwbbiZ9d4kw+a9pXCvdSNzIeQoLCmvh0kMgBmRV7VGCvu80NxjHGjxpC0WgboSuY/dER1rVaaS8+nEh2lNACk4nbkkWfFptuX3kS7REVXvTmx2vXCIjUAgIbu/bHM4ZW+vJM51Bv+vpJq4zmWLFkHqapnbuMINzKKG8BGAmeb+yb/aXVjTY7KnmVztZ5syho6YbihZBVre1NSWE+2MTOShpmLixIaAJfx4NgGaloRpBUJvpAU5EfWAOjeH0vHBRIMwm5mVFsw8st013lL4fQeFbNR7s7VEc+LWDOMxY63IDX5zzLMp1AWTiT3fZf67Kahy0kLlM0UmO+Y9TCTNDdwhI4iJ6JKaADQ19LnatlybbV+pAF6Gp3ti8N8W9vM5jTX1DR/2NCq8y99Vfi0P5aDC0RQd1ifUSjIrxeNvmZjvrUvT8wu5Y63EdNn5zXn0G47e28Zo0+Ad68zntVNW20p4Z64+ryUv1TdqFZSiNFKgCyNj1Nxb++u3/OxRE44tUnRW06+FLoeKw1UiSZWViZkslGX1g8AfYj9yWSyiZW9QyeW/fsQuvbH40Zj7I95zMyLERERx28UQcq5SEr0n5kNsvktGNG1c5vh9Ph+apHYq8bvSv7JNnJ3sFABQOjpiUUu5u1pZ+8UCFm5EwCvKePRefZ/PJ0GKnihWMRFPcywy++GBUek1WFeNWwpjd8WGJspJH8QRzzas6hTzJyj/m4Trzg3J3bqyGUJlQjSkZJtNiE4jlYjMHFVMLyKhABbcnAi9vYhI2RkAC2l8Wum7n7aKNLPYxee819AEcFmcLDTXhkfSLLdk8LqEU+XWxTnRXSj0BoUXRHZpEMjjCdHdrQv8xutI9Lw1mfwf1eMvLzrigQDKw4aasZuS8PJ8UcTirEc9yNbkNonp05n+yxfMEqRAdAOZGEA7eV3zsY5ubmQRV0yJGgOn+xde+5CuuIPDOuFaNr7hHhlh59MYkiWFCEpSOuryxHHB4WsmyxhfFcqyMAAkMqUq1nTpthhyhv7hL6Dx80knLuXo5D0/N6OKsll+ZElr7ZRHtQqbohFmC+Ob/3d+FDIfAsFZgB9BM0AEM7bgnRacuLvUZsXhV2vqsu/smfeaGOC9pi5IafT37I5VU+OBk8fQtAeMmnlwaTKbqNqfX5KovG/rft3af/chle3TkSFBc+b7hn+8P3TR96mHgxe5B96qbhraELLfPjwysTM14rtpHorBP3RQT8HVe8PvVyiGEcIeZMcsSvh37v3zJTD2ejYWh3K3IDXUpwcTw1yBABw9Q3evOvXU7+GeFsCABCtFwasCtx36o/DG92tAQCsw5MaP25r5mREjYRl3U8OFGELLJtGsRB0hAGOpPCaM2P9F4Q9qpL7dLg5L26lZ+hfdInOE8AOplYnMApEj/cFAJhFzWYiCILw3iaFugIATInJbuchCMIrPTefCACe1OzOfeXcxntbyPz3OXccxABgvfXWiz8DnDcmVPKLo9HjfQWcYsnNj/Myw2D9Zl5x+Qo8awCnxyCk1WGZAxgYktQBAAi6Q+yHAQCQDUhqBAAgGA8ZNQAAGpktnXm4PFYDA2UToOAtsF2pZTSjDNEqlj6XSzD87JLLPpbKm+rd26hLDh0vbN+l9rDQJH6b64W0Ovk2EkFbYOWHHHbB4ogNvzf21fgdycK6vOacHa78c7AEtjqpG4CKlp4+mdvO5vINNAjfAotw2G1goK+NMkfiFZyeaY7hMZrPPF2Ath1X3MEURx6I2e4EIajVycAAvjIyel1G5xNsRt8C2/WimnIayXRgf5Q1BNwFwhENga2O81b6jUTVZKgrqbSi5pOEYQFbYLtVt76qrNrRxlxPgbvkegtIY/aJlV6dEUD50XP0gAW3urrkHTPR/AFOPe3MNl9nIgAA2dE39BQtl3Yq1NeRDABAdPbddoZWz+k43RSAaOG+al9i8fvIJa803m+kZ1xBl1hXS/Gtvb6OzgHxxe+DQy2ZVA8zACA6Bl3sdhRmXVKIi/g5WzgfYRWdW+Hkd/KfZkUElHm1T3fPmiL83FWZIrTVNWZQv5eFQ8yuTggizz9XKsaPZz3dZesRldEs/UopF5zGtANTrIPiS4WczyxDWjKpHq4fG19PRRZ+ch/DSQvWll6/K/J5g1xG6s0Ljou+syPKoFZKBNJEO7b1qm3kxpmmKJpIcqCH6QGjIZuJouaoxTvNf4tJEk0ItjX7fHTl6s1uxj0gR+pLpunlyZ/3aPoETFJsslnP0gNGQ0aRElX9icEHjON/vlGGNecEacg8fuSlb4iv9I+pUi4Q+t2o8JofV8+wlPIJbqLTk/SA0ZBZqJCgPzo4zJ0WSc3EcvY1p+bO8Ti95b/II0eqd8PKufb7b8PmzXf5PBlXufWA0VD0JARHqrCeU5zMUDVXlFgPGA3cAMRFdurZvOqUWEpHDJro4LUqJOZeWUf+FjObOguIzr7bOj/5tCQrZY9tt9zEz+gIBVpO8fDd/xSTCpiwsmw6LTlfwE5uXnVCAMnaP16coKAcwD2OTkTSD95olNyhnt1Prewi5bn+bA9XSlyddNSzxdYDhuacxw/+MZswQsCJPXw1fYGRGh1KTW/mW0LVITBy9VgdtLJfih4wGoq2wJ6EaPrBnLrEdSTX+WuOPm/ksenxAUTPuGKp9XLi6AEj3JzYqWRSUGKdoDsrqR4wGni+TBdE0w9uLc/LZqs7LVo4WofQkPMsc4TbSFOpxV3E0AMGYNLzslq/th6IvtVcifWA0VC0BfYsRNAP5hXEeTq8d21b0yj2zh96a6kghh4wwsmmuoD1+9N7+KDUesBo4AbwCZj1g2Wqni2OHjCPmRRmAhMoNDkmknw5esBo4C7QJ2haei1eYV3/YC/1sqBUDl5TxqPzpiNsjPsCANLCrBXt7ERhMMpfFTCJ9ee3TN9Wu3TnOteBGIIV3KbaN+WgS+wnt3fKa8p4dH3yMGJZuZAzLfv07UesKmKwhAimKQLcAD4Fm36wis6kPfSM9Q7qBABQtV/9ovDKzwtGGwjXGsOEOHrAwGluYAAYGZLkdtr4l6QHjAZuAJ+jcP1gsfSAgdPMqJVH7T7yJekBo4EbAB8w6weLKh4M2PSDZaIHDEovCcwX3AD4glE/WBTxYMCuHywTPWDAGPGTQA8Y6dmSwHzBDYAfWPWDRREPBsz6weLpAYNKP6IUzprtrXrAaOAG8DmK1Q8WVw8Y+pIMjQA+340tGr1VDxgN3AA+Bat+sPTFg0EyPWAVLT19MrRKLAjcO/WA0cCT4bqDVT84eeAUXWZXMXfpiOdJogesomVkagHns0rrwUGSPaW9Uw8YDdwAuiKCfvD+CdYtneLBAHLSDxaIqpG5A4mRXtPIBRMJ2mvv1ANGAzeALoimH9yQKl/xYOHo/cvOUSM24zUDbA3Evkkv1QNGAzeATkTUD27L7SbmLg/9YGGoDHJwH8WMoOWy3A2ErM2i0lv1gNHADeAjIukH84q7i7n3ABcIQMtyzDjb8mfZpS3jxRSF77V6wGjgBtCJKtHEyurzj/sQ+5OJAGSySddPkTZxxNx5zMxLMXf+KbxRBJXnIikVo6b6etvrSV71DxA07b5Z5HTscmrZjzbWYvW3HXrA3h/1gN3a087eMZ3zjbhnTLzXAz6gcD1gNERf7MPpyTCzqbPAOTqjTay87N6rB4wGAfkCl69xBIDQLy2xPWhx8/JPY6U4togJr/j0bPuz4x6eW+/QE0NAgC+E9T4Ixt8EhesdPvpXmcIPZ+5JesBo4AbQ+9Cx8wn+IfvwkSQFqqFCT9MDRgM3gF4IgeSy7sjMF9sOP8B06ptM6Gl6wGjgBtArUdUZ/WNMUN220GuKcYTkqgcsEbgB9FY0B8/dfdzx/updjxSgEHNm935k+amN40g92PnpAI8C4Sg1+AiAo9TgBoCj1OAGgKPU4AaAo9T8H/EUT7zyW9MeAAAAAElFTkSuQmCC;rotation=10;" vertex="1" parent="1">
          <mxGeometry x="1676" y="1711" width="32" height="10.63" as="geometry" />
        </mxCell>
        <mxCell id="38yjaDSSOYZPgfIshnpb-635" value="" style="shape=waypoint;sketch=0;size=6;pointerEvents=1;points=[];fillColor=#ffe6cc;resizable=0;rotatable=0;perimeter=centerPerimeter;snapToPoint=1;strokeColor=#d79b00;" vertex="1" parent="1">
          <mxGeometry x="1682" y="1721.63" width="20" height="20" as="geometry" />
        </mxCell>
        <mxCell id="38yjaDSSOYZPgfIshnpb-637" value="" style="endArrow=classic;html=1;rounded=0;fillColor=#ffe6cc;strokeColor=#d79b00;" edge="1" parent="1">
          <mxGeometry width="50" height="50" relative="1" as="geometry">
            <mxPoint x="1715.5" y="1737.37" as="sourcePoint" />
            <mxPoint x="1696.0000000000002" y="1731.9999999999998" as="targetPoint" />
          </mxGeometry>
        </mxCell>
        <mxCell id="38yjaDSSOYZPgfIshnpb-638" value="Center of mass&amp;nbsp;&lt;div&gt;within region of interest&lt;/div&gt;" style="text;html=1;align=center;verticalAlign=middle;resizable=0;points=[];autosize=1;strokeColor=none;fillColor=none;fontSize=5;fontColor=#d79b00;" vertex="1" parent="1">
          <mxGeometry x="1700.5" y="1727" width="69" height="24" as="geometry" />
        </mxCell>
        <mxCell id="38yjaDSSOYZPgfIshnpb-640" value="Imagine a lot of points in this side" style="text;html=1;align=center;verticalAlign=middle;whiteSpace=wrap;rounded=0;fontSize=2;" vertex="1" parent="1">
          <mxGeometry x="1679" y="1738" width="18.75" height="10" as="geometry" />
        </mxCell>
        <mxCell id="38yjaDSSOYZPgfIshnpb-641" value="Imagine not so many points here" style="text;html=1;align=center;verticalAlign=middle;whiteSpace=wrap;rounded=0;fontSize=2;" vertex="1" parent="1">
          <mxGeometry x="1636.25" y="1700" width="19" height="18" as="geometry" />
        </mxCell>
        <mxCell id="38yjaDSSOYZPgfIshnpb-642" value="" style="ellipse;whiteSpace=wrap;html=1;aspect=fixed;" vertex="1" parent="1">
          <mxGeometry x="1797.5" y="638.13" width="15" height="15" as="geometry" />
        </mxCell>
        <mxCell id="38yjaDSSOYZPgfIshnpb-643" value="" style="ellipse;whiteSpace=wrap;html=1;aspect=fixed;" vertex="1" parent="1">
          <mxGeometry x="1801.5" y="661.13" width="15" height="15" as="geometry" />
        </mxCell>
        <mxCell id="38yjaDSSOYZPgfIshnpb-644" value="" style="ellipse;whiteSpace=wrap;html=1;aspect=fixed;" vertex="1" parent="1">
          <mxGeometry x="1819.5" y="642.13" width="15" height="15" as="geometry" />
        </mxCell>
        <mxCell id="38yjaDSSOYZPgfIshnpb-645" value="" style="ellipse;whiteSpace=wrap;html=1;aspect=fixed;" vertex="1" parent="1">
          <mxGeometry x="1823.5" y="667.13" width="15" height="15" as="geometry" />
        </mxCell>
        <mxCell id="38yjaDSSOYZPgfIshnpb-646" value="" style="ellipse;whiteSpace=wrap;html=1;aspect=fixed;" vertex="1" parent="1">
          <mxGeometry x="1854.5" y="656.88" width="15" height="15" as="geometry" />
        </mxCell>
        <mxCell id="38yjaDSSOYZPgfIshnpb-647" value="" style="ellipse;whiteSpace=wrap;html=1;aspect=fixed;" vertex="1" parent="1">
          <mxGeometry x="1834.5" y="616.13" width="15" height="15" as="geometry" />
        </mxCell>
        <mxCell id="38yjaDSSOYZPgfIshnpb-648" value="" style="ellipse;whiteSpace=wrap;html=1;aspect=fixed;" vertex="1" parent="1">
          <mxGeometry x="1854.5" y="631.13" width="15" height="15" as="geometry" />
        </mxCell>
        <mxCell id="38yjaDSSOYZPgfIshnpb-649" value="" style="ellipse;whiteSpace=wrap;html=1;aspect=fixed;" vertex="1" parent="1">
          <mxGeometry x="1799" y="688.13" width="15" height="15" as="geometry" />
        </mxCell>
        <mxCell id="38yjaDSSOYZPgfIshnpb-650" value="" style="ellipse;whiteSpace=wrap;html=1;aspect=fixed;" vertex="1" parent="1">
          <mxGeometry x="1819" y="703.13" width="15" height="15" as="geometry" />
        </mxCell>
        <mxCell id="38yjaDSSOYZPgfIshnpb-651" value="" style="ellipse;whiteSpace=wrap;html=1;aspect=fixed;" vertex="1" parent="1">
          <mxGeometry x="1858.5" y="689.88" width="15" height="15" as="geometry" />
        </mxCell>
        <mxCell id="38yjaDSSOYZPgfIshnpb-652" value="" style="ellipse;whiteSpace=wrap;html=1;aspect=fixed;" vertex="1" parent="1">
          <mxGeometry x="1878.5" y="705.88" width="15" height="15" as="geometry" />
        </mxCell>
        <mxCell id="38yjaDSSOYZPgfIshnpb-653" value="" style="ellipse;whiteSpace=wrap;html=1;aspect=fixed;" vertex="1" parent="1">
          <mxGeometry x="1873.5" y="663.88" width="15" height="15" as="geometry" />
        </mxCell>
        <mxCell id="38yjaDSSOYZPgfIshnpb-654" value="" style="ellipse;whiteSpace=wrap;html=1;aspect=fixed;" vertex="1" parent="1">
          <mxGeometry x="1893.5" y="678.88" width="15" height="15" as="geometry" />
        </mxCell>
        <mxCell id="38yjaDSSOYZPgfIshnpb-655" value="" style="ellipse;whiteSpace=wrap;html=1;aspect=fixed;" vertex="1" parent="1">
          <mxGeometry x="1942" y="618.88" width="15" height="15" as="geometry" />
        </mxCell>
        <mxCell id="38yjaDSSOYZPgfIshnpb-656" value="" style="ellipse;whiteSpace=wrap;html=1;aspect=fixed;" vertex="1" parent="1">
          <mxGeometry x="1946" y="641.88" width="15" height="15" as="geometry" />
        </mxCell>
        <mxCell id="38yjaDSSOYZPgfIshnpb-657" value="" style="ellipse;whiteSpace=wrap;html=1;aspect=fixed;" vertex="1" parent="1">
          <mxGeometry x="1964" y="622.88" width="15" height="15" as="geometry" />
        </mxCell>
        <mxCell id="38yjaDSSOYZPgfIshnpb-658" value="" style="ellipse;whiteSpace=wrap;html=1;aspect=fixed;" vertex="1" parent="1">
          <mxGeometry x="1968" y="647.88" width="15" height="15" as="geometry" />
        </mxCell>
        <mxCell id="38yjaDSSOYZPgfIshnpb-659" value="" style="ellipse;whiteSpace=wrap;html=1;aspect=fixed;" vertex="1" parent="1">
          <mxGeometry x="1990" y="651.88" width="15" height="15" as="geometry" />
        </mxCell>
        <mxCell id="38yjaDSSOYZPgfIshnpb-660" value="" style="ellipse;whiteSpace=wrap;html=1;aspect=fixed;" vertex="1" parent="1">
          <mxGeometry x="1986" y="618.88" width="15" height="15" as="geometry" />
        </mxCell>
        <mxCell id="38yjaDSSOYZPgfIshnpb-661" value="" style="ellipse;whiteSpace=wrap;html=1;aspect=fixed;" vertex="1" parent="1">
          <mxGeometry x="1951" y="674.88" width="15" height="15" as="geometry" />
        </mxCell>
        <mxCell id="38yjaDSSOYZPgfIshnpb-662" value="" style="ellipse;whiteSpace=wrap;html=1;aspect=fixed;" vertex="1" parent="1">
          <mxGeometry x="2008" y="806.88" width="15" height="15" as="geometry" />
        </mxCell>
      </root>
    </mxGraphModel>
  </diagram>
</mxfile>
